<svg id="Layer_1" xmlns="http://www.w3.org/2000/svg" viewBox="0 0 91.4 61.1"><style>.st0{fill:#fff}.st1{fill:#f9e038}.st2{fill:#66dbff}.st3{fill:#00c2ff}.st4{fill:#f8df38}.st5{fill:#00c1ff}.st6{fill:#fff100}</style><path class="st0" d="M61.4 34.4c.5 1.2 1 2.1 1.3 2.3.1 0 .2 0 .3-.1 2.1-1.7 4.1-4.4 5.7-8.4-2.1 1.7-4.1 3.8-5.1 5.1l-.3-.6c-.3.3-1.5 1.3-1.9 1.7"/><path class="st1" d="M62 12.5c-2.6-.6-4.3 1.7-5 4.1-.6 2-1.6 2.1-2.7 2.4-.1 0-.1.1-.1.1.7 3 8.9 7.3 10.6 3.8-1.7-2.5 1.9-1.7.6-5.9-.5-1.7.5-3.6-3.4-4.5"/><path class="st0" d="M59.6 21.9c-.1.3-.3.5-.7.6 1.5 1.7 2.9 1.5 3.2 1.5-.1-.2-.1-.4-.1-.6-.4-2.2 3.7-3.1 2.5-6.5-.6-1.8-1.3-.3-3.2-.7-1.3-.4-2.5.8-2.3 2.7.1 1.4.9 1.7.6 3M47.8 19.8c1.2 1 2.1 1.7 2.8 2.3.4-.5 1-1.5 1.2-2.2-.5-.3-1.1-.6-1.7-.9-1.3-5.4-3.2-7.2-2.7-9.5.1-.5.1-.8 0-1.3-.1-.7-.1-1-.2-1.1-.2-.2-.4.1-.4.7 0 .3 0 .5.1.6l-.5-2.2c-.1-.4-.5-.3-.4 0l.3 1.5-.5-1.9c-.1-.4-.5-.3-.4.1l.4 1.9-.5-1.8c-.1-.4-.5-.3-.4.1l.4 1.7-.3-1.2c-.1-.4-.4-.3-.4 0 0 0 .3 1.4.5 2.3.2 1 .9 1.4 1 2.1.9 5.1.6 4.1 1.7 8.8z"/><path class="st2" d="M62.2 23.8c-.2 0-1.6.3-3.3-1.5h-.1c-.2 0-.9.1-1.2 0-1.2-.4-5.1-2.3-6.1-2.7-.1 1-1.3 2.6-1.5 2.8l5.7 4.1s-1.1 4-2.9 8.5v1.4c0 2.6 5 4.3 9.9.5l-1.3-2.2s2.3-1.8 2.2-2.1c-.8-1.5-.9-3-.9-3s.6-1.7-.5-5.8"/><path class="st3" d="M68.1 29.7H52.9v1.8h14.3l.9-1.8"/><path class="st0" d="M29.9 27.6c-1.7 1.4-3.3 2.9-4.4 3.4-.2-.6-.3-1.2-.4-1.9-.6.5-1.2.9-1.2.9l.4 4.1c.1.2.2.3.3.3 1.1-.2 2.1-.9 3.1-1.7.9-1.5 1.6-3.2 2.2-5.1"/><path class="st4" d="M20 17.3c0 .3.2.6.1.8.4-.1.4-.2.7-.4h.3c0 .2.4.6 1.1 1 0-.4-.1-.8.1-1 .1.2.4.4.7.7 0 0 0-.1.1-.1l.1.1c0-.2.1-.4.2-.5.1-.1.3-.2.3-.2s.8.3 1 .6c.1-.5.2-.8.1-.9l.1-.1c.3 0 1.1-.9.9-1 0-.1.1-.2.1-.3.2 0 .7-.9.6-1.1.1-.1.1-.3.1-.4l.1-.2c.1-.1.3-.3.9-.1-.1-.3-.4-.8-.5-1.1l.2-.2h-.2c.2-.2 1.3 0 1.6 0-.2-.4-1.3-1.1-1.6-1.1.2-.2.3-.5.3-.8 0 0-.1 0-.1.1v-.3c-.4.1-.7 0-.9-.1.2-.1.6-.2 1-.1-.6-.6-1.1-.8-1.4-.9v-.5l-.4.4c0-.2 0-.8.2-1.1-.8.1-1.3.5-1.3.5s.3-.6-.7-1.1c0 .4-.1.7-.3.9l-.7-.7c-.1.4-.6.7-.6.7s-.7-.2-.9-.6c-.2.7-.1.9-.1.9s-.7 0-1.6.7c.3 0 .6.1.7.2 0 0-.2.4-.8.1.2.2.1.5 0 .7-.3 0-.6-.1-.8-.2 0 .3.1.6.2.8-.1.2-.3.4-1 .2.1.2.2.5.3.7-.1.1-.2.2-.2.4h.4l.1.2s-.5.8-1 .7c.3.5.9.7 1.2.7-.2 0-.4.2-.5 1 .1 0 .2-.1.3-.1l-.1.1c.3.1.5.1.7.1-.2.1-.6.1-1 0 .8.8 1.4 1 1.7 1.1 0 .4.1.6.2.8"/><path class="st0" d="M20.3 18.9c-.1.3-.4.5-.8.7 1.7 2 3.3 1.8 3.5 1.7 0-.2-.1-.4-.1-.6-.3-2.5 3.9-2.5 2.7-7.7-.2-.8-1.3.2-3-.3-1.5-.4-2.7 1.1-2.9 2.8-.2 1.4 1 2 .6 3.4M6.7 16c1.5 1.4 2.6 2.2 3.5 2.9.4-.5 1.2-1.6 1.5-2.5-.8-.4-1.5-.9-2.4-1.4-1.7-4.7-3.4-8-2.9-10.6.1-.5.1-.9 0-1.4-.1-.8 0-1.1-.2-1.3-.1-.2-.4.1-.4.8 0 .3 0 .5.1.6L5.4.7c-.1-.4-.5-.4-.5 0l.3 1.7L4.8.3c-.1-.4-.6-.4-.5 0l.4 2.1L4.3.6c-.1-.4-.6-.4-.5 0l.3 2-.3-1.3c-.1-.4-.5-.4-.4 0 0 0 .3 1.5.4 2.5.2 1.1.9 1.6 1 2.3.8 4.1.9 4.7 1.9 9.9"/><path class="st4" d="M23 21.1c-.3 0-1.8.3-3.6-1.8-.2 0-1 .1-1.5-.1-1.3-.5-5.5-2.7-6.6-3.3-.2 1.1-1.6 2.9-1.8 3.1l6.2 4.8s-1.2 12-1.9 14.5c.2.3.4.5.7.8 1 .3 2 .6 2.9.7 2.1-.1 4.7-1.1 7.1-3.3l-.5-6.1s2-1.4 1.9-1.7c-.5-1.6-1.3-7-2.9-7.6"/><path class="st5" d="M29.1 29.8H13.6v1.8h14.7c.3-.6.6-1.2.8-1.8"/><path class="st3" d="M77.4 25.3c-1.6-1.4-3.1-2-4.6-2-2.7 0-3.5 2.7-4 4.1-5.2 13.9-15.6 12.3-15.7 8.5V25.6c-5-.1-15.1 0-21-.1-1.1 0-2 .8-2.3 1.7-3.8 13.4-16 14.4-16.1 9v-11c-3.3-.1-5.6-.1-6.8-.1C-.5 25.1-3 61 4.2 61c12.9 0 72.1.1 72.1.1 10.5 0 18.9-6.2 13.2-17.1-5.6-11.1-10.1-17.1-12.1-18.7"/><path class="st4" d="M.1 50.3c.3 6 1.6 10.6 4.2 10.6l72.1.1c8.9 0 16.4-4.5 14.9-12.6l-4.6-1.9-6.8 5.8c-.1.1-.6.2-.8.2L68.4 49 59 54.6c-.1.1-.6.1-.7.1l-12.2-5.2L34 55c-.1.1-.6 0-.7 0l-9.6-5.3-10.5 4c-.2.1-.7 0-.8-.1l-7-5.6-5.3 2.3z"/><path class="st6" d="M0 48.5c0 .6 0 1.2.1 1.8l5.4-2.4 7 5.6c.1.1.7.2.8.1l10.5-4 9.6 5.3c.1.1.6.1.7 0l12-5.6 12.2 5.2c.1.1.6 0 .7-.1l9.4-5.6L79 52.7c.2.1.7 0 .8-.2l6.8-5.8 4.6 1.9c-.1-.6-.3-1.3-.5-2L86.8 45c-.2-.1-.7 0-.8.1L79.2 51l-10.5-3.6c-.1 0-.6 0-.7.1L58.6 53l-12.2-5.2h-.7l-12 5.6-9.5-5.3c-.1-.1-.6-.1-.7-.1l-10.4 4-7-5.7c-.1-.1-.7-.2-.9-.1L0 48.5z"/></svg>