<svg id="Layer_1" xmlns="http://www.w3.org/2000/svg" viewBox="0 0 300 600"><style>.st0{fill:#fff}</style><path class="st0" d="M25.3 579.9l-.7-.3c1-.5 1.7-1.2 2.1-2-.2.2-.5.3-.8.3-1 0-1.6-.7-1.6-1.6 0-1 .7-1.7 1.7-1.7.9 0 1.7.6 1.7 1.8 0 1.3-1 2.8-2.4 3.5zm.7-4.7c-.5 0-.9.4-.9 1s.4 1 1 1c.4 0 .8-.2 1-.7v-.2c-.1-.6-.6-1.1-1.1-1.1zM30.1 579.8c-.9 0-1.7-.6-1.7-1.8 0-1.4 1-2.8 2.4-3.5l.7.3c-1 .5-1.7 1.2-2.1 2 .2-.2.4-.3.8-.3 1 0 1.6.7 1.6 1.6 0 1-.7 1.7-1.7 1.7zm0-2.6c-.4 0-.8.2-1 .7v.3c0 .6.5 1.1 1 1.1s.9-.4.9-1c.1-.7-.3-1.1-.9-1.1zM32.3 579.7v-.1c1.2-1.4 2.1-2.7 2.1-3.5 0-.6-.4-.9-.8-.9s-.7.1-1 .3l-.2-.6c.3-.2.7-.3 1.2-.3.9 0 1.6.6 1.6 1.6s-.9 2.1-1.6 3h1.9v.6h-3.2zM36.2 579.7v-.1c1.2-1.4 2.1-2.7 2.1-3.5 0-.6-.4-.9-.8-.9s-.7.1-1 .3l-.2-.6c.3-.2.7-.3 1.2-.3.9 0 1.6.6 1.6 1.6s-.9 2.1-1.6 3h1.9v.6h-3.2zM41.6 579.8c-.9 0-1.7-.6-1.7-1.5 0-.8.6-1.2 1-1.4-.4-.2-.8-.5-.8-1.1 0-.8.6-1.3 1.5-1.3s1.5.5 1.5 1.3c0 .6-.4 1-.8 1.1.4.1 1 .6 1 1.4 0 1-.7 1.5-1.7 1.5zm0-2.5c-.4.1-1 .5-1 1s.5.9 1 .9 1-.4 1-.9-.6-.9-1-1zm0-2.2c-.4 0-.8.3-.8.7 0 .4.3.7.8.8.5-.1.8-.5.8-.8 0-.4-.3-.7-.8-.7zM45 579.7h-.8l1.9-4.5h-2.3v-.6h3.4l-2.2 5.1z"/></svg>