<svg id="Layer_1" xmlns="http://www.w3.org/2000/svg" viewBox="0 0 300 600"><style>.st0{fill:#f9e039}</style><path class="st0" d="M72.79 131.79c-4.93 0-9.91-3.22-9.91-9.35 0-6.16 5.1-9.38 9.83-9.38 2.46 0 4.59.67 5.8 1.48l-.81 3.58c-1.09-.73-2.77-1.26-4.54-1.26-3.25 0-5.96 2.16-5.96 5.71 0 3.33 2.58 5.54 5.8 5.54 1.04 0 1.82-.17 2.44-.53v-2.83h-3.11v-3.33h7.08v8.51c-1.52 1.22-3.7 1.86-6.62 1.86zM93.49 124.32l-1.82 1.85h-6.22c.2 1.04 1.6 2.21 3.75 2.21 1.32 0 2.66-.39 3.5-.95l-.39 3.53c-.95.5-2.41.84-4.03.84-3.86 0-6.97-2.69-6.97-6.83 0-4.09 2.97-6.69 6.61-6.69 3.53 0 5.68 2.44 5.68 5.07 0 .29-.06.71-.11.97zm-5.58-2.97c-1.2 0-2.21.92-2.46 2.07h4.28c0-.08.03-.17.03-.28 0-.87-.75-1.79-1.85-1.79zM103.93 122.05h-3.3v4.7c0 1.09.59 1.54 1.68 1.54.48 0 .76-.03 1.06-.17l-.36 3.11c-.39.2-1.09.34-1.9.34-2.86 0-4.56-1.51-4.56-4.03v-5.49h-2.13v-3.36h2.13v-2.72l4.09-1.48v4.2h4.09l-.8 3.36zM117.56 137.84c-3.7 0-6.16-2.1-6.16-4.76 0-1.93 1.29-3.08 2.6-3.42l-1.62-1.62c.11-.81.81-1.51 1.54-1.82a3.997 3.997 0 0 1-1.85-3.39c0-2.69 1.93-4.56 5.24-4.56.76 0 1.34.11 1.88.25.56.14 1.18.22 1.82.22.7 0 1.43-.17 1.99-.42l.76 3.14c-.39.22-1.01.42-1.57.39.14.25.31.84.31 1.29 0 2.13-1.68 3.92-4.14 4.09-.5.03-.84.14-.84.48 0 .14.11.31.34.39l1.96.7c2.49.9 3.84 2.16 3.84 4.48-.02 2.6-2.4 4.56-6.1 4.56zm.87-5.96l-1.51-.42c-.98.03-1.71.73-1.71 1.65 0 .87.76 1.6 2.24 1.6 1.46 0 2.24-.67 2.24-1.4 0-.59-.45-1.21-1.26-1.43zm-1.12-10.62c-.92 0-1.62.7-1.62 1.51 0 .84.7 1.51 1.62 1.51.9 0 1.62-.67 1.62-1.51.01-.81-.67-1.51-1.62-1.51zM133.33 131.37v-1.74h-.03c-.5 1.34-1.85 2.1-3.89 2.1-2.77 0-4.45-1.54-4.45-4.23v-8.82h4.12v7.78c0 .92.64 1.74 1.9 1.74 1.23 0 1.99-.81 1.99-1.82v-7.7h4.12v12.68h-3.76zM148.36 131.93c-.76-.17-1.62-.76-1.96-1.68-.56 1.04-1.76 1.54-3.3 1.54-2.24 0-4.23-1.57-4.23-4.2 0-2.32 1.82-3.89 4.34-4.14l2.52-.25v-.42c0-.76-.62-1.26-1.99-1.26-1.23 0-2.6.39-3.53.98l-.73-3.11c1.04-.67 2.77-1.12 4.45-1.12 3.36 0 5.74 1.54 5.74 4.59V127c0 1.48.56 2.27 1.54 2.63l-2.85 2.3zm-2.63-6.1l-1.54.14c-1.06.08-1.54.84-1.54 1.6 0 .67.5 1.23 1.29 1.23.98 0 1.79-.76 1.79-1.85v-1.12zM160.21 123.06a3.04 3.04 0 0 0-1.23-.31c-1.32 0-2.52.7-2.52 2.72v5.91h-4.12V118.7h4.06v2.83h.03c.42-1.99 1.9-3.05 3.61-3.05.39 0 .87.06 1.18.17l-1.01 4.41zM171.18 131.93c-.76-.17-1.62-.76-1.96-1.68-.56 1.04-1.76 1.54-3.3 1.54-2.24 0-4.23-1.57-4.23-4.2 0-2.32 1.82-3.89 4.34-4.14l2.52-.25v-.42c0-.76-.62-1.26-1.99-1.26-1.23 0-2.6.39-3.53.98l-.73-3.11c1.04-.67 2.77-1.12 4.45-1.12 3.36 0 5.74 1.54 5.74 4.59V127c0 1.48.56 2.27 1.54 2.63l-2.85 2.3zm-2.63-6.1l-1.54.14c-1.06.08-1.54.84-1.54 1.6 0 .67.5 1.23 1.29 1.23.98 0 1.79-.76 1.79-1.85v-1.12zM183.2 131.37v-7.78c0-.92-.62-1.74-1.88-1.74-1.23 0-2.02.78-2.02 1.79v7.73h-4.12v-12.68h3.78v1.71h.04c.5-1.34 1.82-2.1 3.86-2.1 2.77 0 4.45 1.57 4.45 4.26v8.82h-4.11zM197.95 122.05h-3.3v4.7c0 1.09.59 1.54 1.68 1.54.48 0 .76-.03 1.06-.17l-.36 3.11c-.39.2-1.09.34-1.9.34-2.86 0-4.56-1.51-4.56-4.03v-5.49h-2.13v-3.36h2.13v-2.72l4.09-1.48v4.2h4.09l-.8 3.36zM211.2 124.32l-1.82 1.85h-6.22c.2 1.04 1.6 2.21 3.75 2.21 1.32 0 2.66-.39 3.5-.95l-.39 3.53c-.95.5-2.41.84-4.03.84-3.86 0-6.97-2.69-6.97-6.83 0-4.09 2.97-6.69 6.61-6.69 3.53 0 5.68 2.44 5.68 5.07 0 .29-.06.71-.11.97zm-5.58-2.97c-1.2 0-2.21.92-2.46 2.07h4.28c0-.08.03-.17.03-.28 0-.87-.76-1.79-1.85-1.79zM224.58 124.32l-1.82 1.85h-6.22c.2 1.04 1.6 2.21 3.75 2.21 1.32 0 2.66-.39 3.5-.95l-.39 3.53c-.95.5-2.41.84-4.03.84-3.86 0-6.97-2.69-6.97-6.83 0-4.09 2.97-6.69 6.61-6.69 3.53 0 5.68 2.44 5.68 5.07 0 .29-.06.71-.11.97zm-5.57-2.97c-1.2 0-2.21.92-2.46 2.07h4.28c0-.08.03-.17.03-.28-.01-.87-.76-1.79-1.85-1.79zM235.86 131.37v-1.57h-.03c-.7 1.29-2.16 1.93-3.92 1.93-3.11 0-6.1-2.35-6.1-6.69 0-4.09 2.91-6.75 6.44-6.75 1.34 0 2.72.45 3.22.87v-7.73h4v19.94h-3.61zm-.39-8.31c-.39-.53-1.23-1.15-2.49-1.15-1.79 0-3.05 1.4-3.05 3.22 0 1.82 1.26 3.22 3.05 3.22 1.2 0 2.04-.64 2.49-1.32v-3.97z"/><g><path class="st0" d="M41.55 167.83c-3.7 0-6.16-2.1-6.16-4.76 0-1.93 1.29-3.08 2.6-3.42l-1.62-1.62c.11-.81.81-1.51 1.54-1.82a3.997 3.997 0 0 1-1.85-3.39c0-2.69 1.93-4.56 5.24-4.56.76 0 1.34.11 1.88.25.56.14 1.18.22 1.82.22.7 0 1.43-.17 1.99-.42l.76 3.14c-.39.22-1.01.42-1.57.39.14.25.31.84.31 1.29 0 2.13-1.68 3.92-4.14 4.09-.5.03-.84.14-.84.48 0 .14.11.31.34.39l1.96.7c2.49.9 3.84 2.16 3.84 4.48-.03 2.6-2.41 4.56-6.1 4.56zm.86-5.97l-1.51-.42c-.98.03-1.71.73-1.71 1.65 0 .87.76 1.6 2.24 1.6 1.46 0 2.24-.67 2.24-1.4 0-.59-.44-1.2-1.26-1.43zm-1.12-10.61c-.92 0-1.62.7-1.62 1.51 0 .84.7 1.51 1.62 1.51.9 0 1.62-.67 1.62-1.51.01-.81-.66-1.51-1.62-1.51zM56.92 153.04a3.04 3.04 0 0 0-1.23-.31c-1.32 0-2.52.7-2.52 2.72v5.91h-4.12v-12.68h4.06v2.83h.03c.42-1.99 1.9-3.05 3.61-3.05.39 0 .87.06 1.18.17l-1.01 4.41zM65.09 161.75c-3.84 0-6.92-2.72-6.92-6.75 0-4.03 3.08-6.75 6.92-6.75 3.81 0 6.92 2.72 6.92 6.75 0 4.04-3.11 6.75-6.92 6.75zm0-9.91c-1.54 0-2.86 1.34-2.86 3.22s1.32 3.22 2.86 3.22c1.51 0 2.86-1.34 2.86-3.22s-1.34-3.22-2.86-3.22zM87.02 161.47h-2.83l-1.71-5.04c-.25-.78-.5-1.68-.76-2.63h-.06c-.2.95-.45 1.88-.7 2.6l-1.71 5.07h-2.69l-4.42-12.8h3.75l1.57 4.82c.22.73.48 1.62.62 2.44h.06c.14-.78.36-1.71.62-2.44l1.6-4.82h3.11l1.6 4.79c.25.78.42 1.65.59 2.46h.06c.17-.81.39-1.71.64-2.46l1.6-4.79h3.5l-4.44 12.8zM101.6 152.04h-3.3v4.7c0 1.09.59 1.54 1.68 1.54.48 0 .76-.03 1.06-.17l-.36 3.11c-.39.2-1.09.34-1.9.34-2.86 0-4.56-1.51-4.56-4.03v-5.49h-2.13v-3.36h2.13v-2.72l4.09-1.48v4.2h4.09l-.8 3.36zM111.57 161.36v-7.78c0-.92-.64-1.74-1.9-1.74-1.23 0-1.99.78-1.99 1.79v7.73h-4.12v-19.94h4.06v8.43h.03c.64-.98 1.82-1.57 3.58-1.57 2.8 0 4.45 1.57 4.45 4.26v8.82h-4.11zM132.96 161.92c-.76-.17-1.62-.76-1.96-1.68-.56 1.04-1.76 1.54-3.3 1.54-2.24 0-4.23-1.57-4.23-4.2 0-2.32 1.82-3.89 4.34-4.14l2.52-.25v-.42c0-.76-.62-1.26-1.99-1.26-1.23 0-2.6.39-3.53.98l-.73-3.11c1.04-.67 2.77-1.12 4.45-1.12 3.36 0 5.74 1.54 5.74 4.59v4.14c0 1.48.56 2.27 1.54 2.63l-2.85 2.3zm-2.63-6.1l-1.54.14c-1.06.08-1.54.84-1.54 1.6 0 .67.5 1.23 1.29 1.23.98 0 1.79-.76 1.79-1.85v-1.12zM144.98 161.36v-7.78c0-.92-.62-1.74-1.88-1.74-1.23 0-2.02.78-2.02 1.79v7.73h-4.12v-12.68h3.78v1.71h.03c.5-1.34 1.82-2.1 3.86-2.1 2.77 0 4.45 1.57 4.45 4.26v8.82h-4.1zM160.91 161.36v-1.57h-.03c-.7 1.29-2.16 1.93-3.92 1.93-3.11 0-6.1-2.35-6.1-6.69 0-4.09 2.91-6.75 6.44-6.75 1.34 0 2.72.45 3.22.87v-7.73h4v19.94h-3.61zm-.39-8.32c-.39-.53-1.23-1.15-2.49-1.15-1.79 0-3.05 1.4-3.05 3.22 0 1.82 1.26 3.22 3.05 3.22 1.2 0 2.04-.64 2.49-1.32v-3.97zM188.52 161.36v-7.78c0-.92-.45-1.74-1.79-1.74-1.32 0-1.9.78-1.9 1.79v7.73h-4.12v-7.78c0-.92-.45-1.74-1.79-1.74-1.32 0-1.9.78-1.9 1.79v7.73h-4.12v-12.68h3.81v1.71h.03c.5-1.34 1.76-2.1 3.75-2.1 1.82 0 3.19.73 3.75 2.07.53-1.23 2.02-2.07 3.92-2.07 2.88 0 4.48 1.57 4.48 4.26v8.82h-4.12zM201.28 161.75c-3.84 0-6.92-2.72-6.92-6.75 0-4.03 3.08-6.75 6.92-6.75 3.81 0 6.92 2.72 6.92 6.75 0 4.04-3.11 6.75-6.92 6.75zm0-9.91c-1.54 0-2.86 1.34-2.86 3.22s1.32 3.22 2.86 3.22c1.51 0 2.86-1.34 2.86-3.22s-1.35-3.22-2.86-3.22zM217.97 161.36v-7.78c0-.92-.62-1.74-1.88-1.74-1.23 0-2.02.78-2.02 1.79v7.73h-4.12v-12.68h3.78v1.71h.03c.5-1.34 1.82-2.1 3.86-2.1 2.77 0 4.45 1.57 4.45 4.26v8.82h-4.1zM232.73 152.04h-3.3v4.7c0 1.09.59 1.54 1.68 1.54.48 0 .76-.03 1.06-.17l-.36 3.11c-.39.2-1.09.34-1.9.34-2.86 0-4.56-1.51-4.56-4.03v-5.49h-2.13v-3.36h2.13v-2.72l4.09-1.48v4.2h4.09l-.8 3.36zM242.69 161.36v-7.78c0-.92-.64-1.74-1.9-1.74-1.23 0-1.99.78-1.99 1.79v7.73h-4.12v-19.94h4.06v8.43h.03c.64-.98 1.82-1.57 3.58-1.57 2.8 0 4.45 1.57 4.45 4.26v8.82h-4.11zM253.5 161.86c-2.6-.11-4.34-1.46-4.34-4.51v-15.93h4.06v15.43c0 1.04.59 1.6 1.71 1.68l-1.43 3.33z"/><path class="st0" d="M263.53 160.1c-1.93 5.1-3.95 6.94-6.33 7.87l-2.52-2.52c2.04-.78 3.61-2.27 4.65-4.96l-4.56-11.82h3.98l1.85 4.93c.28.73.56 1.6.76 2.49h.06c.25-.87.53-1.76.81-2.49l1.85-4.93h3.78l-4.33 11.43z"/></g><g><path class="st0" d="M85.93 176.93c-.73 0-2.21-1.48-2.21-2.21s1.48-2.18 2.21-2.18 2.21 1.46 2.21 2.18-1.49 2.21-2.21 2.21zm-2.08 14.42v-12.68H88v12.68h-4.15zM98.41 191.35v-7.78c0-.92-.62-1.74-1.88-1.74-1.23 0-2.02.78-2.02 1.79v7.73h-4.12v-12.68h3.78v1.71h.03c.5-1.34 1.82-2.1 3.86-2.1 2.77 0 4.45 1.57 4.45 4.26v8.82h-4.1zM114.43 182.75c-.84-.53-1.71-.81-2.72-.81-1.79 0-3.22 1.29-3.22 3.14 0 1.82 1.43 3.14 3.3 3.14 1.06 0 1.88-.22 2.77-.7l-.36 3.5c-.84.39-1.93.62-3.11.62-3.56 0-6.86-2.52-6.86-6.61 0-4.14 3.33-6.64 6.78-6.64 1.68 0 3.05.34 4.17.95l-.75 3.41zM123.02 191.74c-3.84 0-6.92-2.72-6.92-6.75 0-4.03 3.08-6.75 6.92-6.75 3.81 0 6.92 2.72 6.92 6.75 0 4.03-3.11 6.75-6.92 6.75zm0-9.91c-1.54 0-2.86 1.34-2.86 3.22s1.32 3.22 2.86 3.22c1.51 0 2.86-1.34 2.86-3.22s-1.34-3.22-2.86-3.22zM147.33 191.35v-7.78c0-.92-.45-1.74-1.79-1.74-1.32 0-1.9.78-1.9 1.79v7.73h-4.12v-7.78c0-.92-.45-1.74-1.79-1.74-1.32 0-1.9.78-1.9 1.79v7.73h-4.12v-12.68h3.81v1.71h.03c.5-1.34 1.76-2.1 3.75-2.1 1.82 0 3.19.73 3.75 2.07.53-1.23 2.02-2.07 3.92-2.07 2.88 0 4.48 1.57 4.48 4.26v8.82h-4.12zM165.39 184.29l-1.82 1.85h-6.22c.2 1.04 1.6 2.21 3.75 2.21 1.32 0 2.66-.39 3.5-.95l-.39 3.53c-.95.5-2.41.84-4.03.84-3.86 0-6.97-2.69-6.97-6.83 0-4.09 2.97-6.69 6.61-6.69 3.53 0 5.68 2.44 5.68 5.07 0 .3-.06.72-.11.97zm-5.57-2.97c-1.2 0-2.21.92-2.46 2.07h4.28c0-.08.03-.17.03-.28-.01-.86-.76-1.79-1.85-1.79zM181.77 182.02h-3.3v4.7c0 1.09.59 1.54 1.68 1.54.48 0 .76-.03 1.06-.17l-.36 3.11c-.39.2-1.09.34-1.9.34-2.86 0-4.56-1.51-4.56-4.03v-5.49h-2.13v-3.36h2.13v-2.72l4.09-1.48v4.2h4.09l-.8 3.36zM191.74 191.35v-7.78c0-.92-.64-1.74-1.9-1.74-1.23 0-1.99.78-1.99 1.79v7.73h-4.12v-19.94h4.06v8.43h.03c.64-.98 1.82-1.57 3.58-1.57 2.8 0 4.45 1.57 4.45 4.26v8.82h-4.11zM207.08 191.91c-.76-.17-1.62-.76-1.96-1.68-.56 1.04-1.76 1.54-3.3 1.54-2.24 0-4.23-1.57-4.23-4.2 0-2.32 1.82-3.89 4.34-4.14l2.52-.25v-.42c0-.76-.62-1.26-1.99-1.26-1.23 0-2.6.39-3.53.98l-.73-3.11c1.04-.67 2.77-1.12 4.45-1.12 3.36 0 5.74 1.54 5.74 4.59v4.14c0 1.48.56 2.27 1.54 2.63l-2.85 2.3zm-2.63-6.11l-1.54.14c-1.06.08-1.54.84-1.54 1.6 0 .67.5 1.23 1.29 1.23.98 0 1.79-.76 1.79-1.85v-1.12zM219.23 182.02h-3.3v4.7c0 1.09.59 1.54 1.68 1.54.48 0 .76-.03 1.06-.17l-.36 3.11c-.39.2-1.09.34-1.9.34-2.86 0-4.56-1.51-4.56-4.03v-5.49h-2.13v-3.36h2.13v-2.72l4.09-1.48v4.2h4.09l-.8 3.36z"/></g><g><path class="st0" d="M75.03 221.34v-7.78c0-.92-.62-1.74-1.88-1.74-1.23 0-2.02.78-2.02 1.79v7.73h-4.12v-12.68h3.78v1.71h.03c.5-1.34 1.82-2.1 3.86-2.1 2.77 0 4.45 1.57 4.45 4.26v8.82h-4.1zM93.07 214.28l-1.82 1.85h-6.22c.2 1.04 1.6 2.21 3.75 2.21 1.32 0 2.66-.39 3.5-.95l-.39 3.53c-.95.5-2.41.84-4.03.84-3.86 0-6.97-2.69-6.97-6.83 0-4.09 2.97-6.69 6.61-6.69 3.53 0 5.68 2.44 5.68 5.07 0 .3-.06.72-.11.97zm-5.58-2.97c-1.2 0-2.21.92-2.46 2.07h4.28c0-.08.03-.17.03-.28 0-.86-.75-1.79-1.85-1.79zM101.38 221.45H98.3l-4.87-12.8h3.98l1.79 4.84c.25.67.5 1.62.7 2.46h.06c.2-.81.48-1.79.73-2.46l1.79-4.84h3.81l-4.91 12.8zM118.52 214.28l-1.82 1.85h-6.22c.2 1.04 1.6 2.21 3.75 2.21 1.32 0 2.66-.39 3.5-.95l-.39 3.53c-.95.5-2.41.84-4.03.84-3.86 0-6.97-2.69-6.97-6.83 0-4.09 2.97-6.69 6.61-6.69 3.53 0 5.68 2.44 5.68 5.07 0 .3-.06.72-.11.97zm-5.57-2.97c-1.2 0-2.21.92-2.46 2.07h4.28c0-.08.03-.17.03-.28-.01-.86-.76-1.79-1.85-1.79zM128.23 213.02a3.04 3.04 0 0 0-1.23-.31c-1.32 0-2.52.7-2.52 2.72v5.91h-4.12v-12.68h4.06v2.83h.03c.42-1.99 1.9-3.05 3.61-3.05.39 0 .87.06 1.18.17l-1.01 4.41zM144.3 213.02a3.04 3.04 0 0 0-1.23-.31c-1.32 0-2.52.7-2.52 2.72v5.91h-4.12v-12.68h4.06v2.83h.03c.42-1.99 1.9-3.05 3.61-3.05.39 0 .87.06 1.18.17l-1.01 4.41zM154.75 221.34v-1.74h-.03c-.5 1.34-1.85 2.1-3.89 2.1-2.77 0-4.45-1.54-4.45-4.23v-8.82h4.12v7.78c0 .92.64 1.74 1.9 1.74 1.23 0 1.99-.81 1.99-1.82v-7.7h4.12v12.68h-3.76zM168.86 221.34v-7.78c0-.92-.62-1.74-1.88-1.74-1.23 0-2.02.78-2.02 1.79v7.73h-4.12v-12.68h3.78v1.71h.03c.5-1.34 1.82-2.1 3.86-2.1 2.77 0 4.45 1.57 4.45 4.26v8.82h-4.1zM179.36 221.62c-1.74 0-3-.36-4.03-.9l-.36-3.64c1.12.78 2.58 1.37 3.98 1.37.76 0 1.23-.39 1.23-.87 0-.53-.42-.76-1.15-.98-2.44-.7-3.89-1.93-3.89-4.14 0-2.49 2.02-4.09 4.76-4.09 1.57 0 3.11.42 3.75.76l-.7 3.02c-.62-.34-1.62-.7-2.63-.7-.67 0-1.12.31-1.12.81 0 .48.34.73 1.12.92 2.86.76 4.03 2.18 4.03 4.31-.01 2.17-1.57 4.13-4.99 4.13zM198.54 221.73c-3.84 0-6.92-2.72-6.92-6.75 0-4.03 3.08-6.75 6.92-6.75 3.81 0 6.92 2.72 6.92 6.75 0 4.03-3.11 6.75-6.92 6.75zm0-9.91c-1.54 0-2.86 1.34-2.86 3.22s1.32 3.22 2.86 3.22c1.51 0 2.86-1.34 2.86-3.22s-1.35-3.22-2.86-3.22zM215.56 221.34v-1.74h-.03c-.5 1.34-1.85 2.1-3.89 2.1-2.77 0-4.45-1.54-4.45-4.23v-8.82h4.12v7.78c0 .92.64 1.74 1.9 1.74 1.23 0 1.99-.81 1.99-1.82v-7.7h4.12v12.68h-3.76zM230.18 212.01h-3.3v4.7c0 1.09.59 1.54 1.68 1.54.48 0 .76-.03 1.06-.17l-.36 3.11c-.39.2-1.09.34-1.9.34-2.86 0-4.56-1.51-4.56-4.03v-5.49h-2.13v-3.36h2.13v-2.72l4.09-1.48v4.2h4.09l-.8 3.36zM233.82 221.73c-.76 0-2.32-1.57-2.32-2.32 0-.73 1.57-2.3 2.32-2.3.76 0 2.32 1.57 2.32 2.3 0 .75-1.56 2.32-2.32 2.32z"/></g></svg>