<svg id="Layer_1" xmlns="http://www.w3.org/2000/svg" viewBox="0 0 300 600"><style>.st0{fill:#f9e039}</style><path class="st0" d="M122.3 124v8.3h-4.4v-8.2l-6.9-10.3h4.8l3 4.4c.4.6.9 1.5 1.3 2.2h.1c.4-.7 1-1.7 1.4-2.2l3-4.4h4.5l-6.8 10.2zM134.8 132.7c-4 0-7.2-2.8-7.2-7s3.2-7 7.2-7c3.9 0 7.2 2.8 7.2 7 0 4.1-3.2 7-7.2 7zm0-10.3c-1.6 0-3 1.4-3 3.3s1.4 3.3 3 3.3 3-1.4 3-3.3-1.4-3.3-3-3.3zM152.7 132.2v-1.8c-.5 1.4-1.9 2.2-4 2.2-2.9 0-4.6-1.6-4.6-4.4v-9.1h4.3v8.1c0 1 .7 1.8 2 1.8s2.1-.8 2.1-1.9v-8h4.3v13.1h-4.1zM160 122l-1.3-.2c1-1.1 1.7-2.8 1.9-4.1-.7-.1-1.9-1.4-1.9-2 0-.8 1.7-2.4 2.4-2.4s2.4 1.5 2.4 2.4c0 1.8-1.8 4.7-3.5 6.3zM172.5 132.4h-3.2l-5-13.3h4.1l1.9 5c.3.7.5 1.7.7 2.6h.1c.2-.8.5-1.9.8-2.6l1.9-5h3.9l-5.2 13.3zM190.5 124.9l-1.9 1.9h-6.4c.2 1.1 1.7 2.3 3.9 2.3 1.4 0 2.8-.4 3.6-1l-.4 3.7c-1 .5-2.5.9-4.2.9-4 0-7.2-2.8-7.2-7.1 0-4.2 3.1-6.9 6.8-6.9 3.7 0 5.9 2.5 5.9 5.2 0 .3-.1.8-.1 1zm-5.8-3c-1.2 0-2.3 1-2.6 2.1h4.4v-.3c.1-.9-.7-1.8-1.8-1.8z"/><g><path class="st0" d="M69.5 154.3c-.9-.6-1.8-.8-2.8-.8-1.9 0-3.3 1.3-3.3 3.2 0 1.9 1.5 3.2 3.4 3.2 1.1 0 1.9-.2 2.9-.7l-.4 3.6c-.9.4-2 .6-3.2.6-3.7 0-7.1-2.6-7.1-6.8 0-4.3 3.5-6.9 7-6.9 1.7 0 3.2.3 4.3 1l-.8 3.6zM81.5 163.8c-.8-.2-1.7-.8-2-1.7-.6 1.1-1.8 1.6-3.4 1.6-2.3 0-4.4-1.6-4.4-4.4 0-2.4 1.9-4 4.5-4.3l2.6-.3v-.4c0-.8-.6-1.3-2.1-1.3-1.3 0-2.7.4-3.7 1l-.8-3.2c1.1-.7 2.9-1.2 4.6-1.2 3.5 0 5.9 1.6 5.9 4.8v4.3c0 1.5.6 2.3 1.6 2.7l-2.8 2.4zm-2.7-6.3l-1.6.1c-1.1.1-1.6.9-1.6 1.7 0 .7.5 1.3 1.3 1.3 1 0 1.9-.8 1.9-1.9v-1.2zM90.3 163.8c-2.7-.1-4.5-1.5-4.5-4.7v-16.5H90v16c0 1.1.6 1.7 1.8 1.7l-1.5 3.5zM103.2 154.3c-.9-.6-1.8-.8-2.8-.8-1.9 0-3.3 1.3-3.3 3.2 0 1.9 1.5 3.2 3.4 3.2 1.1 0 1.9-.2 2.9-.7l-.4 3.6c-.9.4-2 .6-3.2.6-3.7 0-7.1-2.6-7.1-6.8 0-4.3 3.5-6.9 7-6.9 1.7 0 3.2.3 4.3 1l-.8 3.6zM114.6 163.2v-1.8c-.5 1.4-1.9 2.2-4 2.2-2.9 0-4.6-1.6-4.6-4.4v-9.1h4.3v8.1c0 1 .7 1.8 2 1.8s2.1-.8 2.1-1.9v-8h4.3v13.1h-4.1zM125.8 163.8c-2.7-.1-4.5-1.5-4.5-4.7v-16.5h4.2v16c0 1.1.6 1.7 1.8 1.7l-1.5 3.5zM138.3 163.8c-.8-.2-1.7-.8-2-1.7-.6 1.1-1.8 1.6-3.4 1.6-2.3 0-4.4-1.6-4.4-4.4 0-2.4 1.9-4 4.5-4.3l2.6-.3v-.4c0-.8-.6-1.3-2.1-1.3-1.3 0-2.7.4-3.7 1l-.8-3.2c1.1-.7 2.9-1.2 4.6-1.2 3.5 0 5.9 1.6 5.9 4.8v4.3c0 1.5.6 2.3 1.6 2.7l-2.8 2.4zm-2.7-6.3l-1.6.1c-1.1.1-1.6.9-1.6 1.7 0 .7.5 1.3 1.3 1.3 1 0 1.9-.8 1.9-1.9v-1.2zM151.2 153.6h-3.4v4.9c0 1.1.6 1.6 1.7 1.6.5 0 .8 0 1.1-.2l-.4 3.2c-.4.2-1.1.3-2 .3-3 0-4.7-1.6-4.7-4.2v-5.7h-2.2V150h2.2v-2.8l4.2-1.5v4.4h4.2l-.7 3.5zM165.2 155.9l-1.9 1.9h-6.4c.2 1.1 1.7 2.3 3.9 2.3 1.4 0 2.8-.4 3.6-1l-.4 3.7c-1 .5-2.5.9-4.2.9-4 0-7.2-2.8-7.2-7.1 0-4.2 3.1-6.9 6.8-6.9 3.7 0 5.9 2.5 5.9 5.2 0 .3-.1.8-.1 1zm-5.8-3c-1.2 0-2.3 1-2.6 2.1h4.4v-.3c.1-.9-.7-1.8-1.8-1.8zM177.1 163.2v-1.6c-.7 1.3-2.2 2-4.1 2-3.2 0-6.3-2.4-6.3-6.9 0-4.2 3-7 6.7-7 1.4 0 2.8.5 3.3.9v-8h4.1v20.7h-3.7zm-.4-8.6c-.4-.6-1.3-1.2-2.6-1.2-1.9 0-3.2 1.5-3.2 3.3 0 1.9 1.3 3.3 3.2 3.3 1.2 0 2.1-.7 2.6-1.4v-4zM198.1 161.9c-2 5.3-4.1 7.2-6.6 8.2l-2.6-2.6c2.1-.8 3.7-2.3 4.8-5.1l-4.7-12.2h4.1l1.9 5.1c.3.8.6 1.7.8 2.6h.1c.3-.9.6-1.8.8-2.6l1.9-5.1h3.9l-4.4 11.7zM210.1 163.7c-4 0-7.2-2.8-7.2-7s3.2-7 7.2-7c3.9 0 7.2 2.8 7.2 7-.1 4.1-3.3 7-7.2 7zm0-10.3c-1.6 0-3 1.4-3 3.3s1.4 3.3 3 3.3 3-1.4 3-3.3c-.1-1.9-1.5-3.3-3-3.3zM228 163.2v-1.8c-.5 1.4-1.9 2.2-4 2.2-2.9 0-4.6-1.6-4.6-4.4v-9.1h4.3v8.1c0 1 .7 1.8 2 1.8s2.1-.8 2.1-1.9v-8h4.3v13.1H228zM242.7 154.6c-.3-.1-.8-.3-1.3-.3-1.4 0-2.6.7-2.6 2.8v6.1h-4.3v-13.1h4.2v2.9c.4-2.1 2-3.2 3.7-3.2.4 0 .9.1 1.2.2l-.9 4.6z"/></g><g><path class="st0" d="M36.2 184.1c-.7 0-2.4-1.5-2.4-2.4 0-1.8 1.8-4.8 3.5-6.4l1.3.2c-1 1.1-1.8 2.8-1.9 4.1.7.1 1.9 1.4 1.9 2 0 .9-1.6 2.5-2.4 2.5zm6 0c-.7 0-2.4-1.5-2.4-2.4 0-1.8 1.8-4.8 3.5-6.4l1.3.2c-1 1.1-1.7 2.8-1.9 4.1.7.1 1.9 1.4 1.9 2 0 .9-1.7 2.5-2.4 2.5zM54.2 194.6c-1.4 0-2.8-.4-3.3-.9v7.2h-4.1v-19.8h3.7v1.6c.7-1.3 2.2-2 4.1-2 3.2 0 6.3 2.4 6.3 6.9 0 4.3-3.1 7-6.7 7zm-.8-10.2c-1.2 0-2.1.7-2.6 1.4v4.1c.4.6 1.3 1.2 2.6 1.2 1.9 0 3.2-1.4 3.2-3.3s-1.3-3.4-3.2-3.4zM75 186.9l-1.9 1.9h-6.4c.2 1.1 1.7 2.3 3.9 2.3 1.4 0 2.8-.4 3.6-1l-.4 3.7c-1 .5-2.5.9-4.2.9-4 0-7.2-2.8-7.2-7.1 0-4.2 3.1-6.9 6.8-6.9 3.7 0 5.9 2.5 5.9 5.2 0 .3-.1.8-.1 1zm-5.8-3c-1.2 0-2.3 1-2.6 2.1H71v-.3c.1-.9-.7-1.8-1.8-1.8zM85.3 185.6c-.3-.1-.8-.3-1.3-.3-1.4 0-2.6.7-2.6 2.8v6.1h-4.3v-13.1h4.2v2.9c.4-2.1 2-3.2 3.7-3.2.4 0 .9.1 1.2.2l-.9 4.6zM91.7 194.5c-1.8 0-3.1-.4-4.2-.9l-.4-3.8c1.2.8 2.7 1.4 4.1 1.4.8 0 1.3-.4 1.3-.9 0-.6-.4-.8-1.2-1-2.5-.7-4-2-4-4.3 0-2.6 2.1-4.2 4.9-4.2 1.6 0 3.2.4 3.9.8l-.7 3.1c-.6-.3-1.7-.7-2.7-.7-.7 0-1.2.3-1.2.8s.3.8 1.2 1c3 .8 4.2 2.3 4.2 4.5-.1 2.2-1.7 4.2-5.2 4.2zM105.4 194.7c-4 0-7.2-2.8-7.2-7s3.2-7 7.2-7c3.9 0 7.2 2.8 7.2 7-.1 4.1-3.3 7-7.2 7zm0-10.3c-1.6 0-3 1.4-3 3.3s1.4 3.3 3 3.3 3-1.4 3-3.3c-.1-1.9-1.5-3.3-3-3.3zM122.9 194.2v-8.1c0-1-.6-1.8-1.9-1.8-1.3 0-2.1.8-2.1 1.9v8h-4.3v-13.1h3.9v1.8c.5-1.4 1.9-2.2 4-2.2 2.9 0 4.6 1.6 4.6 4.4v9.1h-4.2zM139 194.8c-.8-.2-1.7-.8-2-1.7-.6 1.1-1.8 1.6-3.4 1.6-2.3 0-4.4-1.6-4.4-4.4 0-2.4 1.9-4 4.5-4.3l2.6-.3v-.4c0-.8-.6-1.3-2.1-1.3-1.3 0-2.7.4-3.7 1l-.8-3.2c1.1-.7 2.9-1.2 4.6-1.2 3.5 0 5.9 1.6 5.9 4.8v4.3c0 1.5.6 2.3 1.6 2.7l-2.8 2.4zm-2.7-6.3l-1.6.1c-1.1.1-1.6.9-1.6 1.7 0 .7.5 1.3 1.3 1.3 1 0 1.9-.8 1.9-1.9v-1.2zM147.8 194.8c-2.7-.1-4.5-1.5-4.5-4.7v-16.5h4.2v16c0 1.1.6 1.7 1.8 1.7l-1.5 3.5zM165.1 194.6c-1.4 0-2.8-.4-3.3-.9v7.2h-4.1v-19.8h3.7v1.6c.7-1.3 2.2-2 4.1-2 3.2 0 6.3 2.4 6.3 6.9-.1 4.3-3.1 7-6.7 7zm-.8-10.2c-1.2 0-2.1.7-2.6 1.4v4.1c.4.6 1.3 1.2 2.6 1.2 1.9 0 3.2-1.4 3.2-3.3s-1.3-3.4-3.2-3.4zM185.9 186.9l-1.9 1.9h-6.4c.2 1.1 1.7 2.3 3.9 2.3 1.4 0 2.8-.4 3.6-1l-.4 3.7c-1 .5-2.5.9-4.2.9-4 0-7.2-2.8-7.2-7.1 0-4.2 3.1-6.9 6.8-6.9 3.7 0 5.9 2.5 5.9 5.2 0 .3-.1.8-.1 1zm-5.8-3c-1.2 0-2.3 1-2.6 2.1h4.4v-.3c.1-.9-.7-1.8-1.8-1.8zM196.3 194.2v-8.1c0-1-.6-1.8-1.9-1.8-1.3 0-2.1.8-2.1 1.9v8H188v-13.1h3.9v1.8c.5-1.4 1.9-2.2 4-2.2 2.9 0 4.6 1.6 4.6 4.4v9.1h-4.2zM207.4 194.5c-1.8 0-3.1-.4-4.2-.9l-.4-3.8c1.2.8 2.7 1.4 4.1 1.4.8 0 1.3-.4 1.3-.9 0-.6-.4-.8-1.2-1-2.5-.7-4-2-4-4.3 0-2.6 2.1-4.2 4.9-4.2 1.6 0 3.2.4 3.9.8l-.7 3.1c-.6-.3-1.7-.7-2.7-.7-.7 0-1.2.3-1.2.8s.3.8 1.2 1c3 .8 4.2 2.3 4.2 4.5s-1.6 4.2-5.2 4.2zM216.8 179.3c-.8 0-2.3-1.5-2.3-2.3 0-.8 1.5-2.3 2.3-2.3.8 0 2.3 1.5 2.3 2.3 0 .8-1.5 2.3-2.3 2.3zm-2.1 14.9v-13.1h4.3v13.1h-4.3zM228.3 194.7c-4 0-7.2-2.8-7.2-7s3.2-7 7.2-7c3.9 0 7.2 2.8 7.2 7-.1 4.1-3.3 7-7.2 7zm0-10.3c-1.6 0-3 1.4-3 3.3s1.4 3.3 3 3.3 3-1.4 3-3.3c-.1-1.9-1.5-3.3-3-3.3zM245.8 194.2v-8.1c0-1-.6-1.8-1.9-1.8-1.3 0-2.1.8-2.1 1.9v8h-4.3v-13.1h3.9v1.8c.5-1.4 1.9-2.2 4-2.2 2.9 0 4.6 1.6 4.6 4.4v9.1h-4.2zM254.7 194.7c-.8 0-2.4-1.6-2.4-2.4 0-.8 1.6-2.4 2.4-2.4s2.4 1.6 2.4 2.4c0 .7-1.6 2.4-2.4 2.4zM258.7 184l-1.3-.2c1-1.1 1.7-2.8 1.9-4.1-.7-.1-1.9-1.4-1.9-2 0-.8 1.7-2.4 2.4-2.4s2.4 1.5 2.4 2.4c0 1.8-1.8 4.7-3.5 6.3zm5.9 0l-1.3-.2c1-1.1 1.8-2.8 1.9-4.1-.7-.1-1.9-1.4-1.9-2 0-.8 1.7-2.4 2.4-2.4s2.4 1.5 2.4 2.4c0 1.8-1.8 4.7-3.5 6.3z"/></g></svg>