<svg id="Layer_1" xmlns="http://www.w3.org/2000/svg" viewBox="0 0 300 600"><style>.st0{fill:#f8df38}</style><path class="st0" d="M83 132.1c-.8-.2-1.6-.8-2-1.7-.6 1-1.8 1.5-3.3 1.5-2.2 0-4.2-1.6-4.2-4.2 0-2.3 1.8-3.9 4.3-4.1l2.5-.3v-.4c0-.8-.6-1.3-2-1.3-1.2 0-2.6.4-3.5 1l-.7-3.1c1-.7 2.8-1.1 4.5-1.1 3.4 0 5.7 1.5 5.7 4.6v4.1c0 1.5.6 2.3 1.5 2.6l-2.8 2.4zm-2.6-6.1l-1.5.1c-1.1.1-1.5.8-1.5 1.6 0 .7.5 1.2 1.3 1.2 1 0 1.8-.8 1.8-1.8V126zM95 131.5v-7.8c0-.9-.6-1.7-1.9-1.7-1.2 0-2 .8-2 1.8v7.7H87v-12.7h3.8v1.7c.5-1.3 1.8-2.1 3.9-2.1 2.8 0 4.5 1.6 4.5 4.3v8.8H95zM111 131.5V130c-.7 1.3-2.2 1.9-3.9 1.9-3.1 0-6.1-2.4-6.1-6.7 0-4.1 2.9-6.7 6.4-6.7 1.3 0 2.7.4 3.2.9v-7.7h4v19.9H111zm-.4-8.3c-.4-.5-1.2-1.1-2.5-1.1-1.8 0-3.1 1.4-3.1 3.2 0 1.8 1.3 3.2 3.1 3.2 1.2 0 2-.6 2.5-1.3v-4zM132.5 131.5V130c-.7 1.3-2.2 1.9-3.9 1.9-3.1 0-6.1-2.4-6.1-6.7 0-4.1 2.9-6.7 6.4-6.7 1.3 0 2.7.4 3.2.9v-7.7h4v19.9h-3.6zm-.4-8.3c-.4-.5-1.2-1.1-2.5-1.1-1.8 0-3.1 1.4-3.1 3.2 0 1.8 1.3 3.2 3.1 3.2 1.2 0 2-.6 2.5-1.3v-4zM144.8 131.9c-3.8 0-6.9-2.7-6.9-6.7s3.1-6.7 6.9-6.7c3.8 0 6.9 2.7 6.9 6.7.1 4-3 6.7-6.9 6.7zm0-9.9c-1.5 0-2.9 1.3-2.9 3.2s1.3 3.2 2.9 3.2c1.5 0 2.9-1.3 2.9-3.2s-1.3-3.2-2.9-3.2zM166.8 131.6H164l-1.7-5c-.3-.8-.5-1.7-.8-2.6h-.1c-.2 1-.4 1.9-.7 2.6l-1.7 5.1h-2.7l-4.4-12.8h3.8l1.6 4.8c.2.7.5 1.6.6 2.4h.1c.1-.8.4-1.7.6-2.4l1.6-4.8h3.1l1.6 4.8c.3.8.4 1.7.6 2.5h.1c.2-.8.4-1.7.6-2.5l1.6-4.8h3.5l-4.5 12.7zM180.4 131.5v-7.8c0-.9-.6-1.7-1.9-1.7-1.2 0-2 .8-2 1.8v7.7h-4.1v-12.7h3.8v1.7c.5-1.3 1.8-2.1 3.9-2.1 2.8 0 4.5 1.6 4.5 4.3v8.8h-4.2zM190.9 131.8c-1.7 0-3-.4-4-.9l-.4-3.6c1.1.8 2.6 1.4 4 1.4.8 0 1.2-.4 1.2-.9s-.4-.8-1.1-1c-2.4-.7-3.9-1.9-3.9-4.1 0-2.5 2-4.1 4.8-4.1 1.6 0 3.1.4 3.8.8l-.7 3c-.6-.3-1.6-.7-2.6-.7-.7 0-1.1.3-1.1.8s.3.7 1.1.9c2.9.8 4 2.2 4 4.3-.2 2.1-1.7 4.1-5.1 4.1zM210 131.9c-3.8 0-6.9-2.7-6.9-6.7s3.1-6.7 6.9-6.7c3.8 0 6.9 2.7 6.9 6.7s-3.1 6.7-6.9 6.7zm0-9.9c-1.5 0-2.9 1.3-2.9 3.2s1.3 3.2 2.9 3.2c1.5 0 2.9-1.3 2.9-3.2s-1.4-3.2-2.9-3.2zM227.4 115.3c-.5-.2-1.1-.3-1.7-.3-1.5 0-2.3.9-2.3 2.7v1.2h3.6l-.8 3.4h-2.8v9.3h-4v-9.3h-1.9v-3.4h1.9v-1.5c0-3.9 2.5-5.8 5.7-5.8 1.2 0 2.4.1 3 .4l-.7 3.3z"/><g><path class="st0" d="M86.2 149.2h-3.3v4.7c0 1.1.6 1.5 1.7 1.5.5 0 .8 0 1.1-.2l-.4 3.1c-.4.2-1.1.3-1.9.3-2.9 0-4.6-1.5-4.6-4v-5.5h-2.1v-3.4h2.1V143l4.1-1.5v4.2H87l-.8 3.5zM96.2 158.5v-7.8c0-.9-.6-1.7-1.9-1.7-1.2 0-2 .8-2 1.8v7.7h-4.1v-19.9h4.1v8.4c.6-1 1.8-1.6 3.6-1.6 2.8 0 4.5 1.6 4.5 4.3v8.8h-4.2zM114.2 151.5l-1.8 1.8h-6.2c.2 1 1.6 2.2 3.8 2.2 1.3 0 2.7-.4 3.5-1l-.4 3.5c-1 .5-2.4.8-4 .8-3.9 0-7-2.7-7-6.8s3-6.7 6.6-6.7c3.5 0 5.7 2.4 5.7 5.1 0 .4-.1.8-.2 1.1zm-5.5-3c-1.2 0-2.2.9-2.5 2.1h4.3v-.3c0-.9-.7-1.8-1.8-1.8zM137.7 158.5v-7.8c0-.9-.4-1.7-1.8-1.7-1.3 0-1.9.8-1.9 1.8v7.7h-4.1v-7.8c0-.9-.4-1.7-1.8-1.7-1.3 0-1.9.8-1.9 1.8v7.7h-4.1v-12.7h3.8v1.7c.5-1.3 1.8-2.1 3.8-2.1 1.8 0 3.2.7 3.8 2.1.5-1.2 2-2.1 3.9-2.1 2.9 0 4.5 1.6 4.5 4.3v8.8h-4.2zM153.1 159.1c-.8-.2-1.6-.8-2-1.7-.6 1-1.8 1.5-3.3 1.5-2.2 0-4.2-1.6-4.2-4.2 0-2.3 1.8-3.9 4.3-4.1l2.5-.3v-.4c0-.8-.6-1.3-2-1.3-1.2 0-2.6.4-3.5 1l-.7-3.1c1-.7 2.8-1.1 4.5-1.1 3.4 0 5.7 1.5 5.7 4.6v4.1c0 1.5.6 2.3 1.5 2.6l-2.8 2.4zm-2.6-6.1l-1.5.1c-1.1.1-1.5.8-1.5 1.6 0 .7.5 1.2 1.3 1.2 1 0 1.8-.8 1.8-1.8V153zM165 150.2c-.3-.1-.8-.3-1.2-.3-1.3 0-2.5.7-2.5 2.7v5.9h-4.1v-12.7h4.1v2.8c.4-2 1.9-3.1 3.6-3.1.4 0 .9.1 1.2.2l-1.1 4.5zM174.9 158.5l-3.8-5.1v5.1H167v-19.9h4.1V151l3.8-5.2h4.5L175 152l4.7 6.5h-4.8zM191.8 151.5l-1.8 1.8h-6.2c.2 1 1.6 2.2 3.8 2.2 1.3 0 2.7-.4 3.5-1l-.4 3.5c-1 .5-2.4.8-4 .8-3.9 0-7-2.7-7-6.8s3-6.7 6.6-6.7c3.5 0 5.7 2.4 5.7 5.1-.1.4-.2.8-.2 1.1zm-5.6-3c-1.2 0-2.2.9-2.5 2.1h4.3v-.3c.1-.9-.7-1.8-1.8-1.8zM202.2 149.2h-3.3v4.7c0 1.1.6 1.5 1.7 1.5.5 0 .8 0 1.1-.2l-.4 3.1c-.4.2-1.1.3-1.9.3-2.9 0-4.6-1.5-4.6-4v-5.5h-2.1v-3.4h2.1V143l4.1-1.5v4.2h4.1l-.8 3.5zM208 158.8c-1.7 0-3-.4-4-.9l-.4-3.6c1.1.8 2.6 1.4 4 1.4.8 0 1.2-.4 1.2-.9s-.4-.8-1.1-1c-2.4-.7-3.9-1.9-3.9-4.1 0-2.5 2-4.1 4.8-4.1 1.6 0 3.1.4 3.8.8l-.7 3c-.6-.3-1.6-.7-2.6-.7-.7 0-1.1.3-1.1.8s.3.7 1.1.9c2.9.8 4 2.2 4 4.3-.1 2.1-1.6 4.1-5.1 4.1zM220.5 149.7c-.7.8-1 1.5-1 2.2 0 .4 0 .9.1 1.2l-3.5-.7c-.1-.6-.2-1-.2-1.4 0-1.5.6-2.8 1.6-3.9.7-.8 1.1-1.3 1.1-2.1 0-.6-.6-1.3-1.5-1.3-1 0-1.9.4-2.9.9l-.8-3.5c1-.6 2.4-1.1 4-1.1 3.3 0 5.5 1.9 5.5 4.7 0 1.9-.8 3.2-2.4 5zm-2.6 9.2c-.8 0-2.3-1.6-2.3-2.3 0-.7 1.6-2.3 2.3-2.3s2.3 1.6 2.3 2.3c.1.7-1.5 2.3-2.3 2.3z"/></g></svg>