<svg id="Layer_1" xmlns="http://www.w3.org/2000/svg" viewBox="0 0 300 600"><style>.st0{fill:#f8df38}</style><path class="st0" d="M96.7 117.2v14.3h-4.3v-14.3h-5.1v-3.6h14.6v3.6h-5.2zM105.2 117.1c-.7 0-2.2-1.5-2.2-2.2s1.5-2.2 2.2-2.2 2.2 1.5 2.2 2.2-1.5 2.2-2.2 2.2zm-2.1 14.4v-12.7h4.1v12.7h-4.1zM117.5 123.2c-.3-.1-.8-.3-1.2-.3-1.3 0-2.5.7-2.5 2.7v5.9h-4.1v-12.7h4.1v2.8c.4-2 1.9-3.1 3.6-3.1.4 0 .9.1 1.2.2l-1.1 4.5zM131 124.5l-1.8 1.8H123c.2 1 1.6 2.2 3.8 2.2 1.3 0 2.7-.4 3.5-1l-.4 3.5c-1 .5-2.4.8-4 .8-3.9 0-7-2.7-7-6.8s3-6.7 6.6-6.7c3.5 0 5.7 2.4 5.7 5.1-.1.4-.2.8-.2 1.1zm-5.6-3c-1.2 0-2.2.9-2.5 2.1h4.3v-.3c0-.9-.7-1.8-1.8-1.8zM142.2 131.5V130c-.7 1.3-2.2 1.9-3.9 1.9-3.1 0-6.1-2.4-6.1-6.7 0-4.1 2.9-6.7 6.4-6.7 1.3 0 2.7.4 3.2.9v-7.7h4v19.9h-3.6zm-.4-8.3c-.4-.5-1.2-1.1-2.5-1.1-1.8 0-3.1 1.4-3.1 3.2 0 1.8 1.3 3.2 3.1 3.2 1.2 0 2-.6 2.5-1.3v-4zM160.7 131.9c-3.8 0-6.9-2.7-6.9-6.7s3.1-6.7 6.9-6.7c3.8 0 6.9 2.7 6.9 6.7s-3.1 6.7-6.9 6.7zm0-9.9c-1.5 0-2.9 1.3-2.9 3.2s1.3 3.2 2.9 3.2c1.5 0 2.9-1.3 2.9-3.2s-1.4-3.2-2.9-3.2zM178.1 115.3c-.5-.2-1.1-.3-1.7-.3-1.5 0-2.3.9-2.3 2.7v1.2h3.6l-.8 3.4h-2.8v9.3h-4v-9.3h-1.9v-3.4h1.9v-1.5c0-3.9 2.5-5.8 5.7-5.8 1.2 0 2.4.1 3 .4l-.7 3.3zM194 132.1c-.8-.2-1.6-.8-2-1.7-.6 1-1.8 1.5-3.3 1.5-2.2 0-4.2-1.6-4.2-4.2 0-2.3 1.8-3.9 4.3-4.1l2.5-.3v-.4c0-.8-.6-1.3-2-1.3-1.2 0-2.6.4-3.5 1l-.7-3.1c1-.7 2.8-1.1 4.5-1.1 3.4 0 5.7 1.5 5.7 4.6v4.1c0 1.5.6 2.3 1.5 2.6l-2.8 2.4zm-2.6-6.1l-1.5.1c-1.1.1-1.5.8-1.5 1.6 0 .7.5 1.2 1.3 1.2 1 0 1.8-.8 1.8-1.8V126zM202.3 132c-2.6-.1-4.3-1.5-4.3-4.5v-15.9h4.1V127c0 1 .6 1.6 1.7 1.7l-1.5 3.3zM209.4 132c-2.6-.1-4.3-1.5-4.3-4.5v-15.9h4.1V127c0 1 .6 1.6 1.7 1.7l-1.5 3.3z"/><g><path class="st0" d="M116.2 149.2h-3.3v4.7c0 1.1.6 1.5 1.7 1.5.5 0 .8 0 1.1-.2l-.4 3.1c-.4.2-1.1.3-1.9.3-2.9 0-4.6-1.5-4.6-4v-5.5h-2.1v-3.4h2.1V143l4.1-1.5v4.2h4.1l-.8 3.5zM126.1 158.5v-7.8c0-.9-.6-1.7-1.9-1.7-1.2 0-2 .8-2 1.8v7.7h-4.1v-19.9h4.1v8.4c.6-1 1.8-1.6 3.6-1.6 2.8 0 4.5 1.6 4.5 4.3v8.8h-4.2zM144.2 151.5l-1.8 1.8h-6.2c.2 1 1.6 2.2 3.8 2.2 1.3 0 2.7-.4 3.5-1l-.4 3.5c-1 .5-2.4.8-4 .8-3.9 0-7-2.7-7-6.8s3-6.7 6.6-6.7c3.5 0 5.7 2.4 5.7 5.1-.1.4-.2.8-.2 1.1zm-5.6-3c-1.2 0-2.2.9-2.5 2.1h4.3v-.3c0-.9-.7-1.8-1.8-1.8zM160.4 158.5v-1.7c-.5 1.3-1.8 2.1-3.9 2.1-2.8 0-4.5-1.5-4.5-4.2v-8.8h4.1v7.8c0 .9.6 1.7 1.9 1.7 1.2 0 2-.8 2-1.8v-7.7h4.1v12.7h-3.7zM173.7 158.9c-1.3 0-2.7-.4-3.2-.8v6.9h-4v-19.2h3.6v1.6c.7-1.3 2.2-1.9 3.9-1.9 3.1 0 6.1 2.4 6.1 6.7.1 4.1-2.8 6.7-6.4 6.7zm-.7-9.8c-1.2 0-2 .6-2.5 1.3v4c.4.5 1.2 1.1 2.5 1.1 1.8 0 3.1-1.4 3.1-3.2 0-1.8-1.3-3.2-3.1-3.2zM185.9 158.8c-1.7 0-3-.4-4-.9l-.4-3.6c1.1.8 2.6 1.4 4 1.4.8 0 1.2-.4 1.2-.9s-.4-.8-1.1-1c-2.4-.7-3.9-1.9-3.9-4.1 0-2.5 2-4.1 4.8-4.1 1.6 0 3.1.4 3.8.8l-.7 3c-.6-.3-1.6-.7-2.6-.7-.7 0-1.1.3-1.1.8s.3.7 1.1.9c2.9.8 4 2.2 4 4.3-.1 2.1-1.6 4.1-5.1 4.1z"/></g></svg>