<svg id="Layer_1" xmlns="http://www.w3.org/2000/svg" viewBox="0 0 300 600"><style>.st0{fill:#f9e038}</style><path class="st0" d="M85.8 436.2s-13 0-13 13V462s0 13 13 13h128.5s13 0 13-13v-12.8s0-13-13-13H85.8z"/><path d="M101.2 461.9h-2l-3-10.1v10.1h-2.4v-12.4h4.5l2.2 7.4 2.3-7.4h4.5v12.4h-2.9v-10.1h-.1l-3.1 10.1zM110.3 460.1c-.9-1.3-1.3-2.9-1.3-4.4 0-3.3 1.6-6.3 5.3-6.3 1.6 0 2.9.5 3.9 1.9.9 1.2 1.3 3 1.3 4.4 0 1.4-.4 3.1-1.2 4.3-1 1.4-2.4 2.1-4.1 2.1-1.6 0-2.9-.6-3.9-2zm2.1-7c-.3.7-.4 1.8-.4 2.6 0 1.5.2 4 2.3 4 1 0 1.5-.5 1.9-1.4.3-.8.4-1.8.4-2.6 0-.9-.1-2-.5-2.8-.4-.8-.9-1.2-1.8-1.2-1 0-1.5.5-1.9 1.4zM126.9 461.9h-3.1l-3.7-12.4h3.1l2.5 8.8 2.6-8.8h2.4l-3.8 12.4zM134.8 451.9v2.5h4.7v2.3h-4.7v2.7h5.9v2.4h-8.8v-12.4h8.8v2.4h-5.9zM155.2 461.9h-2l-3-10.1v10.1h-2.4v-12.4h4.5l2.2 7.4 2.3-7.4h4.5v12.4h-2.9v-10.1h-.1l-3.1 10.1zM164.3 460.1c-.9-1.3-1.3-2.9-1.3-4.4 0-3.3 1.6-6.3 5.3-6.3 1.6 0 2.9.5 3.9 1.9.9 1.2 1.3 3 1.3 4.4 0 1.4-.4 3.1-1.2 4.3-1 1.4-2.4 2.1-4.1 2.1s-2.9-.6-3.9-2zm2.2-7c-.3.7-.4 1.8-.4 2.6 0 1.5.2 4 2.3 4 1 0 1.5-.5 1.9-1.4.3-.8.4-1.8.4-2.6 0-.9-.1-2-.5-2.8-.4-.8-.9-1.2-1.8-1.2-1.1 0-1.6.5-1.9 1.4zM184.9 461.9h-2.5l-4.7-8.3h-.1v8.3h-2.2v-12.4h3.1l4.1 7.3v-7.3h2.2v12.4zM190.2 451.9v2.5h4.7v2.3h-4.7v2.7h5.9v2.4h-8.8v-12.4h8.8v2.4h-5.9zM203.5 456.7v5.2h-2.9v-5.2l-3.9-7.1h3.3l2.4 4.7 2.3-4.7h2.6l-3.8 7.1z"/></svg>