<svg id="Layer_1" xmlns="http://www.w3.org/2000/svg" xmlns:xlink="http://www.w3.org/1999/xlink" viewBox="0 0 300 600"><style>.st0,.st1{fill:#fff}.st1{clip-path:url(#SVGID_2_)}.st2{clip-path:url(#SVGID_4_);fill:url(#SVGID_5_)}.st3{clip-path:url(#SVGID_7_);fill:url(#SVGID_8_)}.st4{clip-path:url(#SVGID_10_);fill:url(#SVGID_11_)}</style><path class="st0" d="M149.7 42.7v4.4h-7.9v21.4h-5V47.1h-7.9v-4.4h20.8zm2.1 25.8h5V42.7h-5v25.8zm30.8 0h-5.1l-2.7-6.4h-8.7l-2.6 6.4h-5l11-26.2h2.2l10.9 26.2zm24.2 0h-5.1l-2.7-6.4h-8.7l-2.6 6.4h-5l11-26.2h2.2l10.9 26.2zm-33.7-10.6l-2.6-6.4-2.7 6.4h5.3zm24.2 0l-2.6-6.4-2.7 6.4h5.3z"/><defs><path id="SVGID_1_" d="M88.4 36.5h121.3v40.8H88.4z"/></defs><clipPath id="SVGID_2_"><use xlink:href="#SVGID_1_" overflow="visible"/></clipPath><path class="st1" d="M110.9 70.1c2.2 0 4.2-.9 5.7-2.4l6.1-6.1c1.4-1.4 2.3-3.4 2.3-5.5v-19h-19c-2.2 0-4.2.9-5.7 2.4l-6.1 6.1c-1.4 1.4-2.3 3.4-2.3 5.5v19h19z"/><defs><path id="SVGID_3_" d="M108.2 38.8c-3.4 0-6.2 2.8-6.3 6.2v2.1h13v13h2.1c3.5 0 6.3-2.8 6.3-6.3v-15h-15.1z"/></defs><clipPath id="SVGID_4_"><use xlink:href="#SVGID_3_" overflow="visible"/></clipPath><linearGradient id="SVGID_5_" gradientUnits="userSpaceOnUse" x1="1.034" y1="601.034" x2="2.034" y2="601.034" gradientTransform="scale(21.0176 -21.0176) rotate(45 731.687 304.22)"><stop offset="0" stop-color="#9bdbf7"/><stop offset=".1" stop-color="#9bdbf7"/><stop offset=".9" stop-color="#009dda"/><stop offset="1" stop-color="#009dda"/></linearGradient><path class="st2" d="M91.2 49.4l21.4-21.3L134 49.4l-21.4 21.4z"/><g><defs><path id="SVGID_6_" d="M117 61.8h-16.8l-6.7 6.7h17.3c1.7 0 3.3-.7 4.5-1.9L121 61l-.1-.1c-1.2.6-2.5.9-3.9.9"/></defs><clipPath id="SVGID_7_"><use xlink:href="#SVGID_6_" overflow="visible"/></clipPath><linearGradient id="SVGID_8_" gradientUnits="userSpaceOnUse" x1="1" y1="601.037" x2="2" y2="601.037" gradientTransform="matrix(27.4001 0 0 -27.4001 66.16 16533.123)"><stop offset="0" stop-color="#14b0e6"/><stop offset=".161" stop-color="#13aae1"/><stop offset=".372" stop-color="#0f9ad2"/><stop offset=".61" stop-color="#097fba"/><stop offset=".867" stop-color="#015999"/><stop offset=".9" stop-color="#005494"/><stop offset="1" stop-color="#005494"/></linearGradient><path class="st3" d="M93.6 60.8H121v7.6H93.6z"/></g><g><defs><path id="SVGID_9_" d="M95.4 46.7c-1.2 1.2-1.9 2.8-1.9 4.5v17.3l6.7-6.7V45c0-1.4.4-2.7 1-3.8l-.1-.1-5.7 5.6z"/></defs><clipPath id="SVGID_10_"><use xlink:href="#SVGID_9_" overflow="visible"/></clipPath><linearGradient id="SVGID_11_" gradientUnits="userSpaceOnUse" x1="1.036" y1="601" x2="2.037" y2="601" gradientTransform="matrix(0 -27.4005 -27.4005 0 16565.096 96.874)"><stop offset="0" stop-color="#0081bd"/><stop offset=".377" stop-color="#0070ad"/><stop offset=".85" stop-color="#005494"/><stop offset="1" stop-color="#005494"/></linearGradient><path class="st4" d="M93.6 41.1h7.6v27.4h-7.6z"/></g></svg>