<svg id="Layer_1" xmlns="http://www.w3.org/2000/svg" viewBox="0 0 1189.2 600"><style>.st0{fill:#00c3ff}.st1{fill:#f8e038}.st2{fill:#fff}</style><path class="st0" d="M1166.3 232.9v15.2l-4.1 4.1v-19.8c1.6.1 2.9.3 4.1.5M1116.8 232.1v65.1c-1.4 1.3-2.7 2.7-4.1 4v-69c1.3-.1 2.6-.1 4.1-.1M1067.4 239.5v105.8c-1.4 1.3-2.7 2.6-4.1 3.9V241.4c1.4-.7 2.7-1.3 4.1-1.9M1017.8 272.7v118.4c-1.3 1.1-2.7 2.2-4.1 3.3V275.9c1.4-1.1 2.7-2.2 4.1-3.2M968.3 312.6v110.6c-1.4.7-2.7 1.3-4.1 1.9V315.9c1.4-1.1 2.7-2.2 4.1-3.3M918.8 350.6v86c-1.1 0-2.1.1-3.2.1h-.9v-83.2c1.4-.9 2.7-1.9 4.1-2.9M869.4 378.1v43c-1.4-1.1-2.8-2.2-4.1-3.4V379c1.4-.2 2.8-.6 4.1-.9M572.1 356.5v6.4c-1.4 1.4-2.7 2.7-4.1 4v-12.6c1.4.7 2.7 1.4 4.1 2.2M522.5 318.3v70.8c-1.4.3-2.7.5-4.1.7V314c1.4 1.5 2.8 2.9 4.1 4.3M473 268.7v122.9c-1.4-.1-2.8-.2-4.1-.3v-126c1.4 1.1 2.7 2.2 4.1 3.4M423.5 240.8V376c-1.4-.8-2.7-1.5-4.1-2.3V240.2c1.4.1 2.7.3 4.1.6M373.9 249.5V350c-1.4-.4-2.7-.8-4.1-1.1v-97.3c1.4-.7 2.8-1.4 4.1-2.1M324.5 289.3v61.9c-1.4.5-2.7 1-4.1 1.5v-58.9c1.3-1.5 2.7-3 4.1-4.5M274.9 341v34.2c-1.4.7-2.7 1.4-4.1 2v-32.8c1.4-1.1 2.8-2.3 4.1-3.4M225.3 370.7V391c-.6 0-1.2.1-1.8.1h-2.2v-19c1.3-.5 2.7-.9 4-1.4"/><path class="st0" d="M1189.2 248.5v-6.7c0-5.4-5.6-11.5-13.2-15.4-2.2-1.1-5.3-2-9.7-2.5V213c1.7.2 3 .3 3.8.5 7.6 1.8 12.5 4.5 15.1 8.2 1.2 1.7 2.7 5.2 1.5 7l2.5-.3V225c-.7-2.5-2-5.4-4-7.3-3.2-3-8-5.3-14.4-6.8-1-.2-2.5-.4-4.4-.6-1.2-.1-2.6-.2-4.1-.3-11.5-.7-30.7-1.1-43.7-1.1H1110.8c-4.7.1-8.7.1-11.5.1-9.2 0-20.2.6-31.9 4.1-1.4.4-2.7.9-4.1 1.3-5.7 2-11.6 4.8-17.4 8.5-7 4.4-16.8 11.9-28.1 20.7-1.3 1.1-2.7 2.1-4.1 3.2-7.9 6.3-16.5 13.3-25.3 20.4-6.6 5.4-13.4 10.8-20.1 16.3-1.4 1.1-2.7 2.2-4.1 3.3-15.5 12.4-31 24.6-45.4 35-1.4 1-2.7 2-4.1 2.9-15.8 11.3-30 20.1-40.8 24.3-1.4.6-3 1.1-4.6 1.6-1.3.4-2.7.8-4.1 1.2-21.3 6-56.1 9.9-90.9 9.9-57.9 0-115.7-3.9-116.2-4-34.2-2.5-60.7-10.8-86.1-28-1.4-.9-2.7-1.9-4.1-2.9-9.1-6.5-18-14.2-27.1-23.1-7.7-7.5-13.5-13.4-17.8-18l-.6-.6-.5-.6c-1.2-1.2-2.3-2.5-3.6-3.8-12.5-13.3-27.9-29.1-45.4-41.4-1.4-1-2.7-1.9-4.1-2.8-14-9.2-29.2-16-45.4-17.6-1.3-.1-2.7-.2-4.1-.3-.9 0-1.8-.1-2.6-.1-15.8 0-30 3-42.8 8-1.4.5-2.7 1.1-4.1 1.7-17.4 7.6-32.3 18.8-45.4 31.1-1.4 1.3-2.8 2.6-4.1 4-5 4.9-9.7 9.9-14.2 14.9-3.1 3.5-6.2 7-9.2 10.4-7.3 8.3-14.4 16.3-22 24-1.3 1.4-2.7 2.7-4.1 4-10.7 10.3-22.5 19.7-37.1 27.5-2.8 1.5-5.6 2.8-8.4 4-1.4.6-2.7 1.1-4.1 1.7-12 4.6-23.9 6.5-35.5 6.5-3.3 0-6.6-.2-9.9-.5-1.4-.1-2.7-.3-4.1-.5-42.2-5.5-79.9-34.5-105.7-54.4l-4.2-3.2c-.5.2-46.8-37-61.8-55.8v3.4c15.3 18.9 58.2 53.2 60.1 54.7l4.2 3.2c26.2 20.2 64.4 49.6 107.4 55.1v7.9C124.9 360 84 328.7 67.5 316l-1-.8C35.2 291.2 14 276.8.1 255.7v11.8c14.3 18.7 27.3 30.1 59.9 55l1 .8c19.3 14.8 69.8 53.5 126.7 53.5 11 0 22.3-1.5 33.6-4.8 1.4-.4 2.7-.8 4.1-1.3 2.4-.8 4.8-1.7 7.3-2.7 14.4-6 26.9-14.2 38.3-23.5 1.4-1.1 2.7-2.3 4.1-3.5 13.3-11.6 25.1-24.6 36.6-37.5 2.9-3.3 5.9-6.5 8.8-9.7 1.4-1.5 2.7-3 4.1-4.4 14-15 28.3-28.6 45.4-37.7 1.3-.7 2.7-1.4 4.1-2.1 12.4-5.9 26.2-9.4 42.2-9.4 1.1 0 2.1.1 3.2.1 1.4.1 2.7.3 4.1.5 14.9 2.5 30.6 12.3 45.4 24.5 1.4 1.1 2.7 2.3 4.1 3.4 14.5 12.5 28.1 26.9 39.2 38.7 2.1 2.3 4.2 4.5 6.2 6.6 1.4 1.5 2.8 2.9 4.1 4.3 1.9 2 3.7 3.8 5.5 5.5 12.1 11.9 25.5 22 40 30.4 1.3.8 2.7 1.6 4.1 2.3 25.8 14 54.8 22.4 86 24.7 1 .1 59 4 116.3 4 34.9 0 69.5-1.4 90.9-6.1 1.4-.3 2.8-.6 4.1-1 2.7-.7 5.2-1.5 7.3-2.3 10.2-4 23.3-12 38.1-22.3 1.4-.9 2.7-1.9 4.1-2.9 14.3-10.2 29.8-22.3 45.4-34.7 1.4-1.1 2.7-2.2 4.1-3.3 7.8-6.3 15.6-12.6 23.2-18.8 7.7-6.2 15.1-12.3 22.2-17.9 1.4-1.1 2.8-2.2 4.1-3.3 12.5-9.9 23.4-18.3 31-23.1 5-3.2 9.8-5.9 14.5-8.2 1.4-.7 2.7-1.3 4.1-1.9 11.1-4.9 21.6-7.2 31.9-7.2 2.8 0 6.8-.1 11.5-.1h1.9c1.3 0 2.6 0 4.1-.1 6.9-.2 16-.4 24.8-.4 7.7 0 15.1.2 20.6.7 1.5.2 2.9.3 4.1.5 1.9.3 3.3.7 4.1 1.2 8.4 5.1 9.7 13.3 7.9 17.9l10.7-3.4zM221.2 362c-11.2 3.7-22.5 5.3-33.5 5.3-4 0-8-.2-11.9-.6v-7.9c3.2.3 6.5.5 9.9.5 11.6 0 23.5-1.9 35.6-6.4v9.1zm49.6-30.5c-12.5 11.3-26.3 21.2-42.4 27.9-1 .4-2 .8-3.1 1.2v-9.3c3.2-1.4 6.4-2.9 9.7-4.6 14-7.5 25.5-16.4 35.8-26.1v10.9zm49.6-52.2c-5.7 5.9-11.2 12.1-16.6 18.1-9.3 10.3-18.6 20.7-28.8 30.3v-11.2c8.4-8.2 16.1-17 24-26 3-3.4 6.1-6.9 9.2-10.4 4-4.4 8-8.8 12.2-13v12.2zm49.4-38.4c-17.3 8.2-31.9 20.5-45.4 34.2v-11.9c13.4-12.9 28.1-24.4 45.4-32v9.7zm49.6-10.1c-1.1-.1-2.1-.1-3.2-.1-15.9 0-29.8 3.2-42.2 8.4v-9.6c12.8-5.1 26.9-8.1 42.8-8.1.9 0 1.7 0 2.6.1v9.3zm49.5 22c-14.7-11.1-30-19.5-45.4-21.5v-9.5c16.1 1.6 31.4 8.6 45.4 18.1v12.9zm49.5 46.9c-13.3-14.1-28.8-30.5-45.4-43.7v-13.3c17.6 12.7 33 28.9 45.4 42v15zM568 343c-11.7-7.3-22.6-15.8-32.6-25.6-3.8-3.7-8.2-8.4-12.9-13.3v-15c4.2 4.4 9.6 9.8 16.5 16.6 9.8 9.6 19.3 17.7 29 24.5V343zm297.3 26.4c-19.5 4.7-55.6 6.3-93.5 6.3-42.2 0-86.6-2-112.9-3.9-31.7-2.3-61-11.3-86.8-26.3V333c25.2 16.8 51.8 24.9 85.9 27.4.5 0 58.5 4 116.4 4 34.6 0 69.2-3.8 90.9-9.8v14.8zm49.4-27.8c-16.5 11.9-31.4 21.4-42 25.6-1 .4-2.1.8-3.3 1.1v-14.9c2-.6 3.9-1.3 5.6-1.9 10.6-4.1 24.4-12.6 39.8-23.5v13.6zm49.5-38.2c-15.2 12.2-30.8 24.5-45.4 35.2V325c14.3-10.3 29.9-22.4 45.4-34.8v13.2zm49.5-39.9c-8.8 7-18.5 14.9-28.9 23.3-5.3 4.3-10.9 8.8-16.5 13.3v-13.2c7.4-5.9 14.7-11.8 21.8-17.7 8.1-6.6 16.1-13.1 23.6-19v13.3zm49.6-32.6c-6.5 2.9-13.3 6.5-20.3 11-6.6 4.2-15.2 10.6-25.2 18.4V247c11.9-9.4 22.3-17.3 29.5-21.9 5.4-3.4 10.8-6 16-7.9v13.7zm49.4-8.2h-2c-4.7.1-8.6.1-11.3.1-10.6 0-21 2-31.9 6.3v-13.4c11.7-3.6 22.8-4.3 31.9-4.3 2.8 0 6.8-.1 11.5-.1h1.9v11.4zm49.5.5c-6.2-.5-14.3-.7-24.9-.7-6 0-12.8.1-20.5.2v-11.3h1.7c13 0 32.5.3 43.7 1.1v10.7z"/><path class="st1" d="M665.9 563.1h5.9v8.3h-5.9zM566.8 563h5.9v8.3h-5.9zM467.9 563h5.9v8.3h-5.9zM368.9 563h5.9v8.3h-5.9zM269.8 563h5.9v8.3h-5.9zM170.7 563h5.9v8.3h-5.9zM71.6 563h5.9v8.3h-5.9zM1161.6 563.1h5.9v8.3h-5.9zM1062.5 563.1h5.9v8.3h-5.9zM963.5 563.1h5.9v8.3h-5.9zM864.4 563.1h5.9v8.3h-5.9zM765.3 563.1h5.9v8.3h-5.9zM0 556.6h1189.2v6.4H0zM0 554.2h1189.2v2.4H0zM177.9 465.2v3.3l18.8 17.4-18.8 17.3v3.3l20.6-19 20.6 19.1v-3.3l-18.8-17.4 18.8-17.4v-3.4l-20.6 19.1zM29.3 419.5v3.3l18.8 17.4-18.8 17.3v3.3l20.6-19 20.6 19v-3.3l-18.8-17.3 18.8-17.4v-3.3l-20.6 19zM29.3 373.8v3.3l18.8 17.3-18.8 17.4v3.3l20.6-19 20.6 19v-3.3l-18.8-17.4 18.8-17.3v-3.3l-20.6 19zM29.3 465.2v3.3l18.8 17.4-18.8 17.3v3.3l20.6-19 20.6 19v-3.3l-18.8-17.3 18.8-17.4v-3.3l-20.6 19zM128.5 465.3v3.3l18.6 17.3-18.6 17.2v3.3l20.4-18.9 20.6 19.1v-3.4l-18.8-17.3 18.8-17.4v-3.3l-20.6 19zM78.8 465.2v3.3l18.8 17.4-18.8 17.3v3.4l20.6-19.1 20.7 19.2v-3.4l-18.9-17.4 18.9-17.5v-3.3l-20.7 19.1zM78.8 419.5v3.3l18.8 17.4-18.8 17.3v3.4l20.6-19.1 20.7 19.2v-3.4l-18.9-17.4 18.9-17.5v-3.3l-20.7 19.1zM78.8 373.7v3.4l18.8 17.3-18.8 17.4v3.3l20.6-19 20.7 19.1v-3.3l-18.9-17.5 18.9-17.4v-3.3l-20.7 19.1zM425.6 465.3v3.3l18.7 17.3-18.7 17.2v3.3l20.5-18.9 20.7 19.1v-3.3l-18.9-17.4 18.9-17.5v-3.3l-20.7 19.1zM475.1 465.3v3.3l18.7 17.3-18.7 17.2v3.4l20.5-19 20.7 19.1v-3.3l-18.9-17.4 18.9-17.5v-3.3l-20.7 19.1zM99.4 347.1l-20.6-19v3.3l18.8 17.4-18.8 17.4v3.3l20.6-19 20.7 19.1v-3.3l-18.9-17.5 18.9-17.5v-1.7c-.2-.4-.4-.7-.6-1.1l-20.1 18.6zM772.3 419.6v3.3l18.7 17.3-18.7 17.2v3.3l20.5-18.9 20.8 19.2v-3.3l-19-17.5 19-17.6v-3.3l-20.8 19.2zM524.6 465.3v3.3l18.8 17.3-18.8 17.2v3.4l20.6-19 20.7 19.2v-3.3L547 485.9l18.9-17.5v-3.3l-20.7 19.1zM743.3 209.9L722.7 191v3.3l18.7 17.3-18.7 17.3v3.3l20.5-18.9 20.7 19.1V229L745 211.6l18-16.6c-.3-.9-.5-1.7-.8-2.6l-18.9 17.5zM326.6 465.3v3.3l18.6 17.3-18.6 17.2v3.3l20.4-18.9 20.7 19.1v-3.3l-18.8-17.4 18.8-17.5v-3.3L347 484.2zM376 465.3v3.3l18.8 17.3-18.8 17.2v3.4l20.6-19 20.7 19.1v-3.3l-18.9-17.4 18.9-17.5v-3.3l-20.7 19.1zM227.4 465.2v3.4l18.8 17.3-18.8 17.3v3.3l20.6-19 20.7 19.2v-3.4l-18.9-17.4 18.9-17.5v-3.3L248 484.2zM277 465.3v3.3l18.7 17.3-18.7 17.2v3.3l20.5-18.9 20.7 19.2v-3.4l-18.9-17.4 18.9-17.5v-3.3l-20.7 19.1zM78.8 510.9v3.3l18.8 17.4L78.8 549v3.3l20.6-19.1 20.7 19.2V549l-18.9-17.4 18.9-17.5v-3.3l-20.7 19.1zM623.6 510.9v3.4l18.8 17.3-18.8 17.3v3.3l20.6-19 20.6 19.1v-3.4L646 531.6l18.8-17.4v-3.3l-20.6 19zM524.6 511v3.3l18.8 17.3-18.8 17.2v3.4l20.6-19 20.7 19.2v-3.3L547 531.6l18.9-17.5v-3.3l-20.7 19.1zM475.1 511v3.3l18.7 17.3-18.7 17.2v3.4l20.5-19 20.7 19.1V549l-18.9-17.4 18.9-17.5v-3.3l-20.7 19.1zM574.2 511v3.4l18.7 17.2-18.7 17.2v3.3l20.5-18.9 20.6 19.1V549l-18.8-17.4 18.8-17.4v-3.3l-20.6 19zM772.3 511v3.3l18.7 17.3-18.7 17.2v3.3l20.5-18.9 20.8 19.2v-3.3l-19-17.5 19-17.5v-3.4l-20.8 19.2zM821.9 511.1v3.3l18.6 17.2-18.6 17.2v3.3l20.4-18.9 20.9 19.3v-3.3l-19.1-17.6 19.1-17.6v-3.3l-20.9 19.2zM673.2 510.9v3.3l18.7 17.4-18.7 17.3v3.3l20.5-19 20.7 19.1V549l-18.9-17.4 18.9-17.5v-3.3l-20.7 19.1zM722.7 511v3.3l18.8 17.3-18.8 17.3v3.3l20.6-19 20.7 19.2V549l-18.9-17.4 18.9-17.5v-3.3l-20.7 19.1zM29.3 328.1v3.3l18.8 17.3L29.3 366v3.4l20.6-19 20.6 19v-3.3l-18.8-17.4 18.8-17.3v-3.3l-20.6 19zM128.5 511v3.3l18.6 17.3-18.6 17.2v3.3l20.4-18.9 20.6 19.1v-3.4l-18.8-17.3 18.8-17.4v-3.3l-20.6 19zM177.9 510.9v3.3l18.8 17.4-18.8 17.3v3.3l20.6-19 20.6 19.1V549l-18.8-17.4 18.8-17.4v-3.4l-20.6 19.1zM29.3 510.9v3.4l18.8 17.3-18.8 17.3v3.3l20.6-19 20.6 19v-3.3l-18.8-17.3 18.8-17.3v-3.4l-20.6 19zM772.3 465.3v3.3l18.7 17.3-18.7 17.2v3.3l20.5-18.9 20.8 19.2v-3.3l-19-17.5 19-17.6V465l-20.8 19.2zM326.6 511v3.3l18.6 17.3-18.6 17.2v3.3l20.4-18.9 20.7 19.1V549l-18.9-17.4 18.9-17.5v-3.3L347 529.9zM376 511v3.3l18.8 17.3-18.8 17.3v3.3l20.6-19 20.7 19.2V549l-18.9-17.4 18.9-17.5v-3.3l-20.7 19.1zM227.4 510.9v3.4l18.8 17.3-18.8 17.3v3.3l20.6-19 20.7 19.2V549l-18.9-17.4 18.9-17.5v-3.3L248 529.9zM425.6 511v3.3l18.7 17.3-18.7 17.2v3.4l20.5-19 20.7 19.1V549l-18.9-17.4 18.9-17.5v-3.3l-20.7 19.1zM277 511v3.3l18.7 17.3-18.7 17.2v3.3l20.5-18.9 20.7 19.2V549l-18.9-17.4 18.9-17.5v-3.3l-20.7 19.1zM623.6 373.8v3.3l18.8 17.3-18.8 17.4v3.3l20.6-19 20.6 19v-3.3L646 394.4l18.8-17.3v-3.4l-20.6 19.1zM642.4 348.7L623.6 366v3.3l20.6-19 20.6 19V366L646 348.7l18.8-17.4V328l-20.6 19-19.4-17.9c-.3.8-.7 1.6-1 2.4l18.6 17.2zM673.2 236.7v3.3l18.7 17.3-18.7 17.3v3.4l20.5-19 20.7 19.1v-3.4l-18.9-17.4 18.9-17.4v-3.3l-20.7 19zM673.2 190.9v3.4l18.7 17.3-18.7 17.3v3.4l20.5-19 20.7 19.1V229l-18.9-17.4 18.9-17.4v-3.4l-20.7 19.1zM574.2 419.6v3.3l18.7 17.3-18.7 17.2v3.3l20.5-18.9 20.6 19.1v-3.3l-18.8-17.4 18.8-17.4v-3.4l-20.6 19.1zM376 419.6v3.3l18.8 17.3-18.8 17.2v3.4l20.6-19 20.7 19.1v-3.3l-18.9-17.4 18.9-17.5v-3.3l-20.7 19.1zM277 419.6v3.3l18.7 17.3-18.7 17.2v3.3l20.5-18.9 20.7 19.2v-3.4l-18.9-17.4 18.9-17.5v-3.3l-20.7 19.1zM326.6 419.6v3.3l18.6 17.3-18.6 17.2v3.3l20.4-18.9 20.7 19.1v-3.3l-18.8-17.4 18.8-17.5v-3.3L347 438.5zM128.5 419.6v3.3l18.6 17.3-18.6 17.2v3.3l20.4-18.9 20.6 19v-3.3l-18.8-17.3 18.8-17.4v-3.3l-20.6 19zM722.7 373.8v3.4l18.8 17.2-18.8 17.3v3.3l20.6-18.9 20.7 19.1v-3.3l-18.9-17.5L764 377v-3.3l-20.7 19.1zM722.7 419.5v3.4l18.8 17.3-18.8 17.2v3.4l20.6-19 20.7 19.1v-3.3l-18.9-17.4 18.9-17.5v-3.3l-20.7 19.1zM722.7 328.1v3.4l18.8 17.2-18.8 17.3v3.3l20.6-18.9 20.7 19.1v-3.3l-18.9-17.5 18.9-17.4V328l-20.7 19.1zM722.7 282.4v3.3l18.8 17.3-18.8 17.3v3.3l20.6-18.9 20.7 19.1v-3.3L745.1 303l18.9-17.4v-3.4l-20.7 19.2zM722.7 236.7v3.3l18.8 17.3-18.8 17.3v3.3l20.6-18.9 20.7 19.1v-3.3l-18.9-17.5 18.9-17.4v-3.4l-20.7 19.1zM623.6 465.2v3.4l18.8 17.3-18.8 17.3v3.3l20.6-19 20.6 19.1v-3.4L646 485.9l18.8-17.4v-3.3l-20.6 19zM673.2 465.2v3.3l18.7 17.4-18.7 17.3v3.3l20.5-19 20.7 19.1v-3.3l-18.9-17.4 18.9-17.5v-3.3l-20.7 19.1zM673.2 419.5v3.3l18.7 17.4-18.7 17.3v3.3l20.5-19 20.7 19.1v-3.3l-18.9-17.4 18.9-17.5v-3.3l-20.7 19.1zM673.2 373.8v3.3l18.7 17.3-18.7 17.4v3.3l20.5-19 20.7 19.1v-3.3l-18.9-17.5 18.9-17.4v-3.3l-20.7 19.1zM673.2 282.4v3.3l18.7 17.3-18.7 17.4v3.3l20.5-19 20.7 19.1v-3.3L695.5 303l18.9-17.4v-3.3l-20.7 19.1zM722.7 465.3v3.3l18.8 17.3-18.8 17.3v3.3l20.6-19 20.7 19.1v-3.3l-18.9-17.4 18.9-17.5v-3.3l-20.7 19.1zM821.9 465.4v3.3l18.6 17.2-18.6 17.2v3.3l20.4-18.9 20.9 19.3v-3.4l-19.1-17.5 19.1-17.6V465l-20.9 19.2zM673.2 328.1v3.3l18.7 17.3-18.7 17.4v3.3l20.5-19 20.7 19.1v-3.3l-18.9-17.5 18.9-17.4V328l-20.7 19.1zM623.6 419.5v3.3l18.8 17.4-18.8 17.3v3.3l20.6-19 20.6 19v-3.3L646 440.2l18.8-17.4v-3.3l-20.6 19zM574.2 465.3v3.3l18.7 17.3-18.7 17.2v3.3l20.5-18.9 20.6 19.1v-3.3l-18.8-17.4 18.8-17.4v-3.4l-20.6 19.1zM871.5 511.1v3.3l18.5 17.2-18.5 17.1v3.3l20.4-18.8 20.7 19.2v-3.3l-19-17.5 19-17.5v-3.3l-20.7 19.1zM615.3 369.4v-3.3l-6.3-5.9c-.4.7-.9 1.4-1.3 2.1l7.6 7.1zM592.9 394.4l-18.7 17.2v3.3l20.5-18.9 20.6 19.1v-3.3l-18.8-17.4 18.8-17.4v-3.3l-20.6 19-7.5-6.9c-.6.5-1.3 1-1.9 1.5l7.6 7.1zM642.4 303l-11.2 10.3c-.7 1.7-1.4 3.5-2 5.2l15-13.8 20.6 19v-3.3L646 303l18.8-17.4v-3.3l-20.6 19-6.4-5.9c-.3.8-.6 1.7-.9 2.5l5.5 5.1zM871.5 465.4v3.3l18.5 17.2-18.5 17.1v3.3l20.4-18.8 20.7 19.2v-3.3l-19-17.5 19-17.5V465l-20.7 19.2zM475.1 419.6v3.3l18.7 17.3-18.7 17.2v3.3l20.5-18.9 20.7 19.1v-3.3l-18.9-17.4 18.9-17.5v-3.3l-20.7 19.1zM565.9 415.3V412l-9.2-8.5c-.8.3-1.7.7-2.5 1l11.7 10.8zM524.6 419.6v3.3l18.8 17.3-18.8 17.2v3.4l20.6-19 20.7 19.2v-3.4L547 440.2l18.9-17.5v-3.4l-20.7 19.2zM664.8 278v-3.3l-15.4-14.2c-.3.9-.5 1.7-.8 2.6l16.2 14.9zM794.6 348.7l4.9-4.5c-.2-.9-.5-1.8-.7-2.7l-5.9 5.5-20.5-18.9v3.3l18.7 17.2-18.8 17.4v3.3l20.5-18.9 11.5 10.7c-.5-1.5-.9-3.1-1.4-4.6l-8.3-7.8zM792.8 392.8l-20.5-18.9v3.3l18.7 17.2-18.7 17.2v3.3l20.5-18.9 20.8 19.2V412l-19-17.5 16-14.8c-.3-.8-.6-1.6-.9-2.5l-16.9 15.6zM772.3 282.4v3.3l16.4 15.2c-.3-1.4-.6-2.8-1-4.2l-15.4-14.3zM772.3 320.3v3.3l17.9-16.5-.6-2.7-17.3 15.9zM772.3 274.6v3.3l9.3-8.6c-.2-.9-.4-1.8-.6-2.8l-8.7 8.1zM842.3 438.5l-20.4-18.8v3.3l18.6 17.2-18.6 17.2v3.3l20.4-18.8 20.8 19.2v-3.3l-19-17.6 2.5-2.3c-.6-.5-1.2-1.1-1.8-1.7l-2.5 2.3zM691.9 165.9l-14 12.9c-.8 1.8-1.5 3.6-2.3 5.4l18.1-16.7 20.7 19.1v-3.3l-18.9-17.4 18.9-17.4v-3.3l-20.7 19.1-5.9-5.5c-.4.7-.8 1.5-1.2 2.2l5.3 4.9zM745.1 165.9l5-4.6c-.4-.8-.8-1.5-1.2-2.3l-5.6 5.2-20.5-18.9v3.3l18.7 17.3-18.7 17.3v3.3l20.5-18.9 15.4 14.2c-.6-1.7-1.2-3.4-1.9-5.1l-11.7-10.8zM78.8 320.4v3.3l22.1-20.4c-.6-.6-1.1-1.2-1.7-1.8l-20.4 18.9zM29.3 282.4v3.3L48.1 303l-18.8 17.3v3.4l20.6-19 20.6 19v-3.3L51.7 303l18.8-17.3v-3.3l-20.6 19zM29.3 274.6v3.3l13.5-12.4c-.9-.3-1.8-.5-2.7-.8l-10.8 9.9zM148.9 392.8l-20.5-18.9v3.3l18.7 17.2-18.7 17.2v3.3l20.5-18.9 20.6 19v-3.3l-18.8-17.4 5.8-5.4-1.7-1.7-5.9 5.6zM128.5 366v3.3l8.1-7.5c-.4-.7-.8-1.5-1.2-2.2l-6.9 6.4zM425.6 419.6v3.3l18.7 17.3-18.7 17.2v3.3l20.5-18.9 20.7 19.1v-3.3l-18.9-17.4 18.9-17.5v-3.3l-20.7 19.1zM177.9 411.8v3.3l7.8-7.2c-.8-.3-1.7-.7-2.5-1l-5.3 4.9zM347 392.8l-18.9-17.4c-.5.2-1 .4-1.6.5v1.3l18.7 17.2-18.7 17.2v3.3L347 396l20.7 19.1v-3.3l-18.9-17.4 18.9-17.4v-2.7c-.2-.1-.3-.1-.5-.2L347 392.8zM399.2 390.4l-2.6 2.4-12.4-11.4c-2.5-1.4-5.1-2.7-7.7-3.8l18.3 16.9-18.8 17.2v3.3l20.5-18.9 20.7 19.1v-3.3l-18.9-17.4 2.9-2.7c-.6-.4-1.1-.7-1.7-1.1 0-.1-.2-.2-.3-.3M425.6 411.7v3.3l7.1-6.6c-.9-.3-1.7-.6-2.5-1l-4.6 4.3zM297.5 392.8l-2.1-1.9c-.2.1-.4.2-.5.3-.6.3-1.2.6-1.7.9l2.6 2.4-18.8 17.2v3.3l20.5-18.9 20.7 19.1v-3.3l-18.9-17.5 14.1-13c-2.6 1.3-5.3 2.6-7.9 4l-8 7.4zM177.9 419.5v3.3l18.8 17.4-18.8 17.3v3.3l20.6-19 20.6 19.1v-3.3l-18.8-17.4 18.8-17.4v-3.4l-20.6 19.1zM268.7 415.2v-3.3l-5.5-5.1c-.8.3-1.7.7-2.5 1l8 7.4zM227.4 419.5v3.3l18.8 17.4-18.8 17.3v3.3l20.6-19 20.7 19.2v-3.4l-18.9-17.4 18.9-17.5v-3.3L248 438.5zM1118.9 510.9v3.4l18.8 17.3-18.8 17.3v3.3l20.6-18.9 20.6 19V549l-18.8-17.4 18.8-17.4v-3.3l-20.6 19zM1168.5 377.1l14.6 13.5v-3.3l-14.6-13.5zM1168.5 331.4l14.6 13.5v-3.3l-14.6-13.5zM1168.5 323.7l14.6-13.5v-3.4l-14.6 13.5zM1168.5 415.1l14.6-13.5v-3.3l-14.6 13.5zM1118.9 419.5v3.3l18.8 17.4-18.8 17.3v3.3l20.6-19 20.6 19.1v-3.4l-18.8-17.3 18.8-17.4v-3.4l-20.6 19.1zM1168.5 422.8l14.6 13.5V433l-14.6-13.5zM1168.5 460.8l14.6-13.5V444l-14.6 13.5zM1168.5 468.5l14.6 13.5v-3.3l-14.6-13.5zM1168.5 506.5l14.6-13.5v-3.3l-14.6 13.5zM1118.9 331.4l18.8 17.3-18.8 17.3v3.3l20.6-19 20.6 19V366l-18.8-17.4 18.8-17.4V328l-20.6 19.1-20.4-18.8-.2.2v2.9zM1019.9 465.3v3.3l18.7 17.3-18.7 17.3v3.3l20.5-19 20.8 19.2v-3.4l-19-17.4 19-17.5v-3.3l-20.8 19.1zM970.4 465.3v3.3l18.7 17.3-18.7 17.2v3.4l20.5-19 20.7 19.1v-3.3l-18.9-17.4 18.9-17.4v-3.4l-20.7 19.1zM1069.5 419.6v3.3l18.7 17.3-18.7 17.2v3.3l20.5-18.9 20.6 19.1v-3.4l-18.8-17.3 18.8-17.4v-3.3l-20.6 19zM1069.5 465.3v3.3l18.7 17.3-18.7 17.2v3.3l20.5-18.9 20.6 19.1v-3.4l-18.8-17.3 18.8-17.4v-3.3l-20.6 19zM920.9 511.1v3.3l18.7 17.2-18.7 17.2v3.3l20.5-18.9 20.7 19.1V549l-18.9-17.4 18.9-17.5v-3.3l-20.7 19.1zM1118.9 373.8v3.3l18.8 17.3-18.8 17.4v3.3l20.6-19 20.6 19.1v-3.4l-18.8-17.4 18.8-17.3v-3.4l-20.6 19.1zM1168.5 369.4l14.6-13.5v-3.3l-14.6 13.4zM1069.5 377.2l18.7 17.2-18.7 17.2v3.3L1090 396l20.6 19v-3.3l-18.8-17.4 18.8-17.4v-3.3l-20.6 19-19-17.6c-.5.5-1 .9-1.4 1.4v.8zM1061.2 415.3V412l-14.6-13.4c-.6.6-1.2 1.1-1.8 1.7l16.4 15zM1110.6 369.4v-3.3l-15.5-14.3c-.6.6-1.2 1.1-1.8 1.7l17.3 15.9zM1019.9 422.9l18.7 17.3-18.7 17.3v3.3l20.5-18.9 20.7 19.1v-3.3l-18.9-17.5 18.9-17.5v-3.3l-20.7 19.1-19.1-17.6c-.5.4-1 .8-1.5 1.1v.9zM920.9 465.3v3.4l18.7 17.2-18.7 17.2v3.3l20.5-18.9 20.7 19.1v-3.3l-18.9-17.4 18.9-17.5v-3.3l-20.7 19.1zM1160.1 323.7v-3.3l-17.1-15.7c-.6.6-1.2 1.1-1.7 1.7l18.8 17.3zM970.4 457.4v3.3l20.5-18.9 20.7 19.1v-3.3l-18.9-17.4 1.1-1c-2.8 1.6-5.6 3-8.4 4.4l-15 13.8zM970.4 511v3.3l18.7 17.3-18.7 17.3v3.3l20.5-19 20.7 19.1V549l-18.9-17.4 18.9-17.4v-3.4l-20.7 19.1zM1019.9 511v3.3l18.7 17.3-18.7 17.3v3.3l20.5-19 20.8 19.2v-3.3l-19-17.5 19-17.5v-3.3l-20.8 19.1zM1168.5 514.3l14.6 13.5v-3.4l-14.6-13.5zM1168.5 285.7l14.6 13.5v-3.3l-14.6-13.5zM1118.9 465.2v3.3l18.8 17.4-18.8 17.3v3.3l20.6-19 20.6 19.1v-3.3l-18.8-17.4 18.8-17.4v-3.3l-20.6 19zM1168.5 552.2l14.6-13.5v-3.3l-14.6 13.5zM1069.5 511v3.4l18.7 17.2-18.7 17.2v3.3l20.5-18.9 20.6 19.1V549l-18.8-17.4 18.8-17.4v-3.3l-20.6 19zM6.2 492.9L21 506.6v-3.3L6.2 489.6zM6.2 527.8L21 514.2v-3.3L6.2 524.5zM6.2 538.6L21 552.3V549L6.2 535.3zM6.2 390.7L21 377.1v-3.4L6.2 387.4zM6.2 310.1L21 323.7v-3.3L6.2 306.8zM6.2 299.3L21 285.6v-3.3L6.2 296zM6.2 264.4L21 278v-3.3l-14.1-13h-.7v2.7zM6.2 436.4L21 422.8v-3.4L6.2 433.1zM6.2 447.2L21 460.9v-3.4L6.2 443.9zM6.2 401.5L21 415.2v-3.4L6.2 398.2zM6.2 482.1L21 468.5v-3.4L6.2 478.8zM6.2 345L21 331.4v-3.3L6.2 341.7zM6.2 355.8L21 369.5v-3.3L6.2 352.5zM620 339.9c-.3.7-.7 1.4-1 2-.4.7-.7 1.5-1.1 2.2-.1.3-.3.6-.4.9v209.2h4.1V336.5c-.3.6-.6 1.2-.8 1.8-.3.5-.6 1-.8 1.6M518.4 413.1v141.1h4.1V412.5c-.3 0-.6.1-.8.1-1.1.2-2.2.4-3.3.5M1185.2 262.9v291.3h4V258.9l-4 4M72.6 554.2h4.1V282.6c-1.3-.9-2.7-1.8-4.1-2.6v274.2zM23.7 261.9h-.6v292.3h4.1V262.3c-.3 0-.6-.1-1-.1-.8-.1-1.7-.2-2.5-.3M568.1 398.2s-.1 0-.1.1v155.9h4.1V396.1h-.1c-1.2.8-2.5 1.4-3.9 2.1M1112.7 554.2h4.1V330.5c-1.4 1.3-2.7 2.7-4.1 4v219.7zM320.4 378.3v175.9h4.1V376.7c-1.4.5-2.8 1-4.1 1.6M420.3 402.8c-.3-.1-.6-.3-.9-.4v151.8h4.1V404.5c-.2-.1-.3-.2-.5-.3-.9-.4-1.8-.9-2.7-1.4M371.4 375.5c-.5-.2-1-.3-1.5-.5v179.2h4.1V376.5c-.3-.1-.6-.3-.9-.4-.6-.2-1.2-.4-1.7-.6M468.9 415.8v138.4h4.1V415.9c-1.3 0-2.7 0-3.9-.1h-.2M718 133.1c-.6 0-1.1 0-1.7.1v421h4v-421c-.6-.1-1.2-.1-1.7-.1-.1.1-.3 0-.6 0M270.8 554.2h4.1V401.6c-1.4.7-2.7 1.3-4.1 1.9v150.7zM171.9 401c-.1-.1-.2-.1-.3-.2v153.3h4.1V403.3c-.4-.2-.9-.5-1.3-.8-.8-.5-1.6-1-2.5-1.5M1063.3 554.2h4.1V378.6c-1.4 1.3-2.7 2.6-4.1 3.9v171.7zM1013.7 426.6v127.6h4.1V423.6c-1.1.8-2.3 1.7-3.4 2.5-.3.2-.5.3-.7.5M767.6 210.5c-.5-1.8-1-3.5-1.5-5.3v349h4.1V220.3c-.7-2.8-1.5-5.6-2.2-8.4-.2-.4-.3-.9-.4-1.4M865.4 450.8s-.1 0-.1-.1v103.5h4.1V452.7c-.1-.1-.3-.1-.4-.2-1.2-.5-2.4-1.1-3.6-1.7M965.3 452.2c-.4.1-.7.3-1.1.4v101.6h4.1V451.1c-.1 0-.2.1-.3.1-.9.4-1.8.7-2.7 1M669.5 200.2c-.9 2.3-1.7 4.7-2.6 7.1v346.9h4.1V196.1c-.3.9-.6 1.7-1 2.6-.1.4-.3 1-.5 1.5M817.8 397.4c-.7-1.6-1.4-3.2-2.2-4.9v161.6h4.1V401.5c-.3-.7-.7-1.4-1-2.1-.2-.7-.6-1.3-.9-2M221.2 414.9v139.3h4.1V414.9h-4.1M914.7 462v92.2h4.1v-92.3c-1.3.1-2.5.1-3.8.1h-.3M1162.2 554.2h4.1V281.7l-4.1 4.1v268.4zM0 262v292.2h4l.1-292.5c-.9 0-1.7.1-2.6.2-.4 0-1 0-1.5.1M122.2 333.3v220.9h4.1V340.9c-1.3-2.5-2.6-5.1-4.1-7.6"/><path class="st1" d="M663.6 275.4h10.5v9.7h-10.5zM663.6 366.7h10.5v9.7h-10.5zM663.6 458.2h10.5v9.7h-10.5zM564.5 458.1H575v9.7h-10.5zM465.6 458.1h10.5v9.7h-10.5zM366.5 458.1H377v9.7h-10.5zM267.5 458.1H278v9.7h-10.5zM168.4 458.1h10.5v9.7h-10.5zM69.3 366.6h10.5v9.7H69.3zM69.3 458.1h10.5v9.7H69.3zM1159.2 366.7h10.5v9.7h-10.5zM1159.2 458.2h10.5v9.7h-10.5zM1060.2 458.2h10.5v9.7h-10.5zM961.1 458.2h10.5v9.7h-10.5zM862.1 458.2h10.5v9.7h-10.5zM762.9 275.4h10.5v9.7h-10.5zM762.9 366.7h10.5v9.7h-10.5zM762.9 458.2h10.5v9.7h-10.5zM613.8 412.4h10.5v9.7h-10.5zM415.8 412.4h10.5v9.7h-10.5zM316.7 412.4h10.5v9.7h-10.5zM118.6 412.4h10.5v9.7h-10.5zM19.5 320.9H30v9.7H19.5zM19.5 412.4H30v9.7H19.5zM1109.5 412.4h10.5v9.7h-10.5zM812.3 412.4h10.5v9.7h-10.5zM713.1 138.2h10.5v9.7h-10.5zM713.1 229.6h10.5v9.7h-10.5zM713.1 321h10.5v9.7h-10.5zM713.1 412.4h10.5v9.7h-10.5zM614.2 504h10.5v9.7h-10.5zM515.1 503.9h10.5v9.7h-10.5zM416.2 503.9h10.5v9.7h-10.5zM317.2 503.9h10.5v9.7h-10.5zM218.1 503.9h10.5v9.7h-10.5zM119 503.9h10.5v9.7H119zM19.9 503.9h10.5v9.7H19.9zM1109.9 504h10.5v9.7h-10.5zM812.7 504h10.5v9.7h-10.5zM713.5 504H724v9.7h-10.5zM911.3 503.9h10.5v9.7h-10.5zM1010.4 503.8h10.5v9.7h-10.5z"/><path class="st1" d="M1169.1 458.8h-9.1v8.4h9.1v-8.4zm1.3-1.3v10.9h-11.8v-10.9h11.8zM1169.1 367.3h-9.1v8.4h9.1v-8.4zm-10.5 8.5V366.1h11.8V377h-11.8v-1.2zM1119.7 504.6h-9.1v8.4h9.1v-8.4zm1.3-1.2v10.9h-11.8V503.3h11.8zM1119.3 413h-9.1v8.4h9.1V413zm-10.5 0v-1.2h11.8v10.9h-11.8V413zM1070 458.8h-9.1v8.4h9.1v-8.4zm1.4-1.3v10.9h-11.8v-10.9h11.8zM1020.2 504.4h-9.1v8.4h9.1v-8.4zm1.3-1.2v10.9h-11.8v-10.9h11.8zM971 458.8h-9.1v8.4h9.1v-8.4zm1.3-1.3v10.9h-11.8v-10.9h11.8zM921.1 504.5H912v8.4h9.1v-8.4zm-10.5 0v-1.2h11.9v10.9h-11.9v-9.7zM871.9 458.8h-9.1v8.4h9.1v-8.4zm1.3-1.3v10.9h-11.8v-10.9h11.8zM822.5 504.6h-9.1v8.4h9.1v-8.4zM812 513V503.3h11.9v10.9H812V513zM822.1 413H813v8.4h9.1V413zm-10.5 9.7v-10.9h11.9v10.9h-11.9zM772.7 468.5h-10.5v-10.9h11.9v10.9h-1.4zm-9.1-1.3h9.1v-8.4h-9.1v8.4zM772.7 377h-10.5v-10.9h11.9V377h-1.4zm0-9.7h-9.1v8.4h9.1v-8.4zM772.7 285.7h-10.5v-10.9h11.9v10.9h-1.4zm0-9.7h-9.1v8.4h9.1V276zM723.4 504.6h-9.1v8.4h9.1v-8.4zm1.3-1.2v10.9h-11.9V503.3h11.9zM723 413h-9.1v8.4h9.1V413zm1.3-1.2v10.9h-11.8v-10.9h11.8zM723 321.6h-9.1v8.4h9.1v-8.4zm-10.5 0v-1.3h11.8v10.9h-11.8v-9.6zM723 230.2h-9.1v8.4h9.1v-8.4zm-10.5 9.7V229h11.8V239.8h-11.8zM723 138.9h-9.1v8.4h9.1v-8.4zm-10.5 8.4v-9.6h11.8V148.5h-11.8v-1.2zM673.4 458.8h-9.1v8.4h9.1v-8.4zm1.3-1.3v10.9h-11.9v-10.9h11.9zM673.4 367.3h-9.1v8.4h9.1v-8.4zm1.3-1.2V377h-11.9v-10.9h11.9zM673.4 276h-9.1v8.4h9.1V276zm1.3-1.3v10.9h-11.9v-10.8h11.9zM624 504.6h-9.1v8.4h9.1v-8.4zm1.3-1.2v10.9h-11.8V503.3h11.8zM623.6 413h-9.1v8.4h9.1V413zm-10.5 8.5v-9.7H625v10.9h-11.9v-1.2zM524.9 504.5h-9.1v8.5h9.1v-8.5zm1.4-1.2V514.2h-11.9V503.3h11.9zM426 504.5h-9.1v8.5h9.1v-8.5zm1.4-1.2V514.2h-11.9V503.3h11.9zM425.6 413h-9.1v8.4h9.1V413zm1.4-1.3V422.5h-11.9v-10.7H427zM376.3 458.7h-9.1v8.4h9.1v-8.4zm1.4-1.2V468.3h-11.8V457.5h11.8zM327 504.5h-9.1v8.5h9.1v-8.5zm1.3-1.2V514.2h-11.8V503.3h11.8zM326.6 413h-9.1v8.4h9.1V413zm-10.5 0v-1.2H328V422.6h-11.9V413zM277.3 458.7h-9.1v8.4h9.1v-8.4zm1.4-1.2V468.3h-11.9V457.5h11.9zM227.9 504.5h-9.1v8.5h9.1v-8.5zm1.4-1.2V514.2h-11.9V503.3h11.9zM178.2 458.7h-9.1v8.4h9.1v-8.4zm-10.5 8.5v-9.6h11.9V468.4h-11.9v-1.2zM128.8 504.5h-9.1v8.5h9.1v-8.5zm1.4-1.2V514.2h-11.9V503.3h11.9zM128.4 413h-9.1v8.4h9.1V413zm1.4-1.3V422.5h-11.9v-10.7h11.9zM79.1 458.7H70v8.4h9.1v-8.4zm1.3-1.2V468.3H68.6V457.5h11.8zM79.1 367.3H70v8.4h9.1v-8.4zm1.3-1.3v10.9H68.6V366h11.8zM29.7 504.5h-9.1v8.5h9.1v-8.5zm1.4-1.2V514.2H19.2V503.3h11.9zM29.3 413h-9.1v8.4h9.1V413zm1.4-1.3V422.5H18.8v-10.7h11.9zM29.3 321.5h-9.1v8.4h9.1v-8.4zm1.4-1.2v10.9H18.8V320.4h11.9zM574.3 458.7h-9.1v8.4h9.1v-8.4zm1.4-1.2V468.3h-11.9V457.5h11.9zM475.4 458.7h-9.1v8.4h9.1v-8.4zm1.4-1.2V468.3h-11.9V457.5h11.9zM49.9 487.4c-.9 0-1.6-.7-1.6-1.5s.7-1.5 1.6-1.5c.9 0 1.6.7 1.6 1.5s-.7 1.5-1.6 1.5M49.9 441.7c-.9 0-1.6-.7-1.6-1.5s.7-1.5 1.6-1.5c.9 0 1.6.7 1.6 1.5s-.7 1.5-1.6 1.5M49.9 396c-.9 0-1.6-.7-1.6-1.5s.7-1.5 1.6-1.5c.9 0 1.6.7 1.6 1.5s-.7 1.5-1.6 1.5M49.9 350.2c-.9 0-1.6-.7-1.6-1.5s.7-1.5 1.6-1.5c.9 0 1.6.7 1.6 1.5 0 .9-.7 1.5-1.6 1.5M49.9 304.6c-.9 0-1.6-.7-1.6-1.5s.7-1.5 1.6-1.5c.9 0 1.6.7 1.6 1.5s-.7 1.5-1.6 1.5M49.9 533.1c-.9 0-1.6-.7-1.6-1.5s.7-1.5 1.6-1.5c.9 0 1.6.7 1.6 1.5s-.7 1.5-1.6 1.5M99.5 487.4c-.9 0-1.6-.7-1.6-1.5s.7-1.5 1.6-1.5c.9 0 1.6.7 1.6 1.5-.1.8-.8 1.5-1.6 1.5M99.5 441.7c-.9 0-1.6-.7-1.6-1.5s.7-1.5 1.6-1.5c.9 0 1.6.7 1.6 1.5s-.8 1.5-1.6 1.5M99.5 396c-.9 0-1.6-.7-1.6-1.5s.7-1.5 1.6-1.5c.9 0 1.6.7 1.6 1.5-.1.8-.8 1.5-1.6 1.5M99.5 350.2c-.9 0-1.6-.7-1.6-1.5s.7-1.5 1.6-1.5c.9 0 1.6.7 1.6 1.5-.1.9-.8 1.5-1.6 1.5M99.5 533.1c-.9 0-1.6-.7-1.6-1.5s.7-1.5 1.6-1.5c.9 0 1.6.7 1.6 1.5-.1.8-.8 1.5-1.6 1.5M149 487.4c-.9 0-1.6-.7-1.6-1.5s.7-1.5 1.6-1.5c.9 0 1.6.7 1.6 1.5s-.7 1.5-1.6 1.5M149 441.7c-.9 0-1.6-.7-1.6-1.5s.7-1.5 1.6-1.5c.9 0 1.6.7 1.6 1.5s-.7 1.5-1.6 1.5M149 396c-.9 0-1.6-.7-1.6-1.5s.7-1.5 1.6-1.5c.9 0 1.6.7 1.6 1.5s-.7 1.5-1.6 1.5M149 533.1c-.9 0-1.6-.7-1.6-1.5s.7-1.5 1.6-1.5c.9 0 1.6.7 1.6 1.5s-.7 1.5-1.6 1.5M198.5 487.4c-.9 0-1.6-.7-1.6-1.5s.7-1.5 1.6-1.5c.9 0 1.6.7 1.6 1.5s-.7 1.5-1.6 1.5M198.5 441.7c-.9 0-1.6-.7-1.6-1.5s.7-1.5 1.6-1.5c.9 0 1.6.7 1.6 1.5s-.7 1.5-1.6 1.5M198.5 533.1c-.9 0-1.6-.7-1.6-1.5s.7-1.5 1.6-1.5c.9 0 1.6.7 1.6 1.5s-.7 1.5-1.6 1.5M248 487.4c-.9 0-1.6-.7-1.6-1.5s.7-1.5 1.6-1.5c.9 0 1.6.7 1.6 1.5s-.7 1.5-1.6 1.5M248 441.7c-.9 0-1.6-.7-1.6-1.5s.7-1.5 1.6-1.5c.9 0 1.6.7 1.6 1.5s-.7 1.5-1.6 1.5M248 533.1c-.9 0-1.6-.7-1.6-1.5s.7-1.5 1.6-1.5c.9 0 1.6.7 1.6 1.5s-.7 1.5-1.6 1.5M297.5 487.4c-.9 0-1.6-.7-1.6-1.5s.7-1.5 1.6-1.5c.9 0 1.6.7 1.6 1.5s-.7 1.5-1.6 1.5M297.5 441.7c-.9 0-1.6-.7-1.6-1.5s.7-1.5 1.6-1.5c.9 0 1.6.7 1.6 1.5s-.7 1.5-1.6 1.5M297.5 396c-.9 0-1.6-.7-1.6-1.5s.7-1.5 1.6-1.5c.9 0 1.6.7 1.6 1.5s-.7 1.5-1.6 1.5M297.5 533.1c-.9 0-1.6-.7-1.6-1.5s.7-1.5 1.6-1.5c.9 0 1.6.7 1.6 1.5s-.7 1.5-1.6 1.5M347.1 487.4c-.9 0-1.6-.7-1.6-1.5s.7-1.5 1.6-1.5c.9 0 1.6.7 1.6 1.5s-.8 1.5-1.6 1.5M347.1 441.7c-.9 0-1.6-.7-1.6-1.5s.7-1.5 1.6-1.5c.9 0 1.6.7 1.6 1.5s-.8 1.5-1.6 1.5M347.1 396c-.9 0-1.6-.7-1.6-1.5s.7-1.5 1.6-1.5c.9 0 1.6.7 1.6 1.5s-.8 1.5-1.6 1.5M347.1 533.1c-.9 0-1.6-.7-1.6-1.5s.7-1.5 1.6-1.5c.9 0 1.6.7 1.6 1.5s-.8 1.5-1.6 1.5M396.6 487.4c-.9 0-1.6-.7-1.6-1.5s.7-1.5 1.6-1.5c.9 0 1.6.7 1.6 1.5s-.7 1.5-1.6 1.5M396.6 441.7c-.9 0-1.6-.7-1.6-1.5s.7-1.5 1.6-1.5c.9 0 1.6.7 1.6 1.5s-.7 1.5-1.6 1.5M396.6 396c-.9 0-1.6-.7-1.6-1.5s.7-1.5 1.6-1.5c.9 0 1.6.7 1.6 1.5s-.7 1.5-1.6 1.5M396.6 533.1c-.9 0-1.6-.7-1.6-1.5s.7-1.5 1.6-1.5c.9 0 1.6.7 1.6 1.5s-.7 1.5-1.6 1.5M446.1 487.3c-.9 0-1.6-.7-1.6-1.5s.7-1.5 1.6-1.5c.9 0 1.6.7 1.6 1.5 0 .9-.7 1.5-1.6 1.5M446.1 441.7c-.9 0-1.6-.7-1.6-1.5s.7-1.5 1.6-1.5c.9 0 1.6.7 1.6 1.5s-.7 1.5-1.6 1.5M446.1 533c-.9 0-1.6-.7-1.6-1.5s.7-1.5 1.6-1.5c.9 0 1.6.7 1.6 1.5 0 .9-.7 1.5-1.6 1.5M495.7 487.3c-.9 0-1.6-.7-1.6-1.5s.7-1.5 1.6-1.5c.9 0 1.6.7 1.6 1.5 0 .9-.7 1.5-1.6 1.5M495.7 441.7c-.9 0-1.6-.7-1.6-1.5s.7-1.5 1.6-1.5c.9 0 1.6.7 1.6 1.5s-.7 1.5-1.6 1.5M495.7 533c-.9 0-1.6-.7-1.6-1.5s.7-1.5 1.6-1.5c.9 0 1.6.7 1.6 1.5 0 .9-.7 1.5-1.6 1.5M545.2 487.3c-.9 0-1.6-.7-1.6-1.5s.7-1.5 1.6-1.5c.9 0 1.6.7 1.6 1.5 0 .9-.7 1.5-1.6 1.5M545.2 441.7c-.9 0-1.6-.7-1.6-1.5s.7-1.5 1.6-1.5c.9 0 1.6.7 1.6 1.5s-.7 1.5-1.6 1.5M545.2 533c-.9 0-1.6-.7-1.6-1.5s.7-1.5 1.6-1.5c.9 0 1.6.7 1.6 1.5 0 .9-.7 1.5-1.6 1.5M594.8 487.3c-.9 0-1.6-.7-1.6-1.5s.7-1.5 1.6-1.5c.9 0 1.6.7 1.6 1.5 0 .9-.8 1.5-1.6 1.5M594.8 441.7c-.9 0-1.6-.7-1.6-1.5s.7-1.5 1.6-1.5c.9 0 1.6.7 1.6 1.5s-.8 1.5-1.6 1.5M594.8 395.9c-.9 0-1.6-.7-1.6-1.5s.7-1.5 1.6-1.5c.9 0 1.6.7 1.6 1.5 0 .9-.8 1.5-1.6 1.5M594.8 533c-.9 0-1.6-.7-1.6-1.5s.7-1.5 1.6-1.5c.9 0 1.6.7 1.6 1.5 0 .9-.8 1.5-1.6 1.5M644.2 487.4c-.9 0-1.6-.7-1.6-1.5s.7-1.5 1.6-1.5c.9 0 1.6.7 1.6 1.5s-.7 1.5-1.6 1.5M644.2 441.7c-.9 0-1.6-.7-1.6-1.5s.7-1.5 1.6-1.5c.9 0 1.6.7 1.6 1.5s-.7 1.5-1.6 1.5M644.2 396c-.9 0-1.6-.7-1.6-1.5s.7-1.5 1.6-1.5c.9 0 1.6.7 1.6 1.5s-.7 1.5-1.6 1.5M644.2 350.2c-.9 0-1.6-.7-1.6-1.5s.7-1.5 1.6-1.5c.9 0 1.6.7 1.6 1.5 0 .9-.7 1.5-1.6 1.5M644.2 304.6c-.9 0-1.6-.7-1.6-1.5s.7-1.5 1.6-1.5c.9 0 1.6.7 1.6 1.5s-.7 1.5-1.6 1.5M644.2 533.1c-.9 0-1.6-.7-1.6-1.5s.7-1.5 1.6-1.5c.9 0 1.6.7 1.6 1.5s-.7 1.5-1.6 1.5M693.8 487.4c-.9 0-1.6-.7-1.6-1.5s.7-1.5 1.6-1.5c.9 0 1.6.7 1.6 1.5s-.7 1.5-1.6 1.5M693.8 441.7c-.9 0-1.6-.7-1.6-1.5s.7-1.5 1.6-1.5c.9 0 1.6.7 1.6 1.5s-.7 1.5-1.6 1.5M693.8 396c-.9 0-1.6-.7-1.6-1.5s.7-1.5 1.6-1.5c.9 0 1.6.7 1.6 1.5s-.7 1.5-1.6 1.5M693.8 350.2c-.9 0-1.6-.7-1.6-1.5s.7-1.5 1.6-1.5c.9 0 1.6.7 1.6 1.5 0 .9-.7 1.5-1.6 1.5M693.8 304.6c-.9 0-1.6-.7-1.6-1.5s.7-1.5 1.6-1.5c.9 0 1.6.7 1.6 1.5s-.7 1.5-1.6 1.5M693.8 533.1c-.9 0-1.6-.7-1.6-1.5s.7-1.5 1.6-1.5c.9 0 1.6.7 1.6 1.5s-.7 1.5-1.6 1.5M743.3 487.4c-.9 0-1.6-.7-1.6-1.5s.7-1.5 1.6-1.5c.9 0 1.6.7 1.6 1.5s-.7 1.5-1.6 1.5M743.3 441.7c-.9 0-1.6-.7-1.6-1.5s.7-1.5 1.6-1.5c.9 0 1.6.7 1.6 1.5s-.7 1.5-1.6 1.5M743.3 396c-.9 0-1.6-.7-1.6-1.5s.7-1.5 1.6-1.5c.9 0 1.6.7 1.6 1.5s-.7 1.5-1.6 1.5M743.3 350.2c-.9 0-1.6-.7-1.6-1.5s.7-1.5 1.6-1.5c.9 0 1.6.7 1.6 1.5 0 .9-.7 1.5-1.6 1.5M743.3 304.6c-.9 0-1.6-.7-1.6-1.5s.7-1.5 1.6-1.5c.9 0 1.6.7 1.6 1.5s-.7 1.5-1.6 1.5M743.3 533.1c-.9 0-1.6-.7-1.6-1.5s.7-1.5 1.6-1.5c.9 0 1.6.7 1.6 1.5s-.7 1.5-1.6 1.5M792.9 487.4c-.9 0-1.6-.7-1.6-1.5s.7-1.5 1.6-1.5c.9 0 1.6.7 1.6 1.5-.1.8-.8 1.5-1.6 1.5M792.9 441.7c-.9 0-1.6-.7-1.6-1.5s.7-1.5 1.6-1.5c.9 0 1.6.7 1.6 1.5s-.8 1.5-1.6 1.5M792.9 396c-.9 0-1.6-.7-1.6-1.5s.7-1.5 1.6-1.5c.9 0 1.6.7 1.6 1.5-.1.8-.8 1.5-1.6 1.5M792.9 350.2c-.9 0-1.6-.7-1.6-1.5s.7-1.5 1.6-1.5c.9 0 1.6.7 1.6 1.5-.1.9-.8 1.5-1.6 1.5M792.9 533.1c-.9 0-1.6-.7-1.6-1.5s.7-1.5 1.6-1.5c.9 0 1.6.7 1.6 1.5-.1.8-.8 1.5-1.6 1.5M842.3 487.4c-.9 0-1.6-.7-1.6-1.5s.7-1.5 1.6-1.5c.9 0 1.6.7 1.6 1.5s-.7 1.5-1.6 1.5M842.3 441.7c-.9 0-1.6-.7-1.6-1.5s.7-1.5 1.6-1.5c.9 0 1.6.7 1.6 1.5s-.7 1.5-1.6 1.5M842.3 533.1c-.9 0-1.6-.7-1.6-1.5s.7-1.5 1.6-1.5c.9 0 1.6.7 1.6 1.5s-.7 1.5-1.6 1.5M891.9 487.4c-.9 0-1.6-.7-1.6-1.5s.7-1.5 1.6-1.5c.9 0 1.6.7 1.6 1.5s-.7 1.5-1.6 1.5M891.9 533.1c-.9 0-1.6-.7-1.6-1.5s.7-1.5 1.6-1.5c.9 0 1.6.7 1.6 1.5s-.7 1.5-1.6 1.5M941.4 487.4c-.9 0-1.6-.7-1.6-1.5s.7-1.5 1.6-1.5c.9 0 1.6.7 1.6 1.5s-.7 1.5-1.6 1.5M941.4 533.1c-.9 0-1.6-.7-1.6-1.5s.7-1.5 1.6-1.5c.9 0 1.6.7 1.6 1.5s-.7 1.5-1.6 1.5M990.9 487.4c-.9 0-1.6-.7-1.6-1.5s.7-1.5 1.6-1.5c.9 0 1.6.7 1.6 1.5s-.7 1.5-1.6 1.5M990.9 533.1c-.9 0-1.6-.7-1.6-1.5s.7-1.5 1.6-1.5c.9 0 1.6.7 1.6 1.5s-.7 1.5-1.6 1.5M1040.5 487.3c-.9 0-1.6-.7-1.6-1.5s.7-1.5 1.6-1.5c.9 0 1.6.7 1.6 1.5 0 .9-.7 1.5-1.6 1.5M1040.5 441.7c-.9 0-1.6-.7-1.6-1.5s.7-1.5 1.6-1.5c.9 0 1.6.7 1.6 1.5s-.7 1.5-1.6 1.5M1040.5 533c-.9 0-1.6-.7-1.6-1.5s.7-1.5 1.6-1.5c.9 0 1.6.7 1.6 1.5 0 .9-.7 1.5-1.6 1.5M1090.1 487.3c-.9 0-1.6-.7-1.6-1.5s.7-1.5 1.6-1.5c.9 0 1.6.7 1.6 1.5 0 .9-.8 1.5-1.6 1.5M1090.1 441.7c-.9 0-1.6-.7-1.6-1.5s.7-1.5 1.6-1.5c.9 0 1.6.7 1.6 1.5s-.8 1.5-1.6 1.5M1090.1 395.9c-.9 0-1.6-.7-1.6-1.5s.7-1.5 1.6-1.5c.9 0 1.6.7 1.6 1.5 0 .9-.8 1.5-1.6 1.5M1090.1 533c-.9 0-1.6-.7-1.6-1.5s.7-1.5 1.6-1.5c.9 0 1.6.7 1.6 1.5 0 .9-.8 1.5-1.6 1.5M1139.6 487.3c-.9 0-1.6-.7-1.6-1.5s.7-1.5 1.6-1.5c.9 0 1.6.7 1.6 1.5 0 .9-.7 1.5-1.6 1.5M1139.6 441.7c-.9 0-1.6-.7-1.6-1.5s.7-1.5 1.6-1.5c.9 0 1.6.7 1.6 1.5s-.7 1.5-1.6 1.5M1139.6 395.9c-.9 0-1.6-.7-1.6-1.5s.7-1.5 1.6-1.5c.9 0 1.6.7 1.6 1.5 0 .9-.7 1.5-1.6 1.5M1139.6 350.2c-.9 0-1.6-.7-1.6-1.5s.7-1.5 1.6-1.5c.9 0 1.6.7 1.6 1.5s-.7 1.5-1.6 1.5M1139.6 533c-.9 0-1.6-.7-1.6-1.5s.7-1.5 1.6-1.5c.9 0 1.6.7 1.6 1.5 0 .9-.7 1.5-1.6 1.5M693.7 258.8c-.9 0-1.6-.7-1.6-1.5s.7-1.5 1.6-1.5c.9 0 1.6.7 1.6 1.5s-.7 1.5-1.6 1.5M693.7 213c-.9 0-1.6-.7-1.6-1.5s.7-1.5 1.6-1.5c.9 0 1.6.7 1.6 1.5 0 .9-.7 1.5-1.6 1.5M693.7 167.4c-.9 0-1.6-.7-1.6-1.5s.7-1.5 1.6-1.5c.9 0 1.6.7 1.6 1.5s-.7 1.5-1.6 1.5M743.2 258.8c-.9 0-1.6-.7-1.6-1.5s.7-1.5 1.6-1.5c.9 0 1.6.7 1.6 1.5s-.7 1.5-1.6 1.5M743.2 213c-.9 0-1.6-.7-1.6-1.5s.7-1.5 1.6-1.5c.9 0 1.6.7 1.6 1.5 0 .9-.7 1.5-1.6 1.5M743.2 167.4c-.9 0-1.6-.7-1.6-1.5s.7-1.5 1.6-1.5c.9 0 1.6.7 1.6 1.5s-.7 1.5-1.6 1.5"/><path class="st1" d="M1139.6 347c1 0 1.8.8 1.8 1.7 0 .9-.8 1.7-1.8 1.7s-1.8-.8-1.8-1.7c0-.9.8-1.7 1.8-1.7m0 2.9c.7 0 1.3-.5 1.3-1.2s-.6-1.2-1.3-1.2c-.7 0-1.3.5-1.3 1.2s.6 1.2 1.3 1.2M1140.9 394.5c0-.7-.6-1.2-1.3-1.2-.7 0-1.3.5-1.3 1.2s.6 1.2 1.3 1.2c.7 0 1.3-.6 1.3-1.2m-1.3-1.7c1 0 1.8.8 1.8 1.7 0 .9-.8 1.7-1.8 1.7s-1.8-.8-1.8-1.7c0-1 .8-1.7 1.8-1.7M1140.9 440.2c0-.7-.6-1.2-1.3-1.2-.7 0-1.3.6-1.3 1.2 0 .7.6 1.2 1.3 1.2.7 0 1.3-.5 1.3-1.2m-1.3-1.7c1 0 1.8.8 1.8 1.7 0 .9-.8 1.7-1.8 1.7s-1.8-.8-1.8-1.7c0-.9.8-1.7 1.8-1.7M1139.6 484.2c1 0 1.8.8 1.8 1.7 0 .9-.8 1.7-1.8 1.7s-1.8-.8-1.8-1.7c0-1 .8-1.7 1.8-1.7m0 2.9c.7 0 1.3-.5 1.3-1.2s-.6-1.2-1.3-1.2c-.7 0-1.3.5-1.3 1.2 0 .6.6 1.2 1.3 1.2M1140.9 531.6c0-.7-.6-1.2-1.3-1.2-.7 0-1.3.5-1.3 1.2s.6 1.2 1.3 1.2c.7 0 1.3-.6 1.3-1.2m-1.3-1.7c1 0 1.8.8 1.8 1.7 0 .9-.8 1.7-1.8 1.7s-1.8-.8-1.8-1.7c0-1 .8-1.7 1.8-1.7M1091.4 394.5c0-.7-.6-1.2-1.3-1.2-.7 0-1.3.5-1.3 1.2s.6 1.2 1.3 1.2c.7 0 1.3-.6 1.3-1.2m-1.3-1.7c1 0 1.8.8 1.8 1.7 0 .9-.8 1.7-1.8 1.7s-1.8-.8-1.8-1.7c-.1-1 .8-1.7 1.8-1.7M1091.4 440.2c0-.7-.6-1.2-1.3-1.2-.7 0-1.3.6-1.3 1.2 0 .7.6 1.2 1.3 1.2.7 0 1.3-.5 1.3-1.2m-1.3-1.7c1 0 1.8.8 1.8 1.7 0 .9-.8 1.7-1.8 1.7s-1.8-.8-1.8-1.7c-.1-.9.8-1.7 1.8-1.7M1091.4 485.9c0-.7-.6-1.2-1.3-1.2-.7 0-1.3.5-1.3 1.2s.6 1.2 1.3 1.2c.7 0 1.3-.6 1.3-1.2m-1.3-1.7c1 0 1.8.8 1.8 1.7 0 .9-.8 1.7-1.8 1.7s-1.8-.8-1.8-1.7c-.1-1 .8-1.7 1.8-1.7M1091.4 531.6c0-.7-.6-1.2-1.3-1.2-.7 0-1.3.5-1.3 1.2s.6 1.2 1.3 1.2c.7 0 1.3-.6 1.3-1.2m-1.3-1.7c1 0 1.8.8 1.8 1.7 0 .9-.8 1.7-1.8 1.7s-1.8-.8-1.8-1.7c-.1-1 .8-1.7 1.8-1.7M1040.5 441.4c.7 0 1.3-.5 1.3-1.2s-.6-1.2-1.3-1.2c-.7 0-1.3.6-1.3 1.2 0 .7.6 1.2 1.3 1.2m-1.8-1.2c0-.9.8-1.7 1.8-1.7s1.8.8 1.8 1.7c0 .9-.8 1.7-1.8 1.7s-1.8-.8-1.8-1.7M1040.5 487.1c.7 0 1.3-.5 1.3-1.2s-.6-1.2-1.3-1.2c-.7 0-1.3.5-1.3 1.2 0 .6.6 1.2 1.3 1.2m-1.8-1.2c0-.9.8-1.7 1.8-1.7s1.8.8 1.8 1.7c0 .9-.8 1.7-1.8 1.7s-1.8-.8-1.8-1.7M1040.5 532.8c.7 0 1.3-.5 1.3-1.2s-.6-1.2-1.3-1.2c-.7 0-1.3.5-1.3 1.2 0 .6.6 1.2 1.3 1.2m-1.8-1.2c0-.9.8-1.7 1.8-1.7s1.8.8 1.8 1.7c0 .9-.8 1.7-1.8 1.7s-1.8-.8-1.8-1.7M990.9 532.8c.7 0 1.3-.6 1.3-1.2 0-.7-.6-1.2-1.3-1.2-.7 0-1.3.6-1.3 1.2 0 .7.6 1.2 1.3 1.2m1.9-1.2c0 .9-.8 1.7-1.8 1.7s-1.8-.8-1.8-1.7c0-.9.8-1.7 1.8-1.7s1.8.8 1.8 1.7M992.8 485.9c0 .9-.8 1.7-1.8 1.7s-1.8-.7-1.8-1.7c0-.9.8-1.7 1.8-1.7s1.8.8 1.8 1.7m-1.9 1.2c.7 0 1.3-.6 1.3-1.2 0-.7-.6-1.2-1.3-1.2-.7 0-1.3.6-1.3 1.2 0 .7.6 1.2 1.3 1.2M941.4 532.8c.7 0 1.4-.6 1.4-1.2 0-.7-.6-1.2-1.4-1.2-.7 0-1.3.6-1.3 1.2 0 .7.6 1.2 1.3 1.2m1.9-1.2c0 .9-.8 1.7-1.8 1.7s-1.8-.8-1.8-1.7c0-.9.8-1.7 1.8-1.7.9 0 1.8.8 1.8 1.7M941.4 487.1c.7 0 1.4-.6 1.4-1.2 0-.7-.6-1.2-1.4-1.2-.7 0-1.3.6-1.3 1.2 0 .7.6 1.2 1.3 1.2m1.9-1.2c0 .9-.8 1.7-1.8 1.7s-1.8-.7-1.8-1.7c0-.9.8-1.7 1.8-1.7.9 0 1.8.8 1.8 1.7M893.2 531.6c0-.7-.6-1.2-1.3-1.2-.7 0-1.3.6-1.3 1.2 0 .7.6 1.2 1.3 1.2.7 0 1.3-.5 1.3-1.2m-1.3-1.7c1 0 1.8.8 1.8 1.7 0 .9-.8 1.7-1.8 1.7s-1.8-.8-1.8-1.7c0-.9.8-1.7 1.8-1.7M893.2 485.9c0-.7-.6-1.2-1.3-1.2-.7 0-1.3.6-1.3 1.2 0 .7.6 1.2 1.3 1.2.7 0 1.3-.5 1.3-1.2m.5 0c0 .9-.8 1.7-1.8 1.7s-1.8-.7-1.8-1.7c0-.9.8-1.7 1.8-1.7s1.8.8 1.8 1.7M844.2 440.3c0 .9-.8 1.7-1.8 1.7s-1.8-.8-1.8-1.7c0-.9.8-1.7 1.8-1.7 1-.1 1.8.7 1.8 1.7m-1.9 1.2c.7 0 1.3-.5 1.3-1.2s-.6-1.2-1.3-1.2c-.7 0-1.3.6-1.3 1.2s.6 1.2 1.3 1.2M842.3 532.8c.7 0 1.3-.6 1.3-1.2 0-.7-.6-1.2-1.3-1.2-.7 0-1.3.6-1.3 1.2 0 .7.6 1.2 1.3 1.2m1.9-1.2c0 .9-.8 1.7-1.8 1.7s-1.8-.8-1.8-1.7c0-.9.8-1.7 1.8-1.7s1.8.8 1.8 1.7M844.2 485.9c0 .9-.8 1.7-1.8 1.7s-1.8-.7-1.8-1.7c0-.9.8-1.7 1.8-1.7s1.8.8 1.8 1.7m-1.9 1.2c.7 0 1.3-.6 1.3-1.2 0-.7-.6-1.2-1.3-1.2-.7 0-1.3.6-1.3 1.2 0 .7.6 1.2 1.3 1.2M792.8 532.8c.7 0 1.3-.6 1.3-1.2 0-.7-.6-1.2-1.3-1.2-.7 0-1.3.6-1.3 1.2 0 .7.6 1.2 1.3 1.2m1.9-1.2c0 .9-.8 1.7-1.8 1.7s-1.8-.8-1.8-1.7c0-.9.8-1.7 1.8-1.7s1.8.8 1.8 1.7M794.7 348.8c0 .9-.8 1.7-1.8 1.7s-1.8-.8-1.8-1.7c0-.9.8-1.7 1.8-1.7s1.8.7 1.8 1.7m-1.9 1.2c.7 0 1.3-.5 1.3-1.2s-.6-1.2-1.3-1.2c-.7 0-1.3.5-1.3 1.2 0 .6.6 1.2 1.3 1.2M792.8 395.7c.7 0 1.3-.6 1.3-1.2 0-.7-.6-1.2-1.3-1.2-.7 0-1.3.6-1.3 1.2 0 .7.6 1.2 1.3 1.2m1.9-1.2c0 .9-.8 1.7-1.8 1.7s-1.8-.8-1.8-1.7c0-.9.8-1.7 1.8-1.7s1.8.8 1.8 1.7M792.8 441.5c.7 0 1.3-.5 1.3-1.2s-.6-1.2-1.3-1.2c-.7 0-1.3.6-1.3 1.2s.6 1.2 1.3 1.2m1.9-1.2c0 .9-.8 1.7-1.8 1.7s-1.8-.8-1.8-1.7c0-.9.8-1.7 1.8-1.7 1-.1 1.8.7 1.8 1.7M792.8 487.1c.7 0 1.3-.6 1.3-1.2 0-.7-.6-1.2-1.3-1.2-.7 0-1.3.6-1.3 1.2 0 .7.6 1.2 1.3 1.2m1.9-1.2c0 .9-.8 1.7-1.8 1.7s-1.8-.7-1.8-1.7c0-.9.8-1.7 1.8-1.7s1.8.8 1.8 1.7M743.3 393.3c-.7 0-1.3.6-1.3 1.2 0 .7.6 1.2 1.3 1.2.7 0 1.3-.6 1.3-1.2.1-.7-.5-1.2-1.3-1.2m-1.8 1.2c0-.9.8-1.7 1.8-1.7s1.8.8 1.8 1.7c0 .9-.8 1.7-1.8 1.7s-1.8-.8-1.8-1.7M741.5 440.3c0-.9.8-1.7 1.8-1.7s1.8.8 1.8 1.7c0 .9-.8 1.7-1.8 1.7s-1.8-.8-1.8-1.7m.5 0c0 .7.6 1.2 1.3 1.2.7 0 1.3-.5 1.3-1.2s-.6-1.2-1.3-1.2c-.7-.1-1.3.5-1.3 1.2M741.5 531.6c0-.9.8-1.7 1.8-1.7s1.8.8 1.8 1.7c0 .9-.8 1.7-1.8 1.7s-1.8-.8-1.8-1.7m.5 0c0 .7.6 1.2 1.3 1.2.7 0 1.3-.6 1.3-1.2 0-.7-.6-1.2-1.3-1.2-.7 0-1.3.5-1.3 1.2M741.4 165.9c0-.9.8-1.7 1.8-1.7s1.9.8 1.9 1.7c0 .9-.8 1.7-1.9 1.7-1 0-1.8-.7-1.8-1.7m.5 0c0 .7.6 1.2 1.3 1.2.7 0 1.3-.5 1.3-1.2s-.6-1.2-1.3-1.2c-.7 0-1.3.6-1.3 1.2M741.4 211.6c0-.9.8-1.7 1.8-1.7s1.9.8 1.9 1.7c0 .9-.8 1.7-1.9 1.7-1 0-1.8-.8-1.8-1.7m.5 0c0 .7.6 1.2 1.3 1.2.7 0 1.3-.5 1.3-1.2s-.6-1.2-1.3-1.2c-.7 0-1.3.5-1.3 1.2M741.4 257.3c0-.9.8-1.7 1.8-1.7s1.9.8 1.9 1.7c0 .9-.8 1.7-1.9 1.7-1 0-1.8-.7-1.8-1.7m.5 0c0 .7.6 1.2 1.3 1.2.7 0 1.3-.5 1.3-1.2s-.6-1.2-1.3-1.2c-.7 0-1.3.5-1.3 1.2M741.5 485.9c0-.9.8-1.7 1.8-1.7s1.8.8 1.8 1.7c0 .9-.8 1.7-1.8 1.7s-1.8-.8-1.8-1.7m1.8-1.2c-.7 0-1.3.6-1.3 1.2 0 .7.6 1.2 1.3 1.2.7 0 1.3-.6 1.3-1.2.1-.7-.5-1.2-1.3-1.2M741.5 303.1c0-.9.8-1.7 1.8-1.7s1.8.8 1.8 1.7c0 .9-.8 1.7-1.8 1.7s-1.8-.8-1.8-1.7m.5 0c0 .7.6 1.2 1.3 1.2.7 0 1.3-.6 1.3-1.2 0-.7-.6-1.2-1.3-1.2-.7 0-1.3.5-1.3 1.2M741.5 348.8c0-.9.8-1.7 1.8-1.7s1.8.8 1.8 1.7c0 .9-.8 1.7-1.8 1.7s-1.8-.8-1.8-1.7m.5 0c0 .7.6 1.2 1.3 1.2.7 0 1.3-.5 1.3-1.2s-.6-1.2-1.3-1.2c-.7-.1-1.3.5-1.3 1.2M692 531.6c0-.9.8-1.7 1.8-1.7s1.8.8 1.8 1.7c0 .9-.8 1.7-1.8 1.7s-1.8-.8-1.8-1.7m1.8-1.2c-.7 0-1.3.6-1.3 1.2 0 .7.6 1.2 1.3 1.2.7 0 1.3-.6 1.3-1.2 0-.7-.6-1.2-1.3-1.2M692.5 303.1c0 .7.6 1.2 1.3 1.2.7 0 1.3-.6 1.3-1.2 0-.7-.6-1.2-1.3-1.2-.7 0-1.3.5-1.3 1.2m-.5 0c0-.9.8-1.7 1.8-1.7s1.8.8 1.8 1.7c0 .9-.8 1.7-1.8 1.7s-1.8-.8-1.8-1.7M692.5 348.8c0 .7.6 1.2 1.3 1.2.7 0 1.3-.5 1.3-1.2s-.6-1.2-1.3-1.2c-.7-.1-1.3.5-1.3 1.2m-.5 0c0-.9.8-1.7 1.8-1.7s1.8.8 1.8 1.7c0 .9-.8 1.7-1.8 1.7s-1.8-.8-1.8-1.7M692.5 394.5c0 .7.6 1.2 1.3 1.2.7 0 1.3-.6 1.3-1.2 0-.7-.6-1.2-1.3-1.2-.7 0-1.3.5-1.3 1.2m3.1 0c0 .9-.8 1.7-1.8 1.7s-1.8-.8-1.8-1.7c0-.9.8-1.7 1.8-1.7s1.8.8 1.8 1.7M692.5 440.3c0 .7.6 1.2 1.3 1.2.7 0 1.3-.5 1.3-1.2s-.6-1.2-1.3-1.2c-.7-.1-1.3.5-1.3 1.2m3.1 0c0 .9-.8 1.7-1.8 1.7s-1.8-.8-1.8-1.7c0-.9.8-1.7 1.8-1.7 1-.1 1.8.7 1.8 1.7M692.5 485.9c0 .7.6 1.2 1.3 1.2.7 0 1.3-.6 1.3-1.2 0-.7-.6-1.2-1.3-1.2-.7 0-1.3.5-1.3 1.2m-.5 0c0-.9.8-1.7 1.8-1.7s1.8.8 1.8 1.7c0 .9-.8 1.7-1.8 1.7s-1.8-.8-1.8-1.7M691.9 165.9c0-.9.8-1.7 1.8-1.7s1.8.8 1.8 1.7c0 .9-.8 1.7-1.8 1.7s-1.8-.7-1.8-1.7m3.1 0c0-.7-.6-1.2-1.3-1.2-.7 0-1.3.5-1.3 1.2s.6 1.2 1.3 1.2c.7.1 1.3-.5 1.3-1.2M691.9 211.6c0-.9.8-1.7 1.8-1.7s1.8.8 1.8 1.7c0 .9-.8 1.7-1.8 1.7s-1.8-.8-1.8-1.7m3.1 0c0-.7-.6-1.2-1.3-1.2-.7 0-1.3.5-1.3 1.2s.6 1.2 1.3 1.2c.7 0 1.3-.5 1.3-1.2M691.9 257.3c0-.9.8-1.7 1.8-1.7s1.8.8 1.8 1.7c0 .9-.8 1.7-1.8 1.7s-1.8-.7-1.8-1.7m3.1 0c0-.7-.6-1.2-1.3-1.2-.7 0-1.3.5-1.3 1.2s.6 1.2 1.3 1.2c.7 0 1.3-.5 1.3-1.2M644.2 392.8c1 0 1.8.8 1.8 1.7 0 .9-.8 1.7-1.8 1.7s-1.8-.8-1.8-1.7c0-.9.8-1.7 1.8-1.7m0 2.9c.7 0 1.3-.6 1.3-1.2 0-.7-.6-1.2-1.3-1.2-.7 0-1.3.6-1.3 1.2 0 .7.6 1.2 1.3 1.2M644.2 438.5c1 0 1.8.8 1.8 1.7 0 .9-.8 1.7-1.8 1.7s-1.8-.8-1.8-1.7c0-.9.8-1.7 1.8-1.7m1.4 1.8c0-.7-.6-1.2-1.3-1.2-.7 0-1.3.6-1.3 1.2 0 .7.6 1.2 1.3 1.2.7 0 1.3-.6 1.3-1.2M644.2 529.9c1 0 1.8.8 1.8 1.7 0 .9-.8 1.7-1.8 1.7s-1.8-.8-1.8-1.7c0-.9.8-1.7 1.8-1.7m1.4 1.7c0-.7-.6-1.2-1.3-1.2-.7 0-1.3.6-1.3 1.2 0 .7.6 1.2 1.3 1.2.7 0 1.3-.5 1.3-1.2M644.2 484.2c1 0 1.8.8 1.8 1.7 0 .9-.8 1.7-1.8 1.7s-1.8-.7-1.8-1.7c0-.9.8-1.7 1.8-1.7m1.4 1.7c0-.7-.6-1.2-1.3-1.2-.7 0-1.3.6-1.3 1.2 0 .7.6 1.2 1.3 1.2.7 0 1.3-.5 1.3-1.2M644.2 301.4c1 0 1.8.8 1.8 1.7 0 .9-.8 1.7-1.8 1.7s-1.8-.8-1.8-1.7c0-.9.8-1.7 1.8-1.7m1.4 1.7c0-.7-.6-1.2-1.3-1.2-.7 0-1.3.6-1.3 1.2 0 .7.6 1.2 1.3 1.2.7 0 1.3-.5 1.3-1.2M644.2 347.1c1 0 1.8.8 1.8 1.7 0 .9-.8 1.7-1.8 1.7s-1.8-.8-1.8-1.7c0-1 .8-1.7 1.8-1.7m1.4 1.7c0-.7-.6-1.2-1.3-1.2-.7 0-1.3.5-1.3 1.2s.6 1.2 1.3 1.2c.7 0 1.3-.6 1.3-1.2M594.7 392.8c1 0 1.8.8 1.8 1.7 0 .9-.8 1.7-1.8 1.7s-1.8-.8-1.8-1.7c0-1 .8-1.7 1.8-1.7m0 2.9c.7 0 1.4-.5 1.4-1.2s-.6-1.2-1.4-1.2c-.7 0-1.3.5-1.3 1.2 0 .6.6 1.2 1.3 1.2M594.7 441.4c.7 0 1.4-.5 1.4-1.2s-.6-1.2-1.4-1.2c-.7 0-1.3.6-1.3 1.2 0 .7.6 1.2 1.3 1.2m0-2.9c1 0 1.8.8 1.8 1.7 0 .9-.8 1.7-1.8 1.7s-1.8-.8-1.8-1.7c0-.9.8-1.7 1.8-1.7M594.7 487.1c.7 0 1.4-.5 1.4-1.2s-.6-1.2-1.4-1.2c-.7 0-1.3.5-1.3 1.2 0 .6.6 1.2 1.3 1.2m0-2.9c1 0 1.8.8 1.8 1.7 0 .9-.8 1.7-1.8 1.7s-1.8-.8-1.8-1.7c0-1 .8-1.7 1.8-1.7M596.1 531.6c0-.7-.6-1.2-1.4-1.2-.7 0-1.3.5-1.3 1.2s.6 1.2 1.3 1.2c.8 0 1.4-.6 1.4-1.2m-1.4-1.7c1 0 1.8.8 1.8 1.7 0 .9-.8 1.7-1.8 1.7s-1.8-.8-1.8-1.7c0-1 .8-1.7 1.8-1.7M545.2 441.4c.7 0 1.3-.5 1.3-1.2s-.6-1.2-1.3-1.2c-.7 0-1.3.6-1.3 1.2 0 .7.6 1.2 1.3 1.2m-1.8-1.2c0-.9.8-1.7 1.8-1.7s1.8.8 1.8 1.7c0 .9-.8 1.7-1.8 1.7s-1.8-.8-1.8-1.7M545.2 487.1c.7 0 1.3-.5 1.3-1.2s-.6-1.2-1.3-1.2c-.7 0-1.3.5-1.3 1.2 0 .6.6 1.2 1.3 1.2m-1.8-1.2c0-.9.8-1.7 1.8-1.7s1.8.8 1.8 1.7c0 .9-.8 1.7-1.8 1.7s-1.8-.8-1.8-1.7M545.2 532.8c.7 0 1.3-.6 1.3-1.2 0-.7-.6-1.2-1.3-1.2-.7 0-1.3.5-1.3 1.2 0 .6.6 1.2 1.3 1.2m-1.8-1.2c0-.9.8-1.7 1.8-1.7s1.8.8 1.8 1.7c0 .9-.8 1.7-1.8 1.7s-1.8-.8-1.8-1.7M495.7 441.4c.7 0 1.3-.5 1.3-1.2s-.6-1.2-1.3-1.2c-.7 0-1.3.6-1.3 1.2 0 .7.6 1.2 1.3 1.2m1.9-1.2c0 .9-.8 1.7-1.8 1.7s-1.8-.8-1.8-1.7c0-.9.8-1.7 1.8-1.7.9 0 1.8.8 1.8 1.7M495.7 487.1c.7 0 1.3-.5 1.3-1.2s-.6-1.2-1.3-1.2c-.7 0-1.3.5-1.3 1.2 0 .6.6 1.2 1.3 1.2m1.9-1.2c0 .9-.8 1.7-1.8 1.7s-1.8-.8-1.8-1.7c0-.9.8-1.7 1.8-1.7.9 0 1.8.7 1.8 1.7M495.7 532.8c.7 0 1.3-.6 1.3-1.2 0-.7-.6-1.2-1.3-1.2-.7 0-1.3.5-1.3 1.2 0 .6.6 1.2 1.3 1.2m1.9-1.2c0 .9-.8 1.7-1.8 1.7s-1.8-.8-1.8-1.7c0-.9.8-1.7 1.8-1.7.9 0 1.8.7 1.8 1.7M444.3 440.2c0-.9.8-1.7 1.9-1.7 1 0 1.8.8 1.8 1.7 0 .9-.8 1.7-1.8 1.7-1.1 0-1.9-.8-1.9-1.7m3.2 0c0-.7-.6-1.2-1.3-1.2-.7 0-1.3.6-1.3 1.2 0 .7.6 1.2 1.3 1.2.7 0 1.3-.5 1.3-1.2M444.3 485.9c0-.9.8-1.7 1.9-1.7 1 0 1.8.8 1.8 1.7 0 .9-.8 1.7-1.8 1.7-1.1 0-1.9-.8-1.9-1.7m3.2 0c0-.7-.6-1.2-1.3-1.2-.7 0-1.3.5-1.3 1.2s.6 1.2 1.3 1.2c.7 0 1.3-.6 1.3-1.2M444.3 531.6c0-.9.8-1.7 1.8-1.7s1.8.8 1.8 1.7c0 .9-.8 1.7-1.8 1.7s-1.8-.8-1.8-1.7m.5 0c0 .7.6 1.2 1.3 1.2.7 0 1.3-.6 1.3-1.2 0-.7-.6-1.2-1.3-1.2-.7-.1-1.3.5-1.3 1.2M396.6 395.7c.7 0 1.3-.6 1.3-1.2 0-.7-.6-1.2-1.3-1.2-.7 0-1.3.6-1.3 1.2 0 .7.6 1.2 1.3 1.2m-1.9-1.2c0-.9.8-1.7 1.8-1.7s1.8.8 1.8 1.7c0 .9-.8 1.7-1.8 1.7-.9 0-1.8-.8-1.8-1.7M396.6 441.5c.7 0 1.3-.5 1.3-1.2s-.6-1.2-1.3-1.2c-.7 0-1.3.6-1.3 1.2s.6 1.2 1.3 1.2m-1.9-1.2c0-.9.8-1.7 1.8-1.7s1.8.8 1.8 1.7c0 .9-.8 1.7-1.8 1.7-.9 0-1.8-.8-1.8-1.7M396.6 487.1c.7 0 1.3-.6 1.3-1.2 0-.7-.6-1.2-1.3-1.2-.7 0-1.3.6-1.3 1.2 0 .7.6 1.2 1.3 1.2m-1.9-1.2c0-.9.8-1.7 1.8-1.7s1.8.8 1.8 1.7c0 .9-.8 1.7-1.8 1.7-.9 0-1.8-.8-1.8-1.7M396.6 532.8c.7 0 1.3-.6 1.3-1.2 0-.7-.6-1.2-1.3-1.2-.7 0-1.3.6-1.3 1.2 0 .7.6 1.2 1.3 1.2m0 .5c-1 0-1.8-.8-1.8-1.7 0-.9.8-1.7 1.8-1.7s1.8.8 1.8 1.7c0 1-.8 1.7-1.8 1.7M347.1 395.7c.7 0 1.3-.6 1.3-1.2 0-.7-.6-1.2-1.3-1.2-.7 0-1.3.6-1.3 1.2-.1.7.5 1.2 1.3 1.2m1.8-1.2c0 .9-.8 1.7-1.8 1.7s-1.8-.8-1.8-1.7c0-.9.8-1.7 1.8-1.7s1.8.8 1.8 1.7M347.1 441.5c.7 0 1.3-.5 1.3-1.2s-.6-1.2-1.3-1.2c-.7 0-1.3.6-1.3 1.2-.1.6.5 1.2 1.3 1.2m1.8-1.2c0 .9-.8 1.7-1.8 1.7s-1.8-.8-1.8-1.7c0-.9.8-1.7 1.8-1.7 1-.1 1.8.7 1.8 1.7M348.9 485.9c0 .9-.8 1.7-1.8 1.7s-1.8-.7-1.8-1.7c0-.9.8-1.7 1.8-1.7s1.8.8 1.8 1.7m-1.8 1.2c.7 0 1.3-.6 1.3-1.2 0-.7-.6-1.2-1.3-1.2-.7 0-1.3.6-1.3 1.2-.1.7.5 1.2 1.3 1.2M348.9 531.6c0 .9-.8 1.7-1.8 1.7s-1.8-.8-1.8-1.7c0-.9.8-1.7 1.8-1.7s1.8.8 1.8 1.7m-1.8 1.2c.7 0 1.3-.6 1.3-1.2 0-.7-.6-1.2-1.3-1.2-.7 0-1.3.6-1.3 1.2-.1.7.5 1.2 1.3 1.2M297.5 484.2c1 0 1.9.8 1.9 1.7 0 .9-.8 1.7-1.9 1.7-1 0-1.8-.7-1.8-1.7 0-.9.8-1.7 1.8-1.7m0 2.9c.7 0 1.4-.6 1.4-1.2 0-.7-.6-1.2-1.4-1.2-.7 0-1.3.6-1.3 1.2 0 .7.6 1.2 1.3 1.2M297.5 529.9c1 0 1.9.8 1.9 1.7 0 .9-.8 1.7-1.9 1.7-1 0-1.8-.8-1.8-1.7 0-.9.8-1.7 1.8-1.7m0 2.9c.7 0 1.4-.6 1.4-1.2 0-.7-.6-1.2-1.4-1.2-.7 0-1.3.6-1.3 1.2 0 .7.6 1.2 1.3 1.2M297.5 395.7c.7 0 1.4-.6 1.4-1.2 0-.7-.6-1.2-1.4-1.2-.7 0-1.3.6-1.3 1.2 0 .7.6 1.2 1.3 1.2m0-2.9c1 0 1.9.8 1.9 1.7 0 .9-.8 1.7-1.9 1.7-1 0-1.8-.8-1.8-1.7 0-.9.8-1.7 1.8-1.7M297.5 438.5c1 0 1.9.8 1.9 1.7 0 .9-.8 1.7-1.9 1.7-1 0-1.8-.8-1.8-1.7 0-.9.8-1.7 1.8-1.7m0 3c.7 0 1.4-.5 1.4-1.2s-.6-1.2-1.4-1.2c-.7 0-1.3.6-1.3 1.2s.6 1.2 1.3 1.2M246.6 485.9c0 .7.6 1.2 1.3 1.2.7 0 1.3-.6 1.3-1.2 0-.7-.6-1.2-1.3-1.2-.6 0-1.3.5-1.3 1.2m-.5 0c0-.9.8-1.7 1.8-1.7s1.8.8 1.8 1.7c0 .9-.8 1.7-1.8 1.7-.9 0-1.8-.8-1.8-1.7M246.1 531.6c0-.9.8-1.7 1.8-1.7s1.8.8 1.8 1.7c0 .9-.8 1.7-1.8 1.7-.9 0-1.8-.8-1.8-1.7m3.2 0c0-.7-.6-1.2-1.3-1.2-.7 0-1.3.6-1.3 1.2 0 .7.6 1.2 1.3 1.2.7 0 1.3-.5 1.3-1.2M246.1 440.3c0-.9.8-1.7 1.8-1.7s1.8.8 1.8 1.7c0 .9-.8 1.7-1.8 1.7-.9 0-1.8-.8-1.8-1.7m.5 0c0 .7.6 1.2 1.3 1.2.7 0 1.3-.5 1.3-1.2s-.6-1.2-1.3-1.2c-.6-.1-1.3.5-1.3 1.2M198.5 441.5c.7 0 1.3-.5 1.3-1.2s-.6-1.2-1.3-1.2c-.7 0-1.3.6-1.3 1.2s.6 1.2 1.3 1.2m1.9-1.2c0 .9-.8 1.7-1.8 1.7s-1.8-.8-1.8-1.7c0-.9.8-1.7 1.8-1.7.9-.1 1.8.7 1.8 1.7M198.5 487.1c.7 0 1.3-.6 1.3-1.2 0-.7-.6-1.2-1.3-1.2-.7 0-1.3.6-1.3 1.2 0 .7.6 1.2 1.3 1.2m1.9-1.2c0 .9-.8 1.7-1.8 1.7s-1.8-.7-1.8-1.7c0-.9.8-1.7 1.8-1.7.9 0 1.8.8 1.8 1.7M198.5 529.9c1 0 1.8.8 1.8 1.7 0 .9-.8 1.7-1.8 1.7s-1.8-.8-1.8-1.7c0-.9.8-1.7 1.8-1.7m0 2.9c.7 0 1.3-.6 1.3-1.2 0-.7-.6-1.2-1.3-1.2-.7 0-1.3.6-1.3 1.2 0 .7.6 1.2 1.3 1.2M149 392.8c1 0 1.8.8 1.8 1.7 0 .9-.8 1.7-1.8 1.7s-1.8-.8-1.8-1.7c0-.9.8-1.7 1.8-1.7m0 2.9c.7 0 1.3-.6 1.3-1.2 0-.7-.6-1.2-1.3-1.2-.7 0-1.3.6-1.3 1.2-.1.7.5 1.2 1.3 1.2M150.3 440.3c0-.7-.6-1.2-1.3-1.2-.7 0-1.3.6-1.3 1.2 0 .7.6 1.2 1.3 1.2.7 0 1.3-.6 1.3-1.2m.5 0c0 .9-.8 1.7-1.8 1.7s-1.8-.8-1.8-1.7c0-.9.8-1.7 1.8-1.7 1-.1 1.8.7 1.8 1.7M150.3 485.9c0-.7-.6-1.2-1.3-1.2-.7 0-1.3.6-1.3 1.2 0 .7.6 1.2 1.3 1.2.7 0 1.3-.5 1.3-1.2m-1.3-1.7c1 0 1.8.8 1.8 1.7 0 .9-.8 1.7-1.8 1.7s-1.8-.7-1.8-1.7c0-.9.8-1.7 1.8-1.7M150.3 531.6c0-.7-.6-1.2-1.3-1.2-.7 0-1.3.6-1.3 1.2 0 .7.6 1.2 1.3 1.2.7 0 1.3-.5 1.3-1.2m-1.3-1.7c1 0 1.8.8 1.8 1.7 0 .9-.8 1.7-1.8 1.7s-1.8-.8-1.8-1.7c0-.9.8-1.7 1.8-1.7M101.3 394.5c0 .9-.8 1.7-1.8 1.7s-1.8-.8-1.8-1.7c0-.9.8-1.7 1.8-1.7s1.8.8 1.8 1.7m-.5 0c0-.7-.6-1.2-1.3-1.2-.7 0-1.3.6-1.3 1.2 0 .7.6 1.2 1.3 1.2.7 0 1.3-.5 1.3-1.2M100.8 440.3c0-.7-.6-1.2-1.3-1.2-.7 0-1.3.6-1.3 1.2 0 .7.6 1.2 1.3 1.2.7 0 1.3-.6 1.3-1.2m.5 0c0 .9-.8 1.7-1.8 1.7s-1.8-.8-1.8-1.7c0-.9.8-1.7 1.8-1.7 1-.1 1.8.7 1.8 1.7M97.6 485.9c0-.9.8-1.7 1.8-1.7s1.8.8 1.8 1.7c0 .9-.8 1.7-1.8 1.7s-1.8-.8-1.8-1.7m3.2 0c0-.7-.6-1.2-1.3-1.2-.7 0-1.3.6-1.3 1.2 0 .7.6 1.2 1.3 1.2.7 0 1.3-.5 1.3-1.2M97.6 531.6c0-.9.8-1.7 1.8-1.7s1.8.8 1.8 1.7c0 .9-.8 1.7-1.8 1.7s-1.8-.7-1.8-1.7m1.9 1.2c.7 0 1.3-.6 1.3-1.2 0-.7-.6-1.2-1.3-1.2-.7 0-1.3.6-1.3 1.2-.1.7.5 1.2 1.3 1.2M99.5 347.5c-.7 0-1.3.5-1.3 1.2s.6 1.2 1.3 1.2c.7 0 1.3-.5 1.3-1.2 0-.6-.6-1.2-1.3-1.2m1.8 1.3c0 .9-.8 1.7-1.8 1.7s-1.8-.8-1.8-1.7c0-.9.8-1.7 1.8-1.7s1.8.7 1.8 1.7M49.9 487.1c.7 0 1.3-.6 1.3-1.2 0-.7-.6-1.2-1.3-1.2-.7 0-1.3.6-1.3 1.2 0 .7.6 1.2 1.3 1.2m1.8-1.2c0 .9-.8 1.7-1.8 1.7s-1.8-.7-1.8-1.7c0-.9.8-1.7 1.8-1.7s1.8.8 1.8 1.7M49.9 532.8c.7 0 1.3-.6 1.3-1.2 0-.7-.6-1.2-1.3-1.2-.7 0-1.3.6-1.3 1.2 0 .7.6 1.2 1.3 1.2m1.8-1.2c0 .9-.8 1.7-1.8 1.7s-1.8-.8-1.8-1.7c0-.9.8-1.7 1.8-1.7s1.8.8 1.8 1.7M49.9 301.4c1 0 1.8.8 1.8 1.7 0 .9-.8 1.7-1.8 1.7s-1.8-.8-1.8-1.7c0-.9.8-1.7 1.8-1.7m0 2.9c.7 0 1.3-.6 1.3-1.2 0-.7-.6-1.2-1.3-1.2-.7 0-1.3.6-1.3 1.2 0 .7.6 1.2 1.3 1.2M51.7 348.8c0 .9-.8 1.7-1.8 1.7s-1.8-.8-1.8-1.7c0-.9.8-1.7 1.8-1.7s1.8.7 1.8 1.7m-1.8 1.2c.7 0 1.3-.5 1.3-1.2s-.6-1.2-1.3-1.2c-.7 0-1.3.5-1.3 1.2 0 .6.6 1.2 1.3 1.2M49.9 395.7c.7 0 1.3-.6 1.3-1.2 0-.7-.6-1.2-1.3-1.2-.7 0-1.3.6-1.3 1.2 0 .7.6 1.2 1.3 1.2m1.8-1.2c0 .9-.8 1.7-1.8 1.7s-1.8-.8-1.8-1.7c0-.9.8-1.7 1.8-1.7s1.8.8 1.8 1.7M49.9 441.5c.7 0 1.3-.5 1.3-1.2s-.6-1.2-1.3-1.2c-.7 0-1.3.6-1.3 1.2s.6 1.2 1.3 1.2m1.8-1.2c0 .9-.8 1.7-1.8 1.7s-1.8-.8-1.8-1.7c0-.9.8-1.7 1.8-1.7 1-.1 1.8.7 1.8 1.7"/><path class="st2" d="M1032.6 402.8c-37.7 35.5-86.5 55.7-127.3 52.7-27.8-2.1-50.3-14.2-67.1-36.1-23-30.1-36-88.9-48.7-145.8-16.7-75.4-32.5-146.7-71.4-146.7-33 0-51 56.2-71.8 121.2-13.9 43.5-28.3 88.4-47.9 116-21.7 30.7-61.9 45.6-122.8 45.6-34.1 0-53.5-12.3-72.2-24.2-16.3-10.4-31.6-20.1-54.7-20.1-20 0-38.2 9.9-57.3 20.4-20.6 11.3-42 22.9-67.3 22.9-39 0-67.4-18.6-84.4-55.3-16.2-34.9-35-68.2-86.4-90.6-14.5-6.3-31.9-8.5-53.4-6.9v6.2c.5 0 1.1-.1 1.5-.1 19.9-1.3 35.9.7 49.1 6.5 49.2 21.5 67.4 53.6 83 87.4 17.9 38.7 49.3 59.2 90.6 59.2 27.2 0 49.3-12.1 70.7-23.8 18.4-10 35.7-19.5 53.9-19.5 20.9 0 34.8 8.8 50.8 19 18.7 11.9 39.8 25.3 76.1 25.3 63.4 0 105.5-15.8 128.5-48.4 20.1-28.4 34.6-73.8 48.7-117.7 18.4-57.4 37.4-116.7 65.3-116.7 33.3 0 49.3 72 64.7 141.7 12.7 57.5 25.9 116.9 49.8 148.1 17.7 23.2 42.6 36.6 72.1 38.8 2.9.2 5.8.3 8.7.3 40.8 0 87.5-20.5 124-54.8 55.5-52.2 150.7-147.1 151.8-148.3v-10c-1 .7-101.2 101.5-156.6 153.7"/><path class="st0" d="M1189.2 225.2c-1.9 1.9-101.9 102.5-157.7 153.9-20.6 19-74 62.7-124.9 57.1-23.8-2.6-43.8-15.9-59.4-39.4-16.7-25.2-26.6-70.8-37.1-119.2-11.3-52.3-22.9-105.8-43.9-137.8 0-.1-.1-.2-.1-.3v.1C754 121.3 738.8 110 718.8 110c-46.7 0-68.8 68.3-90.2 134.3-12.3 37.9-23.8 73.6-39.6 97.4-31 46.7-63.1 50.2-108.5 50.2-31.2 0-51.3-12.2-70.7-23.9-18.2-11.1-35.5-21.5-60.6-21.5-19.4 0-39.4 10.5-60.6 21.7-21.4 11.3-43.5 23-65.2 23-23.1 0-38.7-7-51.2-20.4-.2-.3-.4-.7-.6-1v.3c-9-9.9-16.4-23.2-23.9-39.6-19-41.5-42.3-63.9-89.4-85.4-20-9.1-49.4-7.8-58.3-7.2V259c.4 0 .8-.1 1.1-.1 20.3-1.4 36.8.4 49.5 6 46.8 20.4 67 48.2 84.5 86.5 19 41.8 46.7 60.4 89.7 60.4 25.7 0 47.2-11.7 68-23.1 18.9-10.3 36.7-20.1 56.1-20.1 22.6 0 36.4 8.9 52.3 19.3 18 11.7 38.4 24.9 74.5 24.9 63.3 0 105.1-16.1 127.8-49.2 18.1-26.4 31.5-69.1 44.4-110.4 19-60.6 38.6-123.2 70.2-123.2 36.4 0 53.5 76.7 70 150.9 12.5 56.3 24.4 109.5 45.1 137.5 18.1 24.4 43.1 38.5 72.4 40.9 3 .2 6 .4 9 .4 39.7 0 84.7-20.3 122.1-55.6 55.2-52 150.5-147.4 152.6-149.5v-29.4zm-1166.1 24c-5.9-.4-12.2-.4-19 0V240c4.7-.2 11.4-.4 19 0v9.2zm49.5 15.9c-5.5-3-11.3-5.9-17.6-8.6-8.2-3.6-17.3-5.9-27.8-6.9v-9.3c10.1.8 21.1 2.7 30 6.8 5.4 2.5 10.5 5 15.4 7.5v10.5zm49.6 43.3c-11.5-15.8-25.7-29.3-45.6-41v-10.7c19.3 10.6 33.8 22 45.6 36.3v15.4zm49.5 77.4c-10.8-8.8-19.6-21.3-27.2-38-5.5-12.1-11.4-23.3-18.1-33.5v-16c7.1 9.6 13.3 20.4 19.1 33 8.1 17.9 16.2 32.1 26.3 42.4v12.1zm49.5 16.6c-18.2-.5-33.1-4.8-45.5-13.5v-11.3c11.5 10.1 25.8 15.5 45.5 15.8v9zm49.6-12.9c-14.3 7.1-29.2 12.8-45.5 12.9v-9.1c15.2-.4 30.5-6.2 45.5-13.5v9.7zm49.6-24.7c-11.3 4.1-22.2 10.1-32.9 15.9-4.2 2.3-8.3 4.5-12.6 6.7v-9.5c5-2.5 10-5.1 15-7.7 10.4-5.5 20.6-10.9 30.5-14.8v9.4zm49.4-2.9c-6.3-1.6-13.3-2.6-21.1-2.6-8.4 0-16.5 1.6-24.3 4.1v-9.7c8.4-3.1 16.7-5 24.8-5 7.5 0 14.3 1 20.6 2.6v10.6zm49.6 26.2c-4.3-2.5-8.4-5.2-12.4-7.8-10.1-6.5-20.3-13.2-33.1-17.2v-10.5c12.5 4 23.3 10.5 34.4 17.3 3.6 2.2 7.3 4.4 11 6.6v11.6zm49.5 15.2c-19.4-1-33.4-6.3-45.4-12.9v-11.7c12.9 7.1 27.2 13.1 45.4 14.9v9.7zm49.5-2.8c-12.8 2-27 3-42.8 3-.9 0-1.8 0-2.7-.1v-9.5c2.4.2 4.9.3 7.5.3 13.7 0 26.3-.3 37.9-2v8.3zm49.6-16.7c-12.4 7.5-27.5 12.8-45.5 16v-8.3c16.6-2.9 31.4-9 45.5-21.4v13.7zm49.4-71.5c-6.9 18-14.2 34.1-22.6 46.3-6.1 8.9-13.6 16.4-22.7 22.6v-14.8c6.5-6.3 12.8-14 19.1-23.5 10.1-15.1 18.4-35 26.3-57.1v26.5zm49.5-159.6v16.7c-10.6 23-19.6 51.8-28.9 81.3-5.3 17.1-10.8 34.3-16.5 50.6V274c3.2-9.4 6.3-19.1 9.5-29 10.8-33.4 21.8-67.4 36-92.6 0 .1 0 .2-.1.3m49.8-32c-19 .7-33.4 16.5-45.6 40.3v-15.2c12.3-19.5 26.9-32.3 45.6-33.2v8.1zm49.4 44c-11.5-26-25.9-43-46-44v-8.3c19.5.5 34.3 12.6 46 31.8v20.5zm49.6 187.2c-6.5-22.6-12.1-47.9-17.6-72.9-8.5-38.3-16.8-75.6-27.9-104.4v-23.2c17 32.1 27.3 79.8 37.5 126.6 2.7 12.4 5.3 24.6 8 36.3v37.6zm49.6 84.1c-8.8-5.9-16.7-13.5-23.7-22.9-8.5-11.4-15.5-28.1-21.8-47.7v-33.9S834.4 382 845 398c6.1 9.2 12.9 16.8 20.3 23v15zm49.4 14.3c-2.8 0-5.6-.1-8.3-.3-13.6-1.1-26-4.9-37-11.4v-14.4c11 8.1 23.4 12.9 37 14.4 2.8.3 5.6.4 8.4.5v11.2zm49.5-10.2c-15.4 6.1-30.8 9.6-45.4 10.2V439c15.5-.5 30.9-4.9 45.4-11.3v12.4zm49.5-29c-14.6 11.5-30 20.7-45.4 27.3v-12.5c17.3-8.1 33-18.7 45.4-28.4v13.6zm49.6-46c-12.3 11.9-23.9 23-33.9 32.5-3.8 3.6-7.7 7-11.6 10.2v-13.6c6.3-5 11.6-9.7 15.6-13.4 9.1-8.3 19.2-18 29.9-28.2v12.5zm49.4-48.4c-14.9 14.7-30.5 30-45.3 44.4v-12.5c14.8-14.2 30.4-29.4 45.3-44v12.1zm49.5-49.1c-12.6 12.5-28.5 28.3-45.5 45.1v-12.1c17-16.7 32.9-32.5 45.5-45v12zm4.1-4.1v-11.9l18.9-18.9v11.9c-3.9 4-10.5 10.6-18.9 18.9"/></svg>