<svg id="Layer_1" xmlns="http://www.w3.org/2000/svg" viewBox="0 0 300 600"><style>.st0{fill:#231f20}</style><path class="st0" d="M26.6 62.5v-17h9.7v3.4h-5.7v3.3h4.7v3.5h-4.7v3.4h6.5v3.4H26.6zM42.7 62.8c-1.6 0-2.8-.3-3.8-.9l-.3-3.5c1.1.7 2.4 1.3 3.8 1.3.7 0 1.2-.4 1.2-.8 0-.5-.4-.7-1.1-.9-2.3-.7-3.7-1.8-3.7-3.9 0-2.4 1.9-3.9 4.5-3.9 1.5 0 3 .4 3.6.7l-.7 2.9c-.6-.3-1.5-.7-2.5-.7-.6 0-1.1.3-1.1.8s.3.7 1.1.9c2.7.7 3.8 2.1 3.8 4.1 0 2-1.5 3.9-4.8 3.9zM56.3 62.9c-1.3 0-2.6-.4-3.1-.8v6.6h-3.8V50.5h3.4V52c.7-1.2 2-1.8 3.7-1.8 3 0 5.8 2.2 5.8 6.4.1 3.8-2.7 6.3-6 6.3zm-.7-9.4c-1.1 0-1.9.6-2.4 1.2v3.8c.4.5 1.2 1.1 2.4 1.1 1.7 0 2.9-1.3 2.9-3s-1.2-3.1-2.9-3.1zM75.4 55.8l-1.7 1.8h-5.9c.2 1 1.5 2.1 3.6 2.1 1.2 0 2.5-.4 3.3-.9l-.4 3.3c-.9.5-2.3.8-3.8.8-3.7 0-6.6-2.6-6.6-6.5s2.8-6.4 6.3-6.4c3.3 0 5.4 2.3 5.4 4.8-.1.4-.2.8-.2 1zM70.1 53c-1.1 0-2.1.9-2.3 2h4.1v-.3c-.1-.8-.8-1.7-1.8-1.7zM86.5 54.4c-.8-.5-1.6-.8-2.6-.8-1.7 0-3.1 1.2-3.1 3 0 1.7 1.4 3 3.1 3 1 0 1.8-.2 2.6-.7l-.3 3.3c-.8.4-1.8.6-3 .6-3.4 0-6.5-2.4-6.5-6.3s3.2-6.3 6.4-6.3c1.6 0 2.9.3 4 .9l-.6 3.3zM91.1 48.8c-.7 0-2.1-1.4-2.1-2.1s1.4-2.1 2.1-2.1c.7 0 2.1 1.4 2.1 2.1s-1.4 2.1-2.1 2.1zm-1.9 13.7v-12h3.9v12h-3.9zM104.1 63.1c-.7-.2-1.5-.7-1.9-1.6-.5 1-1.7 1.5-3.1 1.5-2.1 0-4-1.5-4-4 0-2.2 1.7-3.7 4.1-3.9l2.4-.2v-.4c0-.7-.6-1.2-1.9-1.2-1.2 0-2.5.4-3.3.9l-.7-3c1-.6 2.6-1.1 4.2-1.1 3.2 0 5.4 1.5 5.4 4.4v3.9c0 1.4.5 2.2 1.5 2.5l-2.7 2.2zm-2.5-5.8l-1.5.1c-1 .1-1.5.8-1.5 1.5 0 .6.5 1.2 1.2 1.2.9 0 1.7-.7 1.7-1.8v-1zM112.2 63c-2.5-.1-4.1-1.4-4.1-4.3V43.6h3.9v14.6c0 1 .6 1.5 1.6 1.6l-1.4 3.2zM119.3 63c-2.5-.1-4.1-1.4-4.1-4.3V43.6h3.9v14.6c0 1 .6 1.5 1.6 1.6l-1.4 3.2zM129.1 61.3c-1.8 4.8-3.7 6.6-6 7.5l-2.4-2.4c1.9-.7 3.4-2.2 4.4-4.7l-4.3-11.2h3.8l1.8 4.7c.3.7.5 1.5.7 2.4h.1c.2-.8.5-1.7.8-2.4l1.8-4.7h3.6l-4.3 10.8zM153.9 62.6h-2.7l-1.6-4.8c-.2-.7-.5-1.6-.7-2.5h-.1c-.2.9-.4 1.8-.7 2.5l-1.6 4.8H144l-4.2-12.1h3.6l1.5 4.6c.2.7.5 1.5.6 2.3h.1c.1-.7.3-1.6.6-2.3l1.5-4.6h3l1.5 4.5c.2.7.4 1.6.6 2.3h.1c.2-.8.4-1.6.6-2.3l1.5-4.5h3.3l-4.4 12.1zM167.2 62.5v-7.4c0-.9-.6-1.6-1.8-1.6-1.2 0-1.9.7-1.9 1.7v7.3h-3.9V43.6h3.9v8c.6-.9 1.7-1.5 3.4-1.5 2.7 0 4.2 1.5 4.2 4v8.4h-3.9zM184.6 55.8l-1.7 1.8H177c.2 1 1.5 2.1 3.6 2.1 1.2 0 2.5-.4 3.3-.9l-.4 3.3c-.9.5-2.3.8-3.8.8-3.7 0-6.6-2.6-6.6-6.5s2.8-6.4 6.3-6.4c3.3 0 5.4 2.3 5.4 4.8-.1.4-.2.8-.2 1zm-5.3-2.8c-1.1 0-2.1.9-2.3 2h4.1v-.3c-.1-.8-.8-1.7-1.8-1.7zM194.2 62.5v-7.4c0-.9-.6-1.6-1.8-1.6-1.2 0-1.9.7-1.9 1.7v7.3h-3.9v-12h3.6v1.6c.5-1.3 1.7-2 3.7-2 2.6 0 4.2 1.5 4.2 4v8.4h-3.9zM208.6 48.8c-.7 0-2.1-1.4-2.1-2.1s1.4-2.1 2.1-2.1 2.1 1.4 2.1 2.1-1.4 2.1-2.1 2.1zm-2 13.7v-12h3.9v12h-3.9zM221.1 53.7H218v4.5c0 1 .6 1.5 1.6 1.5.5 0 .7 0 1-.2l-.3 3c-.4.2-1 .3-1.8.3-2.7 0-4.3-1.4-4.3-3.8v-5.2h-2v-3.2h2V48l3.9-1.4v4h3.9l-.9 3.1z"/><g><path class="st0" d="M35.6 80.9c-.8-.5-1.6-.8-2.6-.8-1.7 0-3.1 1.2-3.1 3 0 1.7 1.4 3 3.1 3 1 0 1.8-.2 2.6-.7l-.3 3.3c-.8.4-1.8.6-3 .6-3.4 0-6.5-2.4-6.5-6.3s3.2-6.3 6.4-6.3c1.6 0 2.9.3 4 .9l-.6 3.3zM44.1 89.5c-3.6 0-6.6-2.6-6.6-6.4s2.9-6.4 6.6-6.4c3.6 0 6.6 2.6 6.6 6.4s-3 6.4-6.6 6.4zm0-9.4c-1.5 0-2.7 1.3-2.7 3.1s1.2 3.1 2.7 3.1c1.4 0 2.7-1.3 2.7-3.1 0-1.9-1.3-3.1-2.7-3.1zM67.5 89.1v-7.4c0-.9-.4-1.6-1.7-1.6-1.2 0-1.8.7-1.8 1.7v7.3h-4v-7.4c0-.9-.4-1.6-1.7-1.6-1.2 0-1.8.7-1.8 1.7v7.3h-3.9v-12h3.6v1.6c.5-1.3 1.7-2 3.6-2 1.7 0 3 .7 3.6 2 .5-1.2 1.9-2 3.7-2 2.7 0 4.3 1.5 4.3 4v8.4h-3.9zM84.9 82.4l-1.7 1.8h-5.9c.2 1 1.5 2.1 3.6 2.1 1.2 0 2.5-.4 3.3-.9l-.4 3.3c-.9.5-2.3.8-3.8.8-3.7 0-6.6-2.6-6.6-6.5s2.8-6.4 6.3-6.4c3.3 0 5.4 2.3 5.4 4.8-.1.4-.2.8-.2 1zm-5.3-2.8c-1.1 0-2.1.9-2.3 2h4.1v-.3c0-.8-.8-1.7-1.8-1.7zM90.8 89.4c-1.6 0-2.8-.3-3.8-.9l-.3-3.5c1.1.7 2.4 1.3 3.8 1.3.7 0 1.2-.4 1.2-.8 0-.5-.4-.7-1.1-.9-2.3-.7-3.7-1.8-3.7-3.9 0-2.4 1.9-3.9 4.5-3.9 1.5 0 3 .4 3.6.7l-.7 2.9c-.6-.3-1.5-.7-2.5-.7-.6 0-1.1.3-1.1.8s.3.7 1.1.9c2.7.7 3.8 2.1 3.8 4.1-.1 2-1.6 3.9-4.8 3.9zM111.4 80.3h-3.1v4.5c0 1 .6 1.5 1.6 1.5.5 0 .7 0 1-.2l-.3 3c-.4.2-1 .3-1.8.3-2.7 0-4.3-1.4-4.3-3.8v-5.2h-2v-3.2h2v-2.6l3.9-1.4v4h3.9l-.9 3.1zM119.3 89.5c-3.6 0-6.6-2.6-6.6-6.4s2.9-6.4 6.6-6.4c3.6 0 6.6 2.6 6.6 6.4s-3 6.4-6.6 6.4zm0-9.4c-1.5 0-2.7 1.3-2.7 3.1s1.2 3.1 2.7 3.1c1.4 0 2.7-1.3 2.7-3.1 0-1.9-1.2-3.1-2.7-3.1zM141.3 81.2c-.2-.1-.8-.3-1.2-.3-1.2 0-2.4.7-2.4 2.6v5.6h-3.9v-12h3.9v2.7c.4-1.9 1.8-2.9 3.4-2.9.4 0 .8.1 1.1.2l-.9 4.1zM154.3 82.4l-1.7 1.8h-5.9c.2 1 1.5 2.1 3.6 2.1 1.2 0 2.5-.4 3.3-.9l-.4 3.3c-.9.5-2.3.8-3.8.8-3.7 0-6.6-2.6-6.6-6.5s2.8-6.4 6.3-6.4c3.3 0 5.4 2.3 5.4 4.8-.1.4-.1.8-.2 1zm-5.3-2.8c-1.1 0-2.1.9-2.3 2h4.1v-.3c0-.8-.7-1.7-1.8-1.7zM164.5 80.3h-3.1v4.5c0 1 .6 1.5 1.6 1.5.5 0 .7 0 1-.2l-.3 3c-.4.2-1 .3-1.8.3-2.7 0-4.3-1.4-4.3-3.8v-5.2h-2v-3.2h2v-2.6l3.9-1.4v4h3.9l-.9 3.1zM168.7 75.4c-.7 0-2.1-1.4-2.1-2.1s1.4-2.1 2.1-2.1 2.1 1.4 2.1 2.1-1.4 2.1-2.1 2.1zm-2 13.7v-12h3.9v12h-3.9zM180.7 81.2c-.2-.1-.8-.3-1.2-.3-1.2 0-2.4.7-2.4 2.6v5.6h-3.9v-12h3.9v2.7c.4-1.9 1.8-2.9 3.4-2.9.4 0 .8.1 1.1.2l-.9 4.1zM193.8 82.4l-1.7 1.8h-5.9c.2 1 1.5 2.1 3.6 2.1 1.2 0 2.5-.4 3.3-.9l-.4 3.3c-.9.5-2.3.8-3.8.8-3.7 0-6.6-2.6-6.6-6.5s2.8-6.4 6.3-6.4c3.3 0 5.4 2.3 5.4 4.8-.1.4-.2.8-.2 1zm-5.3-2.8c-1.1 0-2.1.9-2.3 2h4.1v-.3c-.1-.8-.8-1.7-1.8-1.7zM210.6 89.1v-7.4c0-.9-.4-1.6-1.7-1.6-1.2 0-1.8.7-1.8 1.7v7.3h-3.9v-7.4c0-.9-.4-1.6-1.7-1.6-1.2 0-1.8.7-1.8 1.7v7.3h-3.9v-12h3.6v1.6c.5-1.3 1.7-2 3.6-2 1.7 0 3 .7 3.6 2 .5-1.2 1.9-2 3.7-2 2.7 0 4.3 1.5 4.3 4v8.4h-4zM228.1 82.4l-1.7 1.8h-5.9c.2 1 1.5 2.1 3.6 2.1 1.2 0 2.5-.4 3.3-.9l-.4 3.3c-.9.5-2.3.8-3.8.8-3.7 0-6.6-2.6-6.6-6.5s2.8-6.4 6.3-6.4c3.3 0 5.4 2.3 5.4 4.8-.1.4-.2.8-.2 1zm-5.3-2.8c-1.1 0-2.1.9-2.3 2h4.1v-.3c-.1-.8-.8-1.7-1.8-1.7zM237.7 89.1v-7.4c0-.9-.6-1.6-1.8-1.6-1.2 0-1.9.7-1.9 1.7v7.3h-3.9v-12h3.6v1.6c.5-1.3 1.7-2 3.7-2 2.6 0 4.2 1.5 4.2 4v8.4h-3.9zM252 80.3h-3.1v4.5c0 1 .6 1.5 1.6 1.5.5 0 .7 0 1-.2l-.3 3c-.4.2-1 .3-1.8.3-2.7 0-4.3-1.4-4.3-3.8v-5.2h-2v-3.2h2v-2.6l3.9-1.4v4h3.9l-.9 3.1z"/></g><g><path class="st0" d="M35 116.2c-.7-.2-1.5-.7-1.9-1.6-.5 1-1.7 1.5-3.1 1.5-2.1 0-4-1.5-4-4 0-2.2 1.7-3.7 4.1-3.9l2.4-.2v-.4c0-.7-.6-1.2-1.9-1.2-1.2 0-2.5.4-3.3.9l-.7-3c1-.6 2.6-1.1 4.2-1.1 3.2 0 5.4 1.5 5.4 4.4v3.9c0 1.4.5 2.2 1.5 2.5l-2.7 2.2zm-2.5-5.8l-1.5.1c-1 .1-1.5.8-1.5 1.5 0 .6.5 1.2 1.2 1.2.9 0 1.7-.7 1.7-1.8v-1zM47.9 107.5c-.8-.5-1.6-.8-2.6-.8-1.7 0-3.1 1.2-3.1 3 0 1.7 1.4 3 3.1 3 1 0 1.8-.2 2.6-.7l-.3 3.3c-.8.4-1.8.6-3 .6-3.4 0-6.5-2.4-6.5-6.3s3.2-6.3 6.4-6.3c1.6 0 2.9.3 4 .9l-.6 3.3zM59.5 107.5c-.8-.5-1.6-.8-2.6-.8-1.7 0-3.1 1.2-3.1 3 0 1.7 1.4 3 3.1 3 1 0 1.8-.2 2.6-.7l-.3 3.3c-.8.4-1.8.6-3 .6-3.4 0-6.5-2.4-6.5-6.3s3.2-6.3 6.4-6.3c1.6 0 2.9.3 4 .9l-.6 3.3zM68 116.1c-3.6 0-6.6-2.6-6.6-6.4s2.9-6.4 6.6-6.4c3.6 0 6.6 2.6 6.6 6.4s-3 6.4-6.6 6.4zm0-9.5c-1.5 0-2.7 1.3-2.7 3.1s1.2 3.1 2.7 3.1c1.4 0 2.7-1.3 2.7-3.1s-1.3-3.1-2.7-3.1zM84.4 115.7V114c-.5 1.3-1.8 2-3.7 2-2.6 0-4.2-1.5-4.2-4v-8.4h3.9v7.4c0 .9.6 1.6 1.8 1.6 1.2 0 1.9-.8 1.9-1.7v-7.3H88v12h-3.6zM98.1 115.7v-7.4c0-.9-.6-1.6-1.8-1.6-1.2 0-1.9.7-1.9 1.7v7.3h-3.9v-12h3.6v1.6c.5-1.3 1.7-2 3.7-2 2.6 0 4.2 1.5 4.2 4v8.4h-3.9zM112.4 106.8h-3.1v4.5c0 1 .6 1.5 1.6 1.5.5 0 .7 0 1-.2l-.3 3c-.4.2-1 .3-1.8.3-2.7 0-4.3-1.4-4.3-3.8v-5.2h-2v-3.2h2v-2.6l3.9-1.4v4h3.9l-.9 3.1zM118.3 115.9c-1.6 0-2.8-.3-3.8-.9l-.3-3.5c1.1.7 2.4 1.3 3.8 1.3.7 0 1.2-.4 1.2-.8 0-.5-.4-.7-1.1-.9-2.3-.7-3.7-1.8-3.7-3.9 0-2.4 1.9-3.9 4.5-3.9 1.5 0 3 .4 3.6.7l-.7 2.9c-.6-.3-1.5-.7-2.5-.7-.6 0-1.1.3-1.1.8s.3.7 1.1.9c2.7.7 3.8 2.1 3.8 4.1-.1 2.1-1.6 3.9-4.8 3.9zM126.8 116.1c-.7 0-2.2-1.5-2.2-2.2 0-.7 1.5-2.2 2.2-2.2.7 0 2.2 1.5 2.2 2.2 0 .7-1.5 2.2-2.2 2.2z"/></g></svg>