<svg xmlns="http://www.w3.org/2000/svg" width="300" height="600" viewBox="0 0 300 600"><path fill="#F9E038" d="M41.495 459.293s-14.71 0-14.71 14.71v4.896s0 14.71 14.71 14.71h157.51s14.71 0 14.71-14.71v-4.896s0-14.71-14.71-14.71H41.495z"/><path d="M63.595 480.385h-2.17v-9.306h3.92c.827 0 1.668.014 2.387.475.76.502 1.18 1.411 1.18 2.319 0 1.059-.61 2.035-1.614 2.401l1.723 4.11h-2.415l-1.424-3.676h-1.587v3.677zm0-5.277h1.194c.447 0 .936.04 1.329-.19.353-.217.542-.651.542-1.058 0-.366-.217-.76-.529-.95-.366-.23-.99-.176-1.397-.176h-1.139v2.374zM72.505 472.883v1.886h3.527v1.75h-3.527v2.062h4.477v1.804h-6.647v-9.306h6.647v1.804h-4.477zM85.866 480.385h-2.347l-.57-1.913h-3.012l-.583 1.913h-1.913l2.984-9.306h2.523l2.918 9.306zm-3.419-3.622l-.99-3.269-.99 3.269h1.98zM89.554 471.079c1.343 0 2.496.081 3.514 1.045 1.004.949 1.438 2.238 1.438 3.581 0 1.248-.379 2.455-1.207 3.391-.922 1.018-2.062 1.289-3.378 1.289h-3.065v-9.306h2.698zm-.529 7.556h.732c.909 0 1.492-.176 1.994-.99.366-.597.516-1.315.516-2.008 0-.732-.217-1.519-.665-2.103-.502-.651-1.058-.746-1.831-.746h-.746v5.847zM105.626 472.924h-2.333v7.461h-2.17v-7.461h-2.36v-1.845h6.864v1.845zM113.94 480.385h-2.171v-3.839h-2.875v3.839h-2.17v-9.306h2.17v3.636h2.875v-3.636h2.171v9.306zM117.872 472.883v1.886h3.527v1.75h-3.527v2.062h4.477v1.804h-6.647v-9.306h6.647v1.804h-4.477zM134.827 480.385h-2.347l-.57-1.913h-3.012l-.583 1.913h-1.913l2.984-9.306h2.523l2.918 9.306zm-3.419-3.622l-.99-3.269-.99 3.269h1.98zM138.054 480.385h-2.17v-9.306h3.92c.827 0 1.668.014 2.387.475.76.502 1.18 1.411 1.18 2.319 0 1.059-.61 2.035-1.614 2.401l1.723 4.11h-2.415l-1.424-3.676h-1.587v3.677zm0-5.277h1.194c.447 0 .936.04 1.329-.19.353-.217.542-.651.542-1.058 0-.366-.217-.76-.529-.95-.366-.23-.99-.176-1.397-.176h-1.139v2.374zM150.993 472.924h-2.333v7.461h-2.17v-7.461h-2.36v-1.845h6.864v1.845zM154.328 480.385h-2.17v-9.306h2.17v9.306zM161.436 474.688c-.014-1.031-.366-1.994-1.561-1.994-1.532 0-1.682 2.008-1.682 3.134 0 1.274.149 2.916 1.791 2.916 1.017 0 1.492-.854 1.614-1.75l2.116.136c-.231 2.13-1.696 3.392-3.84 3.392-2.767 0-4.109-2.252-4.109-4.788 0-2.578 1.383-4.789 4.178-4.789 2.333 0 3.526 1.356 3.771 3.595l-2.278.148zM170.997 478.54v1.845h-5.914v-9.306h2.17v7.461h3.744zM174.09 472.883v1.886h3.526v1.75h-3.526v2.062h4.477v1.804h-6.647v-9.306h6.647v1.804h-4.477z"/></svg>