<svg id="Layer_1" xmlns="http://www.w3.org/2000/svg" xmlns:xlink="http://www.w3.org/1999/xlink" viewBox="0 0 300 600"><style>.st0{opacity:.15;clip-path:url(#SVGID_2_)}.st1{clip-path:url(#SVGID_4_)}.st2{clip-path:url(#SVGID_6_);fill:#0a0f0f}.st3{clip-path:url(#SVGID_2_);fill:#fff}.st4{clip-path:url(#SVGID_8_);fill:url(#SVGID_9_)}.st5{clip-path:url(#SVGID_11_);fill:url(#SVGID_12_)}.st6{clip-path:url(#SVGID_14_);fill:url(#SVGID_15_)}.st7{clip-path:url(#SVGID_17_);fill:url(#SVGID_18_)}.st8{clip-path:url(#SVGID_20_);fill:url(#SVGID_21_)}.st10,.st11,.st12,.st13,.st9{opacity:.2;clip-path:url(#SVGID_23_)}.st10,.st11,.st12,.st13{opacity:.3}.st11,.st12,.st13{opacity:.1}.st12,.st13{opacity:.7}.st13{opacity:.4}.st14{fill:#fcd1b4}.st14,.st15,.st16{clip-path:url(#SVGID_59_)}.st15{fill:#fab98d}.st16{opacity:.2}.st17{clip-path:url(#SVGID_61_)}.st18{clip-path:url(#SVGID_63_);fill:#f8aa83}.st19{clip-path:url(#SVGID_65_)}.st20{clip-path:url(#SVGID_67_);fill:#f8aa83}.st21{clip-path:url(#SVGID_69_)}.st22{clip-path:url(#SVGID_71_);fill:#f8aa83}.st23{fill:#fff}.st23,.st24,.st25{clip-path:url(#SVGID_59_)}.st24{fill:#4b7196}.st25{opacity:.3}.st26{clip-path:url(#SVGID_73_)}.st27{clip-path:url(#SVGID_75_);fill:#3c5b64}.st28,.st29,.st30,.st31{clip-path:url(#SVGID_59_);fill:#ffd38f}.st29,.st30,.st31{fill:#334e63}.st30,.st31{fill:#764d25}.st31{fill:#3f4343}.st32{fill:#323b45}.st32,.st33,.st34{clip-path:url(#SVGID_59_)}.st33{fill:#f3f3f3}.st34{opacity:.1}.st35{clip-path:url(#SVGID_77_)}.st36{clip-path:url(#SVGID_79_);fill:#3c5b64}.st37{clip-path:url(#SVGID_81_)}.st38{clip-path:url(#SVGID_83_);fill:#2aaae1}.st39{clip-path:url(#SVGID_85_)}.st40{clip-path:url(#SVGID_87_);fill:#2aaae1}.st41{clip-path:url(#SVGID_89_)}.st42{clip-path:url(#SVGID_91_);fill:#2aaae1}.st43{fill:#b29b69}.st43,.st44,.st45{clip-path:url(#SVGID_59_)}.st44{fill:#473a2e}.st45{opacity:.7}.st46{clip-path:url(#SVGID_93_)}.st47{clip-path:url(#SVGID_95_);fill:#dcb294}.st48,.st49{clip-path:url(#SVGID_59_)}.st48{fill:#010101}.st49{opacity:.4}.st50{clip-path:url(#SVGID_97_)}.st51{clip-path:url(#SVGID_99_);fill:#323b45}.st52{clip-path:url(#SVGID_101_)}.st53{clip-path:url(#SVGID_103_);fill:#323b45}.st54{clip-path:url(#SVGID_105_)}.st55{clip-path:url(#SVGID_107_);fill:#dcb294}.st56{clip-path:url(#SVGID_109_)}.st57{clip-path:url(#SVGID_111_);fill:#323b45}.st58{clip-path:url(#SVGID_59_);fill:#86371c}.st59{clip-path:url(#SVGID_113_)}.st60{clip-path:url(#SVGID_115_);fill:#f8aa83}.st61{clip-path:url(#SVGID_117_)}.st62{clip-path:url(#SVGID_119_);fill:#f8aa83}.st63{clip-path:url(#SVGID_121_)}.st64{clip-path:url(#SVGID_123_);fill:#f8aa83}.st65{clip-path:url(#SVGID_125_)}.st66{clip-path:url(#SVGID_127_);fill:#3c5b64}.st67,.st68,.st69,.st70,.st71{opacity:.2;clip-path:url(#SVGID_129_)}.st68,.st69,.st70,.st71{opacity:.3}.st69,.st70,.st71{opacity:.1}.st70,.st71{opacity:.7}.st71{opacity:.4}.st72{fill:none}</style><defs><path id="SVGID_1_" d="M25.3 208h168v168h-168z"/></defs><clipPath id="SVGID_2_"><use xlink:href="#SVGID_1_" overflow="visible"/></clipPath><g class="st0"><defs><path id="SVGID_3_" d="M25.3 246.4h129.6V376H25.3z"/></defs><clipPath id="SVGID_4_"><use xlink:href="#SVGID_3_" overflow="visible"/></clipPath><g class="st1"><defs><path id="SVGID_5_" d="M25.3 246.4h129.6V376H25.3z"/></defs><clipPath id="SVGID_6_"><use xlink:href="#SVGID_5_" overflow="visible"/></clipPath><path class="st2" d="M154.9 362c-6.6 6.4-15.5 10.3-25.4 10.3H29V271.8c0-9.9 4-18.8 10.3-25.4l-3.6 3.6c-6.4 6.6-10.3 15.5-10.3 25.4V376h100.5c10 0 19-4 25.6-10.5l3.4-3.5z"/></g></g><path class="st3" d="M95.9 208c-12.2 0-23.8 4.8-32.6 13.6-8.7 8.7-13.6 20.2-13.6 32.4v97.6h97.5c25.4 0 46.1-20.7 46.1-46.1V208H95.9z"/><defs><path id="SVGID_7_" d="M95.9 213.9c-22.1 0-40.2 18.2-40.2 40.1v91.8h91.6c22.2 0 40.3-18.1 40.3-40.2V214H95.9z"/></defs><clipPath id="SVGID_8_"><use xlink:href="#SVGID_7_" overflow="visible"/></clipPath><linearGradient id="SVGID_9_" gradientUnits="userSpaceOnUse" x1="1.394" y1="601.262" x2="2.727" y2="601.262" gradientTransform="scale(139.5416 -139.5414) rotate(45 729.672 298.196)"><stop offset="0" stop-color="#9cdbf8"/><stop offset="1" stop-color="#009dda"/></linearGradient><path class="st4" d="M-10.3 279.8l131.8-131.9 131.9 131.9-131.9 131.9z"/><defs><path id="SVGID_10_" d="M147.2 351.6H49.7L29 372.4h100.5c9.9 0 18.8-4 25.4-10.3l15.3-15.3-.8-.8c-6.7 3.5-14.2 5.6-22.2 5.6"/></defs><clipPath id="SVGID_11_"><use xlink:href="#SVGID_10_" overflow="visible"/></clipPath><linearGradient id="SVGID_12_" gradientUnits="userSpaceOnUse" x1="3.907" y1="599.8" x2="5.24" y2="599.8" gradientTransform="matrix(0 -19.906 -19.906 0 12039.198 450.33)"><stop offset="0" stop-color="#10b0e6"/><stop offset=".159" stop-color="#0faae1"/><stop offset=".368" stop-color="#0c9ad2"/><stop offset=".604" stop-color="#077fba"/><stop offset=".858" stop-color="#015999"/><stop offset=".89" stop-color="#005494"/><stop offset="1" stop-color="#005494"/></linearGradient><path class="st5" d="M29 345.9h141.2v26.4H29z"/><g><defs><path id="SVGID_13_" d="M39.3 246.4C32.9 253 29 261.9 29 271.8v100.5l20.8-20.8V254c0-7.8 2-15.3 5.7-21.9l-.8-.8-15.4 15.1z"/></defs><clipPath id="SVGID_14_"><use xlink:href="#SVGID_13_" overflow="visible"/></clipPath><linearGradient id="SVGID_15_" gradientUnits="userSpaceOnUse" x1="1.542" y1="600.91" x2="2.875" y2="600.91" gradientTransform="matrix(0 -106.3499 -106.35 0 63948.965 537.469)"><stop offset="0" stop-color="#0081bd"/><stop offset=".393" stop-color="#006fac"/><stop offset=".85" stop-color="#005494"/><stop offset="1" stop-color="#005494"/></linearGradient><path class="st6" d="M29 231.2h26.4v141.2H29z"/></g><g><defs><path id="SVGID_16_" d="M147.2 351.6H49.7L29 372.4h100.5c9.9 0 18.8-4 25.4-10.3l15.3-15.3-.8-.8c-6.7 3.5-14.2 5.6-22.2 5.6"/></defs><clipPath id="SVGID_17_"><use xlink:href="#SVGID_16_" overflow="visible"/></clipPath><linearGradient id="SVGID_18_" gradientUnits="userSpaceOnUse" x1="1.061" y1="601.585" x2="2.394" y2="601.585" gradientTransform="matrix(104.7374 0 0 -104.7373 -81.604 63367.484)"><stop offset="0" stop-color="#10b0e6"/><stop offset=".161" stop-color="#0faae1"/><stop offset=".372" stop-color="#0c9ad2"/><stop offset=".61" stop-color="#077fba"/><stop offset=".867" stop-color="#015999"/><stop offset=".9" stop-color="#005494"/><stop offset="1" stop-color="#005494"/></linearGradient><path class="st7" d="M29 345.9h141.2v26.4H29z"/></g><g><defs><path id="SVGID_19_" d="M39.3 246.4C32.9 253 29 261.9 29 271.8v100.5l20.8-20.8V254c0-7.8 2-15.3 5.7-21.9l-.8-.8-15.4 15.1z"/></defs><clipPath id="SVGID_20_"><use xlink:href="#SVGID_19_" overflow="visible"/></clipPath><linearGradient id="SVGID_21_" gradientUnits="userSpaceOnUse" x1="1.542" y1="600.91" x2="2.875" y2="600.91" gradientTransform="matrix(0 -106.3499 -106.35 0 63948.965 537.469)"><stop offset="0" stop-color="#0081bd"/><stop offset=".393" stop-color="#006fac"/><stop offset=".85" stop-color="#005494"/><stop offset="1" stop-color="#005494"/></linearGradient><path class="st8" d="M29 231.2h26.4v141.2H29z"/></g><g><defs><path id="SVGID_22_" d="M25.3 208h168v168h-168z"/></defs><clipPath id="SVGID_23_"><use xlink:href="#SVGID_22_" overflow="visible"/></clipPath><g class="st9"><defs><path id="SVGID_24_" d="M156.9 216.3h1.4v5.1h-1.4z"/></defs><clipPath id="SVGID_25_"><use xlink:href="#SVGID_24_" overflow="visible"/></clipPath></g><g class="st9"><defs><path id="SVGID_26_" d="M155.7 216.4h1.6v4.6h-1.6z"/></defs><clipPath id="SVGID_27_"><use xlink:href="#SVGID_26_" overflow="visible"/></clipPath></g><g class="st9"><defs><path id="SVGID_28_" d="M154.4 216.9h1.8v3.9h-1.8z"/></defs><clipPath id="SVGID_29_"><use xlink:href="#SVGID_28_" overflow="visible"/></clipPath></g><g class="st10"><defs><path id="SVGID_30_" d="M128.5 231.9h25.6v17.9h-25.6z"/></defs><clipPath id="SVGID_31_"><use xlink:href="#SVGID_30_" overflow="visible"/></clipPath></g><g class="st11"><defs><path id="SVGID_32_" d="M112.7 241.7h11.6v9.8h-11.6z"/></defs><clipPath id="SVGID_33_"><use xlink:href="#SVGID_32_" overflow="visible"/></clipPath></g><g class="st10"><defs><path id="SVGID_34_" d="M111.4 282.8h11.7v3h-11.7z"/></defs><clipPath id="SVGID_35_"><use xlink:href="#SVGID_34_" overflow="visible"/></clipPath></g><g class="st9"><defs><path id="SVGID_36_" d="M121.2 286.1h1.5v5.6h-1.5z"/></defs><clipPath id="SVGID_37_"><use xlink:href="#SVGID_36_" overflow="visible"/></clipPath></g><g class="st10"><defs><path id="SVGID_38_" d="M123.5 283.1h5.9v2.1h-5.9z"/></defs><clipPath id="SVGID_39_"><use xlink:href="#SVGID_38_" overflow="visible"/></clipPath></g><g class="st12"><defs><path id="SVGID_40_" d="M127.4 336.2h11.2v3h-11.2z"/></defs><clipPath id="SVGID_41_"><use xlink:href="#SVGID_40_" overflow="visible"/></clipPath></g><g class="st13"><defs><path id="SVGID_42_" d="M122.3 339.2h18v2.8h-18z"/></defs><clipPath id="SVGID_43_"><use xlink:href="#SVGID_42_" overflow="visible"/></clipPath></g><g class="st13"><defs><path id="SVGID_44_" d="M103.4 337.8h11v5h-11z"/></defs><clipPath id="SVGID_45_"><use xlink:href="#SVGID_44_" overflow="visible"/></clipPath></g><g class="st12"><defs><path id="SVGID_46_" d="M105.6 335.7h8v4.9h-8z"/></defs><clipPath id="SVGID_47_"><use xlink:href="#SVGID_46_" overflow="visible"/></clipPath></g><g class="st13"><defs><path id="SVGID_48_" d="M100.5 334.4h3v3.1h-3z"/></defs><clipPath id="SVGID_49_"><use xlink:href="#SVGID_48_" overflow="visible"/></clipPath></g><g class="st10"><defs><path id="SVGID_50_" d="M74.9 279.3h2.4v2.6h-2.4z"/></defs><clipPath id="SVGID_51_"><use xlink:href="#SVGID_50_" overflow="visible"/></clipPath></g><g class="st10"><defs><path id="SVGID_52_" d="M74.6 277.9h2.2v2.5h-2.2z"/></defs><clipPath id="SVGID_53_"><use xlink:href="#SVGID_52_" overflow="visible"/></clipPath></g><g class="st10"><defs><path id="SVGID_54_" d="M75 276.7h1.8v1.2H75z"/></defs><clipPath id="SVGID_55_"><use xlink:href="#SVGID_54_" overflow="visible"/></clipPath></g><g class="st10"><defs><path id="SVGID_56_" d="M83.6 248.7h26.1v32.8H83.6z"/></defs><clipPath id="SVGID_57_"><use xlink:href="#SVGID_56_" overflow="visible"/></clipPath></g></g><g><defs><path id="SVGID_58_" d="M95.9 213.9c-22.1 0-40.2 18.2-40.2 40.1v91.8h91.6c22.2 0 40.3-18.1 40.3-40.2V214H95.9z"/></defs><clipPath id="SVGID_59_"><use xlink:href="#SVGID_58_" overflow="visible"/></clipPath><path class="st14" d="M153.1 233.7c-2 3.7-3 6.2-4.8 7.1-.6.3-2.6.8-3 .6-3.8-1.7 5.7-14.4 6.9-15.7 1.7-2 2.2-3 3.1-2.5 1.6.7.6 5.4-2.2 10.5"/><path class="st14" d="M140.7 244.3c-2.5.9-7.4 3.2-9.4 3.5-2.4.3-1.7-1.7-2.1-2.5-.3-.7-2.1-2.6-.1-2.9 4.2-.7 6.2-2.4 9-3.4 5.6-2 10.8-2.4 11.5-1 .7 1.4-3.2 4.3-8.9 6.3"/><path class="st15" d="M153.4 220.4c-.3.9-.3 2.8-.3 3.6-.1 1.9.4 2.4 1.6 2.8 1.8.6 1.7-.8 4.2-2.7.4-.3 1.4-2.3 2.2-3.2.1-.1-.3-.8-1-.3-.8.5-1.4 1.9-1.5 1.7-.2-1.8 1.1-5.7-.1-6.1-.1 0-.1.3-.2.3s-.3-.3-.4-.3c-.2 0-.4.3-.6.3-.2 0-.2-.3-.4-.2-.2.1-.5.6-.7.7-.1.1-.3-.2-.5-.1-.9.6-1.8 2-2.3 3.5"/><g class="st16"><defs><path id="SVGID_60_" d="M156.9 216.3h1.4v5.1h-1.4z"/></defs><clipPath id="SVGID_61_"><use xlink:href="#SVGID_60_" overflow="visible"/></clipPath><g class="st17"><defs><path id="SVGID_62_" d="M156.9 216.3h1.4v5.1h-1.4z"/></defs><clipPath id="SVGID_63_"><use xlink:href="#SVGID_62_" overflow="visible"/></clipPath><path class="st18" d="M157.5 220.3c-.1.2-.1.4-.2.7 0 .1 0 .2-.1.3 0 .1-.1.1-.1.1h-.1c-.1 0-.2-.1-.1-.2 0-.1 0-.2.1-.3 0-.2.1-.5.2-.7.2-.4.3-.7.4-1l.3-1.5c.1-.4.2-.9.3-1.4v-.1l.1.1s0 1-.1 1.4l-.3 1.5c-.2.4-.3.7-.4 1.1"/></g></g><g class="st16"><defs><path id="SVGID_64_" d="M155.7 216.4h1.6v4.6h-1.6z"/></defs><clipPath id="SVGID_65_"><use xlink:href="#SVGID_64_" overflow="visible"/></clipPath><g class="st19"><defs><path id="SVGID_66_" d="M155.7 216.4h1.6v4.6h-1.6z"/></defs><clipPath id="SVGID_67_"><use xlink:href="#SVGID_66_" overflow="visible"/></clipPath><path class="st20" d="M155.8 221.1h-.1c-.1 0 .4-1.9.4-2.1 0-.1.8-1.9 1.1-2.5h.1c.1 0-.8 2.4-.8 2.6-.1.1-.7 2-.7 2"/></g></g><g class="st16"><defs><path id="SVGID_68_" d="M154.4 216.9h1.8v3.9h-1.8z"/></defs><clipPath id="SVGID_69_"><use xlink:href="#SVGID_68_" overflow="visible"/></clipPath><g class="st21"><defs><path id="SVGID_70_" d="M154.4 216.9h1.8v3.9h-1.8z"/></defs><clipPath id="SVGID_71_"><use xlink:href="#SVGID_70_" overflow="visible"/></clipPath><path class="st22" d="M154.6 219.7c0-.1 0-.2.1-.2.1-.5.4-.9.6-1.3.1-.1.2-.3.3-.4.2-.3.3-.6.5-.9h.1s-.2.7-.4 1c-.1.2-.2.3-.3.5-.2.3-.4.7-.5 1.2 0 .1 0 .2-.1.3-.1.3-.2.6-.2.9 0 .1-.1.1-.1.2-.1 0-.2-.1-.2-.2 0-.5.1-.8.2-1.1"/></g></g><path class="st23" d="M151.8 226.2l4.3 2 1.1-2.2-4.3-2z"/><path class="st24" d="M132.5 240.5c1.7-.4 4.5-1.3 5.6-1.6 2.6-.9 5-2.5 7-2.8.5-1.8 6.9-10.7 7-10.8.9.6 2.6 1.3 4.5 1.7-.7 1.9-2.1 3.9-3.6 6.6-2 3.7-3 6.2-4.8 7.1-.2.1-15 8.8-16.9 9-2.4.3-2.4-2.9-2.9-3.6-.3-.4-3.7.7-2.8-3.1 0 0 .4-.4 2.1-1.3 1.2-.6 2.4-.8 3-.9.6-.1 1.3-.1 1.8-.3"/><g class="st25"><defs><path id="SVGID_72_" d="M128.5 231.9h25.6v17.9h-25.6z"/></defs><clipPath id="SVGID_73_"><use xlink:href="#SVGID_72_" overflow="visible"/></clipPath><g class="st26"><defs><path id="SVGID_74_" d="M128.5 231.9h25.6v17.9h-25.6z"/></defs><clipPath id="SVGID_75_"><use xlink:href="#SVGID_74_" overflow="visible"/></clipPath><path class="st27" d="M128.9 243c.1 0 .5-.1.9-.1h1.1c.3 0 1.6.1 1.7.1 1.1.1 1.9-.5 2.8-.3h.2c1-.1 2-.2 3.2-.4 2.7-.5 4.9-.9 9.2-3 .7-1.4 4.2-5.4 6.2-7.4-.3.6-.7 1.1-1 1.8-2 3.7-3 6.2-4.8 7.1-.2.1-15 8.8-16.9 9-2.4.3-1.7-3.8-2.1-4.6-.1-.3-.5-1-.7-1.7-.1-.2 0-.4.2-.5"/></g></g><path class="st28" d="M27.1 298.2c-.2.2-.1.6.1.8 23 18.8 78.5 41 78.5 41s13.5 2.8 18 2.8c2.6 0 10.2-1.9 10.2-1.9s45.3-23.5 67.7-41.9c.3-.2.3-.6.1-.8 0-.1-.1-.1-.1-.2-.2-.2-.6-.2-.8 0-22 18-67.8 41.9-67.8 41.9s-6.7 1.7-9 1.8c-4.6.1-18.2-3.1-18.2-3.1s-55-21.9-77.7-40.6c-.3-.2-.6-.2-.8 0-.1.1-.1.2-.2.2"/><path class="st29" d="M113.6 252.7c6.6 0 12.7 1.6 17.3 4.2-.7 9.1 5 16.5 4.8 18.7-.1.5-.2 2.8-.3 3.2-5.7 8.2-16.4 8.5-21.8 8.5-.4 0-5.4 1.1-5.8 1.1-2-2.1 2.5-6.3 2.9-9.5.1-.8 1.1-5.8.6-9-.9-5.8-3.6-11.3-3.6-14v-1.5c-.8-.3-1.5-.6-2.1-1 2.6-.5 5.3-.7 8-.7"/><path class="st30" d="M121.9 219.5h-.1"/><path class="st15" d="M118.2 243.1c8.2-1.7 10.3 0 10.9 3.1.3 1.4.5 2.9 1.3 3.5-.4 3.5.4 3.3.4 3.5 0 4.5-2 24.1-2.3 26.6-.6 4.4-3.4 7.2-10.7 6.2-7.3-1-7.8-5.4-7.2-9.8.1-.7 1.1-5.3.6-8.1-.9-5.3-3.6-10.1-3.6-12.6v-1.4c-1.9-.5-2.3-1.8-2.5-3-.4-2.9 4.9-6.3 13.1-8"/><path class="st31" d="M123 274.8c.8-.3 4.4-1.8 5.6.2 1.1 1.8-.2 7.1 1.3 9.9 4 7.4 8.7 16.4 8.8 18.4.5.6.7 1.8.7 4.1 0 2.5-6.5 21.8-9.9 27.5-.2.3 2 1.8 3.2 2.4 2.6 1.3 6.9 1.9 6.6 1.8-1-.2-14.9 1-16.3-2.9-.2-.6.7-2.5.9-3.3 1.2-3.7 3.1-10.5 4.4-16.4.8-3.5 1.7-6.5 2.7-8.8-3.7-6.7-7.7-9.6-9.8-15.1-3.6-9.8-1.5-16.5 1.8-17.8"/><path class="st24" d="M123 274.8c.8-.3 4.4-1.8 5.6.2 1.1 1.8-.2 7.1 1.3 9.9 4 7.4 10.9 18 10.9 20.3 0 1.4-2.8 10.6-5.1 18.2l-.3.9c-.2.4-.4.8-.5 1.3-.2.4-.3.9-.4 1.4-.7 1.9-1.2 3.2-1.2 6.3 0 2.3-2.9 2.8-6 2.7-1 0-3.6-.2-3.8-.5-.5-.5-.6-1.3-.2-2.5 1.2-3.7 6.2-22.9 7.2-25.2-3.7-6.7-9.2-11.6-11.3-17.2-4-9.9.5-14.5 3.8-15.8"/><path class="st31" d="M107.9 314.7c1.7-4.2 2.8-5.6 4.8-8.1-1.8-3.1-3-31.8.5-32.2 3-.3 6.1 5.1 7.6 12.7.3 1.4-.2 15.8-.5 19.4.2 3.4-7 21.2-9.8 23.2-4.5 3.3-.6 6-1.6 7.2-.6.7-2.9-1.6-3.4-1.8-.8-.3-3.7-1.8-4.1-3.1-.3-1.1 1.9-2 2.4-3.4 1.2-3.2 2.3-9.4 4.1-13.9"/><path class="st32" d="M111.8 306.6c-1-10.1-1.7-21.2-1.7-21.2s-4.3-13.4 3.1-11c2.8.9 7.4 5.1 8.9 12.7.3 1.4-.7 15.8-1 19.4.2 3.4-9.8 28.6-9.8 28.6s-10.4-3.2-9.3-6.2c.7-2.1 2.6-7.7 5.2-13.9 1.4-3.1 3.6-5.4 4.6-8.4"/><path class="st24" d="M111.8 306.6c-1-10.1-1.7-21.2-1.7-21.2s-4.3-13.4 3.1-11c2.8.9 7.4 5.1 8.9 12.7.3 1.4-.7 15.8-1 19.4.2 3.4-9.8 28.6-9.8 28.6s-10.4-3.2-9.3-6.2c.7-2.1 2.6-7.7 5.2-13.9 1.4-3.1 3.6-5.4 4.6-8.4"/><path class="st33" d="M113 244.6c1.4 1 3.4 1.7 5.6 1.7 3.5 0 6.5-1.6 7.5-3.9 4.5.1 2.7 2.3 3.1 4.3.3 1.4 3 5.2.9 6.7 0 .3.1.6 0 .9-2.5 6.7-.7 11.4-.3 17.5.3 4.1.3 7.2.2 8.3-.1.4-.4 1.5-.7 1.6-3.2 1-7.9 1.5-11.2 1.5-2.4 0-4.7-.3-6.8-.8-.8-1.7-.8-3.8-.5-5.9.1-.7 1.1-5.3.6-8.1-.9-5.3-3.6-10.1-3.6-12.6v-1.4c-1.9-.5-2.3-1.8-2.5-3-.4-2.5 2.3-4.9 7.7-6.8"/><g class="st34"><defs><path id="SVGID_76_" d="M112.7 241.7h11.6v9.8h-11.6z"/></defs><clipPath id="SVGID_77_"><use xlink:href="#SVGID_76_" overflow="visible"/></clipPath><g class="st35"><defs><path id="SVGID_78_" d="M112.7 241.7h11.6v9.8h-11.6z"/></defs><clipPath id="SVGID_79_"><use xlink:href="#SVGID_78_" overflow="visible"/></clipPath><path class="st36" d="M113.3 242.5s2.5 2.7 3.5 3.3c.8.5 3.6 1.1 3.6 1.1s1.7-1.9 1.9-2.5c.3-.7.1-2.6.1-2.6l1.8.7-.5 6.9-3.3-1.6-3.2 3.8-4.7-7.3.8-1.8z"/></g></g><path class="st32" d="M121.4 247.5l-.8-.6-1 1.5.8 1.6"/><g class="st25"><defs><path id="SVGID_80_" d="M111.4 282.8h11.7v3h-11.7z"/></defs><clipPath id="SVGID_81_"><use xlink:href="#SVGID_80_" overflow="visible"/></clipPath><g class="st37"><defs><path id="SVGID_82_" d="M111.4 282.8h11.7v3h-11.7z"/></defs><clipPath id="SVGID_83_"><use xlink:href="#SVGID_82_" overflow="visible"/></clipPath><path class="st38" d="M122 285.8c.5 0 1-.1 1.1-.8.1-.6-.1-1.2-.3-1.8l-.1-.3c0-.1-.2-.2-.3-.2-.1 0-.2.2-.2.3l.1.3c.1.5.3 1.1.3 1.6 0 .4-.3.4-1 .4H120c-1.3 0-2.7 0-3.9-.2-.4-.1-.8-.1-1.2-.2-1.1-.2-2.2-.4-3.3-.5-.1 0-.2.1-.2.2s.1.2.2.2c1.1.1 2.2.3 3.3.5.4.1.8.1 1.2.2 1.3.2 2.7.2 4 .2h1.5c.1.1.2.1.4.1"/></g></g><g class="st16"><defs><path id="SVGID_84_" d="M121.2 286.1h1.5v5.6h-1.5z"/></defs><clipPath id="SVGID_85_"><use xlink:href="#SVGID_84_" overflow="visible"/></clipPath><g class="st39"><defs><path id="SVGID_86_" d="M121.2 286.1h1.5v5.6h-1.5z"/></defs><clipPath id="SVGID_87_"><use xlink:href="#SVGID_86_" overflow="visible"/></clipPath><path class="st40" d="M122.4 287c.1 0 .2-.1.2-.2v-.6c0-.1-.1-.1-.2-.1s-.2 0-.2.1v.6c0 .2.1.2.2.2M122.4 289.9c.1 0 .2-.1.2-.2 0-.3.1-.6.1-1v-.5c0-.1-.1-.2-.2-.2s-.2.1-.2.2v.5c0 .3 0 .6-.1.9 0 .2.1.3.2.3M121.4 291.7h.1c.2-.1.4-.3.5-.5.1-.1.1-.2 0-.3-.1-.1-.2-.1-.3 0-.1.2-.3.3-.4.4-.1.1-.1.2-.1.3.1.1.2.1.2.1"/></g></g><g class="st25"><defs><path id="SVGID_88_" d="M123.5 283.1h5.9v2.1h-5.9z"/></defs><clipPath id="SVGID_89_"><use xlink:href="#SVGID_88_" overflow="visible"/></clipPath><g class="st41"><defs><path id="SVGID_90_" d="M123.5 283.1h5.9v2.1h-5.9z"/></defs><clipPath id="SVGID_91_"><use xlink:href="#SVGID_90_" overflow="visible"/></clipPath><path class="st42" d="M123.7 285.2s.1 0 0 0c.4-.1 4.8-1.2 5.5-1.6.1-.1.1-.2.1-.3-.1-.1-.2-.1-.3-.1-.6.3-5 1.5-5.4 1.6-.1 0-.2.1-.2.3.1 0 .2.1.3.1"/></g></g><path class="st43" d="M121.2 284.4c0 .3.2.5.3.5.2 0 .3-.2.3-.5s-.2-.5-.3-.5c-.1-.1-.3.2-.3.5"/><path class="st44" d="M122.4 341.5c-.1-.2-.1-.9-.1-1.1 0-1.7 0-1.7.4-4.7 0 0-.4-2.1 2.7.5 0 0 2 .9 3.2.8 1-.1 1.8-.7 1.8-.6 1.7 1 7.9 2.1 7.9 2.1s.9 0 1.2.2c.5.3.8 1.1.8 1.8 0 .2 0 .4-.1.6 0 0-2.1 1-3.3 1-1.7 0-5.4-.3-8.7-.5-.5 0-1 .4-1.5.4-2.5-.3-4.3-.5-4.3-.5"/><g class="st45"><defs><path id="SVGID_92_" d="M127.4 336.2h11.2v3h-11.2z"/></defs><clipPath id="SVGID_93_"><use xlink:href="#SVGID_92_" overflow="visible"/></clipPath><g class="st46"><defs><path id="SVGID_94_" d="M127.4 336.2h11.2v3h-11.2z"/></defs><clipPath id="SVGID_95_"><use xlink:href="#SVGID_94_" overflow="visible"/></clipPath><path class="st47" d="M138.6 338.4c-1.2.6-2.9.9-4.6.9-3 0-5.6-1-6.6-2.4.4 0 .8.1 1.2 0 1-.1 1.8-.7 1.8-.6 1.7 1 7.9 2.1 7.9 2.1h.3"/></g></g><path class="st44" d="M131.3 338.9c1.2-.1 2.6-.8 2.2-1.7l-2.1-1.4c-1.2.1-3.7 1-4.3 1.9l4.2 1.2z"/><path class="st48" d="M131.1 336.2c0 .1.1.3.3.3.2 0 .3-.1.3-.3s-.1-.3-.3-.3c-.1 0-.3.2-.3.3M132.1 337.2c0 .2.1.3.3.3.2 0 .3-.1.3-.3s-.1-.3-.3-.3c-.1 0-.3.1-.3.3"/><g class="st49"><defs><path id="SVGID_96_" d="M122.3 339.2h18v2.8h-18z"/></defs><clipPath id="SVGID_97_"><use xlink:href="#SVGID_96_" overflow="visible"/></clipPath><g class="st50"><defs><path id="SVGID_98_" d="M122.3 339.2h18v2.8h-18z"/></defs><clipPath id="SVGID_99_"><use xlink:href="#SVGID_98_" overflow="visible"/></clipPath><path class="st51" d="M132.7 341.2c2.8 0 5.4-.4 7.6-1v.1c0 .2 0 .4-.1.6 0 0-2.1 1-3.3 1-.8 0-2.1-.1-3.6-.2-1.6-.1-3.4-.2-5.1-.4-.5 0-1 .4-1.5.4-2.4-.2-4.3-.4-4.3-.4-.1-.2-.1-.9-.1-1.1V339c2.4 1.4 6.2 2.2 10.4 2.2"/></g></g><g class="st49"><defs><path id="SVGID_100_" d="M103.4 337.8h11v5h-11z"/></defs><clipPath id="SVGID_101_"><use xlink:href="#SVGID_100_" overflow="visible"/></clipPath><g class="st52"><defs><path id="SVGID_102_" d="M103.4 337.8h11v5h-11z"/></defs><clipPath id="SVGID_103_"><use xlink:href="#SVGID_102_" overflow="visible"/></clipPath><path class="st53" d="M104.8 339.4c3.9 3 8 3.6 9.3 1.9.2-.2.3-.4.3-.7 0 .3-.2.9-.5 1.3-.1.2-.7 1.1-3.8.8-1-.1-4.1-1.1-5.9-3.1-.4-.5-.6-1.3-.7-1.8.3.4.8 1.2 1.3 1.6"/></g></g><path class="st44" d="M100.5 335.7c.1-1.5-.1-1.9.9-5.1 1.1-.5.1.9 1.2 2.1 0 0 2.7 2.2 3.9 2.9.8.5 2.8.2 2.8.3.7 1.5 1.5 1.6 3.7 3.1.5.3 1.3 1.3 1.3 1.3.2.2-.1 1-.5 1.5-.1.2-.7 1.1-3.8.8-1-.1-4.1-1.1-5.9-3.1-.6-.7-.6-2.2-.8-2.3-.1 0-.1.2-.6.2-.3.1-2.2-1.7-2.2-1.7"/><g class="st45"><defs><path id="SVGID_104_" d="M105.6 335.7h8v4.9h-8z"/></defs><clipPath id="SVGID_105_"><use xlink:href="#SVGID_104_" overflow="visible"/></clipPath><g class="st54"><defs><path id="SVGID_106_" d="M105.6 335.7h8v4.9h-8z"/></defs><clipPath id="SVGID_107_"><use xlink:href="#SVGID_106_" overflow="visible"/></clipPath><path class="st55" d="M112.4 340.5c-1.5.2-3.4 0-4.5-.4-1.7-.7-2.1-2-2.3-3.4-.1-.6.6-1.2.9-1 .8.5 2.3.3 2.4.3.4.8.6 1.4 1.2 1.9.2.2.7 0 1 .1.5.2 1.2.6 1.9 1.1.4.3 1.5 1.1-.6 1.4"/></g></g><path class="st44" d="M107.4 338.7c.9.5 2.2.4 2.3-.5-.3-.6-.7-1.6-1-2.3-.9-.4-2.9-.9-3.7-.7.8 1.4 1.6 2.5 2.4 3.5"/><path class="st48" d="M108.5 336.6c-.1.1 0 .3.1.3.1.1.3 0 .3-.1.1-.1 0-.3-.1-.3s-.3 0-.3.1M108.7 337.8c-.1.1 0 .3.1.4.1.1.3 0 .4-.1.1-.1 0-.3-.1-.4-.2-.1-.3-.1-.4.1"/><g class="st49"><defs><path id="SVGID_108_" d="M100.5 334.4h3v3.1h-3z"/></defs><clipPath id="SVGID_109_"><use xlink:href="#SVGID_108_" overflow="visible"/></clipPath><g class="st56"><defs><path id="SVGID_110_" d="M100.5 334.5h3v3.1h-3z"/></defs><clipPath id="SVGID_111_"><use xlink:href="#SVGID_110_" overflow="visible"/></clipPath><path class="st57" d="M103.1 337.5c-.1 0-.2.1-.4.1-.3 0-2.2-1.8-2.2-1.8 0-.5 0-.9.1-1.3.5.8 1.6 1.7 2.5 2.6 0 0 .1.3.5.1.1-.1-.6.2-.5.3"/></g></g><path class="st33" d="M113.3 241.6s2.5 2.7 3.5 3.3c.8.5 3.6 1.5 3.6 1.5s1.7-2.3 1.9-2.9c.3-.7.1-2.6.1-2.6l1.8.7-.4 7.6-3.3-2.3-2.7 4.1s-1.9-3-2.9-4c-.6-.6-2.3-3.6-2.3-3.6l.7-1.8z"/><path class="st24" d="M104.9 250.7c.1-3.8 2.7-3.4 6.2-6.2.8-.7 1.7-2.4 2.6-3.4-.9 3.9.6 12 .6 17.8 0 3.4-1.6 31.2-4.4 30.8-1.3-.2-2.8-.6-2.8-1.6-.2-4.6.3-13.7.3-13.7s-1.8-18.5-1.8-19c-.3-.8-.4-1.7-.5-2.3-.1-1.2-.2-1.6-.2-2.4M122.5 240.1c.5.4 1 .5 1.4.5 1.7-.4 4.5.1 5.2 1.2 1.2 2 4.2 20 4.2 20s5.8 14 5.6 15.3c-.1.6-3.9 5.8-6.4 7.8-1.2 1-5.9-24.6-7.8-34.2-.3-3.3-2.5-7.9-2.2-10.6"/><path class="st14" d="M128.8 233.8c0 5.9-4.6 10.6-10.2 10.6-5.7 0-10.2-4.8-10.2-10.6 0-5.9 4.6-10.6 10.2-10.6 5.6-.1 10.2 4.7 10.2 10.6"/><path class="st58" d="M125.6 225.4s-3.5 4.9-12.4 6.7c-.4 4.4-1.8 6.7-2.7 8.4-2.7-1.8-3.5-4.8-3.5-8.4 0-4 4.4-12 14.2-9.3 3.1.7 4.4 2.6 4.4 2.6"/><path class="st14" d="M86.9 271.1c2.1-1.5 4.9-4.4 6.9-5.3.9-2.2 1.4-4 3.1-6.5 4.3-6.5 9.3-10.8 11.2-9.5 1.9 1.2 2.9 3.9-1.4 10.4-.9 1.4-4.8 6.3-5.8 7.4-1.2 2.4-4.5 5.7-8.8 8.8-2.2 1.6-4.4 2.9-6.3 3.8-3.9 1.9-5-3-4.3-3.7 1.6-2.1 2.2-3.2 5.4-5.4"/><path class="st15" d="M75.2 283.1c-.1-.2-.2-.7-.2-1v-.9c-.3-.8-.4-.7-.3-1.6.1-.4.2-.9.2-1.3 0-.2 0-.9.1-1.1.3-.7.8-1 1.2-1.4.6-.6 5.9 1 6.4 1.4l1.4 3.6c-.4.4-.1 1.1-.5 1.2-.3 0-2.5.2-3.6.9-.9.7-1.1 1.1-1.4 1.1-.5.1-.7-.2-.7-.3 0-.3 0-.6.3-1.1.5-.6 1.3-1.3 1.2-1.4-.2-.2-2.1-.3-2.4-.1-.4.4-.9.5-.9 1.2 0 .1.4.6.4.8"/><g class="st25"><defs><path id="SVGID_112_" d="M74.9 279.3h2.4v2.6h-2.4z"/></defs><clipPath id="SVGID_113_"><use xlink:href="#SVGID_112_" overflow="visible"/></clipPath><g class="st59"><defs><path id="SVGID_114_" d="M74.9 279.3h2.4v2.6h-2.4z"/></defs><clipPath id="SVGID_115_"><use xlink:href="#SVGID_114_" overflow="visible"/></clipPath><path class="st60" d="M77.3 279.3c.1.2 0 .4-.2.4-.8.1-1.4 1-1.8 1.7-.1.2-.2.3-.2.5v-.7c0-.1-.1-.1-.1-.2s.1-.2.1-.3c.3-1 2.1-1.6 2.2-1.4"/></g></g><g class="st25"><defs><path id="SVGID_116_" d="M74.6 277.9h2.2v2.5h-2.2z"/></defs><clipPath id="SVGID_117_"><use xlink:href="#SVGID_116_" overflow="visible"/></clipPath><g class="st61"><defs><path id="SVGID_118_" d="M74.6 277.9h2.2v2.5h-2.2z"/></defs><clipPath id="SVGID_119_"><use xlink:href="#SVGID_118_" overflow="visible"/></clipPath><path class="st62" d="M75.2 278.6c.4-.4.9-.8 1.4-.6.1 0 .2.2.2.3 0 .2-.9.2-1.2.4-.3.3-.8 1.1-1 1.7v-.7c.1-.2.4-1 .6-1.1"/></g></g><g class="st25"><defs><path id="SVGID_120_" d="M75 276.7h1.8v1.2H75z"/></defs><clipPath id="SVGID_121_"><use xlink:href="#SVGID_120_" overflow="visible"/></clipPath><g class="st63"><defs><path id="SVGID_122_" d="M75 276.7h1.8v1.2H75z"/></defs><clipPath id="SVGID_123_"><use xlink:href="#SVGID_122_" overflow="visible"/></clipPath><path class="st64" d="M75.6 277.2c-.2.1-.4.4-.6.8v-.3c.2-.3.4-.6.5-.7.5-.4 1.2-.2 1.2 0 .1 0-.6-.2-1.1.2"/></g></g><path class="st23" d="M80.3 276.4c.3 0 .9.3 1.4.6.6.4.8.8 1.4 2.6.1.3.1 1.6-.1 2-.1.2-.4.5-.9.6-.2 0 .2.4.3.4 1.1 0 4-1.9 4-1.9l-3-5.9s-1.7.5-2.3 1.2c-.2.1-.9.4-.8.4"/><path class="st24" d="M81 276c1.6-2.1 10.8-9.2 12.7-10.2.9-2.2 1.4-4 3.1-6.5 1.8-2.8 4.3-7.4 6.1-9.1 2.4-2.3 4-1.1 5.1-.4 1.9 1.2 2.9 3.9-1.4 10.4-.9 1.4-6.9 9.2-7.8 10.2-1.6 1.9-4 4-6.8 6-2.5 1.8-4.6 4.2-6.8 5.2-.6-.7-1-3.2-2-4.5-.7-1-2.3-1-2.2-1.1"/><g class="st25"><defs><path id="SVGID_124_" d="M83.6 248.7h26.1v32.8H83.6z"/></defs><clipPath id="SVGID_125_"><use xlink:href="#SVGID_124_" overflow="visible"/></clipPath><g class="st65"><defs><path id="SVGID_126_" d="M83.6 248.7h26.1v32.8H83.6z"/></defs><clipPath id="SVGID_127_"><use xlink:href="#SVGID_126_" overflow="visible"/></clipPath><path class="st66" d="M88.8 275.3c3.1-1.6 5.7-4.3 7.6-6 1-.9 7.7-5.9 8.8-7.2 5.1-5.9 4.7-10.6 3-12.1-.7-.6-1.5-1.4-2.9-1.3 1.2-.2 2 .5 2.7.9 1.9 1.2 2.9 3.9-1.4 10.4-.9 1.4-6.9 9.2-7.8 10.2-1.6 1.9-4 4-6.8 6-2.5 1.8-4.6 4.2-6.8 5.2-.5-.6-.9-2.7-1.7-4 1.8-.8 3.4-1.2 5.3-2.1"/></g></g></g><g><defs><path id="SVGID_128_" d="M25.3 208h168v168h-168z"/></defs><clipPath id="SVGID_129_"><use xlink:href="#SVGID_128_" overflow="visible"/></clipPath><g class="st67"><defs><path id="SVGID_130_" d="M156.9 216.3h1.4v5.1h-1.4z"/></defs><clipPath id="SVGID_131_"><use xlink:href="#SVGID_130_" overflow="visible"/></clipPath></g><g class="st67"><defs><path id="SVGID_132_" d="M155.7 216.4h1.6v4.6h-1.6z"/></defs><clipPath id="SVGID_133_"><use xlink:href="#SVGID_132_" overflow="visible"/></clipPath></g><g class="st67"><defs><path id="SVGID_134_" d="M154.4 216.9h1.8v3.9h-1.8z"/></defs><clipPath id="SVGID_135_"><use xlink:href="#SVGID_134_" overflow="visible"/></clipPath></g><g class="st68"><defs><path id="SVGID_136_" d="M128.5 231.9h25.6v17.9h-25.6z"/></defs><clipPath id="SVGID_137_"><use xlink:href="#SVGID_136_" overflow="visible"/></clipPath></g><g class="st69"><defs><path id="SVGID_138_" d="M112.7 241.7h11.6v9.8h-11.6z"/></defs><clipPath id="SVGID_139_"><use xlink:href="#SVGID_138_" overflow="visible"/></clipPath></g><g class="st68"><defs><path id="SVGID_140_" d="M111.4 282.8h11.7v3h-11.7z"/></defs><clipPath id="SVGID_141_"><use xlink:href="#SVGID_140_" overflow="visible"/></clipPath></g><g class="st67"><defs><path id="SVGID_142_" d="M121.2 286.1h1.5v5.6h-1.5z"/></defs><clipPath id="SVGID_143_"><use xlink:href="#SVGID_142_" overflow="visible"/></clipPath></g><g class="st68"><defs><path id="SVGID_144_" d="M123.5 283.1h5.9v2.1h-5.9z"/></defs><clipPath id="SVGID_145_"><use xlink:href="#SVGID_144_" overflow="visible"/></clipPath></g><g class="st70"><defs><path id="SVGID_146_" d="M127.4 336.2h11.2v3h-11.2z"/></defs><clipPath id="SVGID_147_"><use xlink:href="#SVGID_146_" overflow="visible"/></clipPath></g><g class="st71"><defs><path id="SVGID_148_" d="M122.3 339.2h18v2.8h-18z"/></defs><clipPath id="SVGID_149_"><use xlink:href="#SVGID_148_" overflow="visible"/></clipPath></g><g class="st71"><defs><path id="SVGID_150_" d="M103.4 337.8h11v5h-11z"/></defs><clipPath id="SVGID_151_"><use xlink:href="#SVGID_150_" overflow="visible"/></clipPath></g><g class="st70"><defs><path id="SVGID_152_" d="M105.6 335.7h8v4.9h-8z"/></defs><clipPath id="SVGID_153_"><use xlink:href="#SVGID_152_" overflow="visible"/></clipPath></g><g class="st71"><defs><path id="SVGID_154_" d="M100.5 334.4h3v3.1h-3z"/></defs><clipPath id="SVGID_155_"><use xlink:href="#SVGID_154_" overflow="visible"/></clipPath></g><g class="st68"><defs><path id="SVGID_156_" d="M74.9 279.3h2.4v2.6h-2.4z"/></defs><clipPath id="SVGID_157_"><use xlink:href="#SVGID_156_" overflow="visible"/></clipPath></g><g class="st68"><defs><path id="SVGID_158_" d="M74.6 277.9h2.2v2.5h-2.2z"/></defs><clipPath id="SVGID_159_"><use xlink:href="#SVGID_158_" overflow="visible"/></clipPath></g><g class="st68"><defs><path id="SVGID_160_" d="M75 276.7h1.8v1.2H75z"/></defs><clipPath id="SVGID_161_"><use xlink:href="#SVGID_160_" overflow="visible"/></clipPath></g><g class="st68"><defs><path id="SVGID_162_" d="M83.6 248.7h26.1v32.8H83.6z"/></defs><clipPath id="SVGID_163_"><use xlink:href="#SVGID_162_" overflow="visible"/></clipPath></g></g><path class="st72" d="M0 0h300v600H0z"/></svg>