<svg xmlns="http://www.w3.org/2000/svg" width="300" height="600" viewBox="0 0 300 600"><path fill="#FFD2B3" d="M238.05 258.61c-9.648 1.175-15.628 2.666-19.703.676-1.452-.709-4.866-3.771-5.077-4.777-1.983-9.424 34.428-8.618 38.529-8.22 5.94.576 8.505.164 8.86 2.447.598 3.859-9.524 8.28-22.609 9.874z"/><path fill="#FFD2B3" d="M201.709 249.8c-5.025-3.464-15.929-9.46-19.006-12.794-3.839-4.16.837-5.454 1.845-7.288.9-1.637 2.082-7.324 5.271-4.114 6.92 6.964 12.767 8.301 18.467 12.231 11.294 7.786 18.977 16.777 17.161 20.081-1.816 3.304-12.444-.33-23.738-8.116z"/><path fill="#FFBB8D" d="M263.11 241.291c-2.093.597-5.564 3.227-7.127 4.264-3.58 2.374-3.919 3.862-3.027 6.716 1.281 4.1 3.879 2.137 10.717 4.288 1.225.385 6.095-.466 8.83-.274.273.019.989-1.652-.827-2.306-2.086-.752-5.408-.14-5.033-.482 2.998-2.734 12.128-5.559 11.259-8.339-.071-.228-.69.139-.793-.074-.151-.311.219-.909.012-1.194-.253-.349-1.104-.372-1.448-.666-.331-.283.361-.744-.03-.989-.342-.215-1.769-.211-2.167-.377-.327-.136-.133-.851-.48-.969-2.617-.888-6.327-.613-9.886.402z"/><path opacity=".2" fill="#FFAC83" d="M268.746 248.852c-.522.118-1.022.342-1.506.559-.194.087-.387.173-.581.253a.405.405 0 0 1-.429-.083.429.429 0 0 1-.1-.142.396.396 0 0 1 .203-.528c.187-.077.373-.161.56-.244.519-.233 1.054-.473 1.651-.608.884-.2 1.609-.398 2.279-.625 1.081-.365 2.133-.86 3.151-1.339.949-.447 1.93-.909 2.936-1.266a.41.41 0 0 1 .166-.02.516.516 0 0 0 .033.273c.044.09-1.842 1.311-2.774 1.75-1.037.488-2.109.993-3.232 1.372-.697.237-1.446.442-2.357.648zM265.092 246.72a.427.427 0 0 1-.125-.216c-.05-.22 4.049-1.873 4.522-2.062.282-.113 4.51-1.098 6.113-1.318a.247.247 0 0 0 .07.1c.18.154-5.54 1.844-5.864 1.975-.488.194-4.622 1.608-4.716 1.521zM266.14 242.654c.19-.069.377-.137.557-.207 1.088-.421 2.141-.543 3.118-.611.377-.027.767-.072 1.161-.117.763-.087 1.549-.171 2.31-.141.033.126.082.234.188.278.096.04-1.568.576-2.379.669-.406.047-.807.092-1.195.12-.916.065-1.9.177-2.892.561-.186.072-.378.141-.573.212-.657.239-1.337.486-1.879.858a.4.4 0 0 1-.559-.114.402.402 0 0 1 .092-.562c.622-.426 1.349-.691 2.051-.946z"/><path fill="#FFFDFD" d="M250.278 246.154l1.997 10.626 5.512-.857-1.997-10.626z"/><path fill="#4A7096" d="M197.652 229.546c3.125 2.666 8.446 6.78 10.634 8.288 5.159 3.557 11.47 5.958 14.561 9.36 4.098-1.416 29.09-1.51 29.391-1.484.093 2.541 1.018 6.659 2.935 10.619-4.425 1.326-10.032 1.417-17.122 2.281-9.648 1.175-15.628 2.666-19.703.676-.577-.282-36.386-16.135-39.463-19.469-3.839-4.16 2.169-8.359 2.845-10.34.381-1.117-6.138-5.906 2.122-9.414.075-.032 1.25.173 5.205 2.316 2.666 1.446 4.681 3.488 5.676 4.339.993.852 1.922 1.978 2.919 2.828z"/><path opacity=".3" fill="#3B5A63" d="M188.201 226.122c.132.054.928.753 1.418 1.57.49.817 1.097 1.547 1.408 2.099.311.552 1.895 3.175 1.95 3.278 1.363 2.13 3.533 2.879 4.385 4.781a62.967 62.967 0 0 0 5.319 5.7c4.551 4.335 8.309 7.97 17.937 13.008 3.512-.585 15.755.554 22.09 1.555-1.479.141-3.025.297-4.658.496-9.648 1.175-15.628 2.666-19.703.676-.577-.282-36.386-16.135-39.463-19.469-3.839-4.16 4.656-8.265 5.664-10.099.35-.637 1.152-2.185 2.188-3.65.509-.125 1.005-.132 1.465.055z"/></svg>