<svg id="Layer_1" xmlns="http://www.w3.org/2000/svg" xmlns:xlink="http://www.w3.org/1999/xlink" viewBox="0 0 300 600"><style>.st0{fill:#005c97}.st1{clip-path:url(#SVGID_2_);fill:#fff}.st2{clip-path:url(#SVGID_4_);fill:url(#SVGID_5_)}.st3{clip-path:url(#SVGID_7_);fill:url(#SVGID_8_)}.st4{clip-path:url(#SVGID_10_);fill:url(#SVGID_11_)}</style><path class="st0" d="M93.4 534.5v5.1h-9.1v24.7h-5.8v-24.7h-9.1v-5.1h24zm2.5 29.9h5.8v-29.8h-5.8v29.8zm35.6 0h-5.9l-3.1-7.3h-10.1l-3 7.3h-5.8l12.7-30.3h2.5l12.7 30.3zm27.9 0h-5.9l-3.1-7.3h-10.1l-3 7.3h-5.8l12.7-30.3h2.5l12.7 30.3zm-38.9-12.2l-3.1-7.4-3.1 7.4h6.2zm27.9 0l-3.1-7.4-3.1 7.4h6.2z"/><defs><path id="SVGID_1_" d="M20.7 522.3h146.5v49.8H20.7z"/></defs><clipPath id="SVGID_2_"><use xlink:href="#SVGID_1_" overflow="visible"/></clipPath><path class="st1" d="M48.5 566.3c2.6 0 4.9-1.1 6.5-2.8l7.1-7.1c1.6-1.7 2.6-3.9 2.7-6.4v-22h-22c-2.6 0-4.9 1.1-6.5 2.8l-7.1 7.1c-1.6 1.7-2.6 3.9-2.7 6.4v22h22z"/><defs><path id="SVGID_3_" d="M45.3 530c-4 0-7.2 3.2-7.2 7.2v2.5h15.1v15.1h2.4c4 0 7.2-3.2 7.2-7.2V530H45.3z"/></defs><clipPath id="SVGID_4_"><use xlink:href="#SVGID_3_" overflow="visible"/></clipPath><linearGradient id="SVGID_5_" gradientUnits="userSpaceOnUse" x1="1.954" y1="601.147" x2="3.287" y2="601.147" gradientTransform="scale(18.2417 -18.2417) rotate(45 764.085 286.234)"><stop offset="0" stop-color="#9cdbf8"/><stop offset=".1" stop-color="#9cdbf8"/><stop offset=".9" stop-color="#009dda"/><stop offset="1" stop-color="#009dda"/></linearGradient><path class="st2" d="M25.7 542.4l24.7-24.8 24.8 24.8-24.8 24.7z"/><defs><path id="SVGID_6_" d="M55.6 556.7H36.1l-7.7 7.7h20.1c2 0 3.8-.8 5.2-2.2l6.5-6.5-.2-.2c-1.4.8-2.9 1.2-4.4 1.2"/></defs><clipPath id="SVGID_7_"><use xlink:href="#SVGID_6_" overflow="visible"/></clipPath><linearGradient id="SVGID_8_" gradientUnits="userSpaceOnUse" x1="1.257" y1="601.463" x2="2.59" y2="601.463" gradientTransform="matrix(23.7811 0 0 -23.7811 -1.474 14863.44)"><stop offset="0" stop-color="#18b0e6"/><stop offset=".162" stop-color="#16aae1"/><stop offset=".375" stop-color="#129ad2"/><stop offset=".617" stop-color="#0b7eb9"/><stop offset=".879" stop-color="#015897"/><stop offset=".9" stop-color="#005594"/><stop offset="1" stop-color="#005594"/></linearGradient><path class="st3" d="M28.4 555.6h31.7v8.8H28.4z"/><g><defs><path id="SVGID_9_" d="M30.6 539.2c-1.4 1.4-2.2 3.2-2.2 5.2v20.1l7.7-7.7v-19.4c0-1.6.4-3.1 1.1-4.4l-.2-.2-6.4 6.4z"/></defs><clipPath id="SVGID_10_"><use xlink:href="#SVGID_9_" overflow="visible"/></clipPath><linearGradient id="SVGID_11_" gradientUnits="userSpaceOnUse" x1="1.416" y1="600.697" x2="2.75" y2="600.697" gradientTransform="matrix(0 -23.7815 -23.7815 0 14318.296 598.078)"><stop offset="0" stop-color="#0081bc"/><stop offset=".412" stop-color="#006eab"/><stop offset=".85" stop-color="#005594"/><stop offset="1" stop-color="#005594"/></linearGradient><path class="st4" d="M28.4 532.7h8.8v31.7h-8.8z"/></g></svg>