<svg xmlns="http://www.w3.org/2000/svg" width="300" height="600" viewBox="0 0 300 600"><path fill="#FFD48F" d="M190.51 427.127c-4.494 1.07-12.046 2.75-15.315 2.789-5.706.068-17.967-2.2-27.04-4.065.033.915-.164 1.839-.598 2.631 9.024 1.693 21.436 3.79 27.153 3.705 3.512-.053 11.42-1.685 16.561-2.829a4.915 4.915 0 0 1-.761-2.231z"/><path fill="#3D4242" d="M186.637 415.626c7.117-11.924 20.723-52.259 20.709-57.385-.012-4.717-.515-7.141-1.476-8.487-.201-4.196-10.142-23.075-18.449-38.49-1.11-2.06-1.478-4.748-1.597-7.533-.706-.78-1.474-1.461-2.395-1.821-.948-.37-2.207-1.355-3.24-1.397a14.399 14.399 0 0 1-2.663-.223c-1.832-.713-3.257-1.702-4.951-2.639-1.323-.732-3.162-.676-4.884-.561a4.775 4.775 0 0 1-.699.105c-2.416 6.51-2.374 16.949 2.632 30.068 4.391 11.507 12.734 17.539 20.447 31.6-2.125 4.762-4.071 10.926-5.69 18.285-2.734 12.422-6.817 26.512-9.286 34.327-.518 1.639-2.365 5.799-1.956 6.962 2.749 7.812 29.7 5.784 33.637 5.992-1.781-.252-8.841-1.476-13.411-3.738-2.594-1.285-7.163-4.336-6.728-5.065z"/><path fill="#4A7096" d="M187.422 311.263c-1.11-2.06-1.478-4.748-1.597-7.533-.706-.78-1.474-1.461-2.395-1.821-.948-.37-2.207-1.355-3.24-1.397a14.399 14.399 0 0 1-2.663-.223c-1.832-.713-3.257-1.702-4.951-2.639-1.316-.728-3.144-.676-4.858-.563a5.024 5.024 0 0 1-1.114.126c-.118 0-.221-.023-.334-.031a18.64 18.64 0 0 1-.823.031c-.282.003-.535-.031-.789-.062-3.354 5.35-4.777 13.716-.137 25.875 4.391 11.507 15.988 21.774 23.701 35.836-2.125 4.762-12.507 44.797-14.977 52.612-.829 2.623-.564 4.294.391 5.288.477.497 5.988.867 8.022.943 6.572.248 12.531-.809 12.616-5.624.113-6.406 1.154-9.184 2.571-13.097.286-.988.584-1.958.908-2.893.324-.935.673-1.835 1.061-2.684.189-.595.373-1.186.559-1.785 4.98-15.944 10.762-35.091 10.755-38.011-.016-4.718-14.4-26.932-22.706-42.348z"/><path fill="#3D4242" d="M168.475 315.864c-1.874-9.346-4.877-17.106-8.29-21.795-3.5.605-7.913 2.392-11.35 4.892-2.29 17.437-.225 52.7 2.626 57.597-4.121 5.306-6.514 8.197-10.036 16.907-3.823 9.457-6.101 22.478-8.429 29.131-1.003 2.864-5.609 4.73-5.018 7.044.727 2.845 6.942 5.893 8.535 6.538.988.399 5.822 5.17 7.054 3.79 2.14-2.396-6.057-8.043 3.434-15.024 5.704-4.196 20.866-41.303 20.413-48.508.568-7.625 1.65-37.634 1.061-40.572z"/><path fill="#313A44" d="M171.253 315.864c-2.034-10.147-6.64-17.351-11.244-21.762-4.223.771-9.714 3.218-13.221 6.543-.978 1.666-1.733 3.507-2.263 5.281.722 3.574 1.578 6.277 1.578 6.277s1.439 23.17 3.506 44.355c-2.115 6.265-6.671 11.153-9.422 17.599-5.486 12.854-9.305 24.54-10.856 28.971-2.235 6.385 19.447 12.964 19.447 12.964s20.942-52.451 20.489-59.656c.567-7.625 2.575-37.634 1.986-40.572z"/><path fill="#4A7096" d="M171.253 315.864c-2.034-10.147-6.64-17.351-11.244-21.762-4.223.771-9.714 3.218-13.221 6.543-.978 1.666-1.733 3.507-2.263 5.281.722 3.574 1.578 6.277 1.578 6.277s1.439 23.17 3.506 44.355c-2.115 6.265-6.671 11.153-9.422 17.599-5.486 12.854-9.305 24.54-10.856 28.971-2.235 6.385 19.447 12.964 19.447 12.964s20.942-52.451 20.489-59.656c.567-7.625 2.575-37.634 1.986-40.572z"/><path opacity=".3" fill="#29ABE2" d="M170.872 313.103c1.035 0 2.146-.229 2.273-1.612.115-1.253-.243-2.561-.558-3.716l-.172-.642a.463.463 0 0 0-.896.232l.175.653c.309 1.132.628 2.302.529 3.388-.067.738-.583.833-2.099.74-1.174-.073-2.182-.024-3.257-.008-2.734.042-5.561.085-8.249-.36-.809-.134-1.63-.283-2.458-.434-2.283-.416-4.644-.846-6.911-.972a.462.462 0 1 0-.05.924c2.209.122 4.541.547 6.796.959.833.151 1.659.302 2.473.437 2.77.459 5.64.415 8.414.372 1.052-.016 2.037-.064 3.186.007.247.015.523.032.804.032z"/><g opacity=".2" fill="#29ABE2"><path d="M171.704 315.618h.03c.255 0 .449-.167.433-.422-.03-.477-.05-.737-.044-1.157.004-.256-.201-.274-.457-.274h-.006c-.253 0-.459.042-.463.296-.006.443.014.77.046 1.273.015.246.219.284.461.284zM171.806 321.788a.463.463 0 0 0 .457-.392c.094-.606.139-1.27.139-2.029 0-.359-.01-.719-.027-1.079a.463.463 0 1 0-.925.043c.016.345.026.692.026 1.036a12.4 12.4 0 0 1-.128 1.888.463.463 0 0 0 .458.533zM169.713 325.537a.46.46 0 0 0 .266-.084 5.037 5.037 0 0 0 1.101-1.055.463.463 0 0 0-.735-.563c-.252.33-.555.619-.898.86a.463.463 0 0 0 .266.842z"/></g><path opacity=".3" fill="#29ABE2" d="M174.528 311.809a.465.465 0 0 0 .083-.007c.71-.129 9.947-2.595 11.463-3.413a.463.463 0 0 0-.439-.815c-1.333.719-10.439 3.18-11.189 3.317a.462.462 0 1 0 .082.918z"/><ellipse fill="#B29C69" cx="169.951" cy="310.175" rx=".705" ry="1.097"/><path fill="#473A2E" d="M171.646 429.48c-.108-.423-.183-1.937-.183-2.375 0-3.505 0-3.503.807-9.873 0 0-.922-4.365 5.604 1.044.058.048 4.107 1.803 6.786 1.593 2.008-.157 3.77-1.378 3.818-1.348 3.544 2.181 16.505 4.386 16.505 4.386s1.806.055 2.455.392c1.042.543 1.622 2.394 1.622 3.806 0 .438-.075.866-.183 1.289 0 0-4.425 2.173-6.987 2.173-3.467 0-11.356-.574-18.208-1.132-1.066-.087-2.107.913-3.102.83-5.057-.426-8.934-.785-8.934-.785z"/><path opacity=".7" fill="#DDB394" d="M205.546 422.938c-2.574 1.185-5.964 1.912-9.691 1.912-6.368 0-11.767-2.107-13.739-5.036.819.083 1.703.12 2.544.055 2.008-.157 3.77-1.378 3.818-1.348 3.544 2.181 16.505 4.386 16.505 4.386s.237.006.563.031z"/><path fill="#473A2E" d="M190.419 423.97c2.476-.27 5.393-1.726 4.522-3.615l-4.406-2.912c-2.476.27-7.671 2.005-8.923 3.875l8.807 2.652z"/><ellipse cx="190.645" cy="418.441" rx=".624" ry=".555"/><ellipse cx="192.749" cy="420.465" rx=".694" ry=".611"/><path opacity=".4" fill="#313A44" d="M193.197 428.937c5.898 0 11.36-.752 15.853-2.03.002.065.01.134.01.198 0 .438-.075.866-.183 1.289 0 0-4.425 2.173-6.987 2.173-1.671 0-4.369-.133-7.484-.334a666.673 666.673 0 0 1-10.724-.798c-1.066-.087-2.107.913-3.102.83-5.057-.426-8.934-.784-8.934-.784-.108-.423-.183-1.937-.183-2.375 0-.71.034-1.54.087-2.408 5.077 2.582 12.884 4.239 21.647 4.239zM134.922 425.053c8.062 6.191 16.736 7.498 19.374 4.063.333-.433.552-.936.668-1.496.008.673-.505 1.816-1.1 2.772-.238.378-1.528 2.28-7.948 1.727-2.179-.187-8.536-2.309-12.427-6.558-.914-.998-1.21-2.746-1.418-3.827.887.815 1.84 2.543 2.851 3.319z"/><g><path fill="#473A2E" d="M126.105 417.481c.199-3.134-.163-3.97 1.93-10.557 2.209-1.104.207 1.795 2.485 4.418.077.088 5.708 4.635 8.078 6.079 1.774 1.141 5.772.5 5.797.548 1.465 3.137 3.037 3.313 7.69 6.458.963.651 2.678 2.679 2.745 2.749.434.453-.205 1.994-.968 3.217-.238.378-1.528 2.28-7.948 1.727-2.179-.187-8.536-2.309-12.427-6.558-1.356-1.481-1.352-4.621-1.719-4.765-.197-.077-.272.49-1.155.407-.647-.062-4.51-3.736-4.508-3.723z"/><path opacity=".7" fill="#DDB394" d="M150.807 427.333c-3.053.371-7.173.101-9.345-.778-3.447-1.362-4.465-4.212-4.792-7.001-.159-1.356 1.185-2.607 1.929-2.134 1.775 1.141 4.897.628 4.923.675.811 1.736 1.195 2.903 2.425 3.961.386.332 1.545-.082 2.102.162a25.736 25.736 0 0 1 4.038 2.207c.922.617 3.077 2.379-1.28 2.908z"/><path fill="#473A2E" d="M140.353 423.696c1.878.994 4.571.76 4.867-.999-.561-1.243-1.548-3.35-2.138-4.728-1.91-.765-6.088-1.879-7.814-1.51 1.706 2.748 3.415 5.158 5.085 7.237z"/><path d="M142.648 419.273c-.145.229-.062.547.184.702a.513.513 0 0 0 .71-.143c.146-.231.065-.535-.182-.689-.247-.153-.566-.099-.712.13zM143.141 421.701a.541.541 0 0 0 .202.753c.27.152.617.056.777-.204a.52.52 0 0 0-.199-.737c-.271-.15-.621-.071-.78.188z"/><path opacity=".4" fill="#313A44" d="M131.363 421.058c-.155.099-.379.18-.75.145-.647-.061-4.509-3.735-4.508-3.722.068-1.064.072-1.865.128-2.714 1.032 1.742 3.385 3.574 5.14 5.38.074.076.195.576 1.005.228.213-.091-1.251.456-1.015.683z"/></g></svg>