<svg xmlns="http://www.w3.org/2000/svg" width="300" height="600" viewBox="0 0 300 600"><path fill="#FFD2B3" d="M87.474 235.725c4.812 1.493 12.676 2.572 16.434 4.423 4.434-1.211 7.96-2.471 13.872-2.858 15.27-1 27.884 1.778 28.174 6.206.29 4.428-2.601 9.201-17.871 10.202-3.196.209-15.525-.122-18.399-.224-5.153.914-14.246-.21-24.26-3.317-5.028-1.56-9.641-3.419-13.503-5.361-7.523-3.783-1.226-11.262.687-11.21 5.151.138 7.571-.124 14.866 2.139z"/><path fill="#FFBB8D" d="M54.739 231.644c.117-.377.772-1.17 1.302-1.575.216-.165 1.38-.982 1.38-.982.776-1.437.683-1.474 2.106-2.283.704-.4 1.663-.856 2.398-1.206.421-.2 1.389-.955 1.822-1.065 1.507-.384 2.444.093 3.626.216 1.669.175 5.498 10.408 5.468 11.689l-4.085 6.457c-.972-.134-1.782 1.155-2.454.544-.371-.337-3.258-3.765-5.709-4.48-2.18-.636-3.025-.463-3.45-.863-.748-.705-.415-1.352-.333-1.415.48-.371.877-.754 2.048-.723 1.446.038 3.655.528 3.663.291.019-.573-2.061-3.715-2.645-3.805-1.047-.161-1.876-.693-2.952-.098-.235.13-.483 1.305-.756 1.461"/><path opacity=".3" fill="#FFAC83" d="M63.199 230.41a.609.609 0 0 1-.942.099c-1.231-1.142-3.322-.983-4.887-.825-.364.036-.704.09-1.017.158.419-.299 1.067-.754 1.067-.754l.17-.319c.204-.074.409-.144.614-.199 2.128-.574 5.222 1.511 4.995 1.84zM61.906 226.329c1.057.245 2.258.47 2.653 1.46a.552.552 0 0 1-.311.716c-.285.113-1.302-1.153-2.006-1.316-.801-.186-2.681.009-3.88.391.24-.229.565-.435 1.164-.776.312-.177 1.926-.58 2.38-.475zM64.464 225.209c-.417-.146-1.164-.092-1.896-.005.19-.125.389-.256.578-.372.687-.057 1.331-.057 1.665.046 1.237.381 1.738 1.633 1.512 1.902-.13.154-.543-1.109-1.859-1.571z"/><path fill="#FFFDFD" d="M71.387 231.748c.251.478.624 1.797.712 2.92.105 1.346-.322 2.322-2.472 5.286-.338.465-2.445 2.134-3.342 2.25-.528.068-1.246-.059-1.985-.8-.325-.326-.372.755-.245.911 1.374 1.682 7.716 3.992 7.716 3.992l5.67-11.778s-2.823-1.971-4.554-2.193c-.359-.046-1.63-.835-1.5-.588z"/><g><path fill="#4A7096" d="M72.844 232.297c5.152.139 27.306 6 31.063 7.851 4.434-1.211 7.96-2.471 13.872-2.858 6.457-.423 16.777-2.034 21.554-1.267 6.519 1.047 6.453 4.917 6.62 7.473.29 4.428-2.601 9.201-17.871 10.202-3.196.209-22.535.167-25.208-.017-4.888-.336-10.977-1.516-17.451-3.525-5.791-1.797-12.027-2.177-16.204-4.437.426-1.798 3.791-5.286 4.566-8.442.617-2.514-1.35-4.991-.941-4.98z"/></g><path opacity=".3" fill="#3B5A63" d="M83.167 243.66c6.148 2.856 13.549 3.788 18.349 4.775 2.625.539 18.429 5.052 21.624 5.272 15.267 1.049 22.125-5.182 22.429-9.609.12-1.743.425-4.078-1.398-5.992 1.657 1.623 1.676 3.77 1.782 5.39.29 4.428-2.601 9.201-17.871 10.202-3.196.209-22.535.167-25.208-.017-4.888-.336-10.977-1.516-17.451-3.525-5.791-1.797-12.027-2.177-16.204-4.437.38-1.604 3.093-4.551 4.226-7.409 3.419 1.43 5.955 3.6 9.722 5.35z"/></svg>