<svg xmlns="http://www.w3.org/2000/svg" width="300" height="600" viewBox="0 0 300 600"><path fill="#324D63" d="M153.385 243.938c13.84 0 26.483 3.326 36.189 8.812-1.373 19.054 10.498 34.478 9.939 38.988-.132 1.063-.317 5.786-.554 6.761-11.845 17.069-34.192 17.814-45.575 17.814-.832 0-11.266 2.249-12.089 2.225-4.148-4.458 5.311-13.231 6.121-19.766.213-1.714 2.294-12.217 1.302-18.829-1.832-12.204-7.452-23.522-7.452-29.143 0-1.108.036-2.157.095-3.173-1.742-.541-3.199-1.243-4.354-2.078 5.177-1.046 10.676-1.611 16.378-1.611z"/><path fill="#4A7096" d="M189.574 252.75c-9.706-5.486-22.35-8.812-36.189-8.812-5.701 0-11.201.565-16.377 1.61 1.154.835 2.611 1.536 4.354 2.078a55.299 55.299 0 0 0-.095 3.173c0 5.621 5.619 16.939 7.452 29.143.993 6.612-1.089 17.116-1.302 18.829-.811 6.536-10.27 15.309-6.121 19.766.823.024 11.257-2.225 12.089-2.225 8.192 0 22.054-.409 33.602-6.988a5.211 5.211 0 0 1-.321-1.855c-.48-1.366-.374-2.963.337-4.219-3.276-2.167-2.439-8.547 2.52-8.547 4.113 0 5.392 4.392 3.84 7.126.622.415 1.098.98 1.421 1.627a35.215 35.215 0 0 0 4.175-4.96c.237-.975.422-5.698.554-6.761.559-4.507-11.312-19.931-9.939-38.985z"/><path fill="#FFBB8D" d="M148.719 276.367c.993 5.955-1.089 15.416-1.302 16.96-.506 3.676-.637 7.341.343 10.554 1.661-1.329 4.127-1.704 6.143.129 4.073 3.704 10.655 2.728 15.631 1.893 4.82-.809 9.656-1.918 14.556-2.075.263-.936.466-1.918.607-2.945.734-5.334 4.826-46.262 4.826-55.642 0-.6-1.852 0-.926-7.408-1.652-1.302-2.183-4.512-2.778-7.408-1.293-6.297-5.59-9.909-22.781-6.378-17.191 3.531-28.231 10.673-26.937 16.97.505 2.461 1.26 5.125 5.262 6.245-.058.915-.095 1.86-.095 2.858-.001 5.06 5.619 15.255 7.451 26.247z"/><path fill="#F2F2F2" d="M152.134 227.059c2.969 2.171 7.098 3.521 11.67 3.521 7.312 0 13.5-3.446 15.598-8.2 9.455.137 5.564 4.82 6.416 8.97.595 2.896 6.295 10.882 1.852 13.89.021.55.213 1.292 0 1.852-5.313 13.939-1.49 23.871-.548 36.529.638 8.569.649 15.108.353 17.261-.127.92-.775 3.058-1.407 3.249-6.675 2.016-16.402 3.125-23.332 3.125-4.939 0-9.731-.561-14.299-1.611-1.694-3.597-1.62-7.951-1.019-12.318.213-1.543 2.294-11.004 1.302-16.96-1.832-10.992-7.452-21.186-7.452-26.249 0-.998.036-1.943.095-2.858-4.001-1.12-4.756-3.784-5.262-6.245-1.001-4.871 4.637-9.913 16.033-13.956z"/><path opacity=".1" fill="#3B5A63" d="M152.788 222.644s5.293 5.64 7.366 6.903c1.669 1.017 7.604 2.215 7.604 2.215s3.471-3.867 4.01-5.156c.593-1.416.209-5.459.209-5.459l3.674 1.497-.942 14.422-6.815-3.398-6.61 7.963-9.857-15.312 1.361-3.675z"/><path fill="#313A44" d="M169.722 233.104l-1.828-1.288-2.029 3.263 1.788 3.386"/><g opacity=".2" fill="#29ABE2"><path d="M171.704 315.618h.03c.255 0 .449-.167.433-.422-.03-.477-.05-.737-.044-1.157.004-.256-.201-.274-.457-.274h-.006c-.253 0-.459.042-.463.296-.006.443.014.77.046 1.273.015.246.219.284.461.284zM171.806 321.788a.463.463 0 0 0 .457-.392c.094-.606.139-1.27.139-2.029 0-.359-.01-.719-.027-1.079a.463.463 0 1 0-.925.043c.016.345.026.692.026 1.036a12.4 12.4 0 0 1-.128 1.888.463.463 0 0 0 .458.533zM169.713 325.537a.46.46 0 0 0 .266-.084 5.037 5.037 0 0 0 1.101-1.055.463.463 0 0 0-.735-.563c-.252.33-.555.619-.898.86a.463.463 0 0 0 .266.842z"/></g><path opacity=".3" fill="#29ABE2" d="M174.528 311.809a.465.465 0 0 0 .083-.007c.71-.129 9.947-2.595 11.463-3.413a.463.463 0 0 0-.439-.815c-1.333.719-10.439 3.18-11.189 3.317a.462.462 0 1 0 .082.918z"/><ellipse fill="#B29C69" cx="169.951" cy="310.175" rx=".705" ry="1.097"/><path fill="#F2F2F2" d="M152.788 220.792s5.293 5.64 7.366 6.903c1.669 1.017 7.604 3.141 7.604 3.141s3.471-4.793 4.01-6.082c.593-1.416.209-5.459.209-5.459l3.674 1.497-.808 15.871-6.949-4.848-5.536 8.473s-4.036-6.293-6.047-8.262c-1.221-1.195-4.884-7.56-4.884-7.56l1.361-3.674z"/><path fill="#4A7096" d="M135.285 239.776c.108-7.898 5.626-7.092 12.879-12.934 1.731-1.394 3.561-5.049 5.44-7.128-1.895 8.11 1.192 25.148 1.192 37.125 0 7.021-3.363 65.223-9.096 64.373-2.662-.395-5.779-1.15-5.856-3.417-.327-9.591.599-28.541.599-28.541s-3.769-38.729-3.711-39.714c-.631-1.758-.866-3.649-1.058-4.868-.36-2.279-.414-3.133-.389-4.896zM171.977 217.662c1.089.879 2.055 1.148 2.951.948 3.603-.802 9.409.302 10.775 2.537 2.547 4.167 8.736 41.829 8.736 41.829s12.12 29.176 11.753 32.048c-.156 1.219-8.111 12.018-13.31 16.338-2.478 2.059-12.418-51.47-16.223-71.521-.696-6.876-5.35-16.424-4.682-22.179z"/><ellipse fill="#FFD2B3" cx="163.665" cy="204.494" rx="21.37" ry="22.225"/><path fill="#873400" d="M178.41 186.9s-7.408 10.186-25.929 13.89c-.926 9.26-3.704 13.89-5.556 17.595-5.556-3.704-7.408-10.129-7.408-17.595 0-8.334 9.26-25.003 29.633-19.447 6.504 1.774 9.26 5.557 9.26 5.557z"/></svg>