<svg id="Layer_1" xmlns="http://www.w3.org/2000/svg" viewBox="0 0 201 200.3"><style>.st0{fill:#2b2e38}.st1{fill:#d1d4d1}.st2{fill:#f0c41a}.st3{fill:#bdc2c7}.st4{fill:none}</style><path class="st0" d="M112.4 40.5c-.9.3-1.9.3-2.8-.2-.8-.5-1.4-1.3-1.5-2.3l-2.9-28.8c-.2-1-.7-2-1.6-2.6-.8-.6-1.9-.8-2.9-.6l-10 2.2c-1.1.2-2.2-.1-3-.9-.8-.8-1-1.9-.7-2.9.3-1 1.2-1.8 2.3-2L99.5.2c2.7-.5 5.6.1 7.8 1.7 2.3 1.6 3.7 4 4.1 6.7l2.9 28.9c.1 1.3-.7 2.5-1.9 3M176.3 45.2c-1.4.5-3.1 0-3.8-1.2l-5.3-8.6c-.6-.7-1.4-1.2-2.4-1.4-1.1-.2-2.3.1-3.2.8l-23.8 17.7c-.9.7-2.1.8-3.1.4s-1.8-1.3-1.9-2.3c-.2-1.1.3-2.1 1.2-2.8L157.8 30c2.3-1.6 5.2-2.3 8-1.9 2.7.4 5.1 1.9 6.6 4.1l5.5 8.7c.5.7.6 1.7.3 2.5-.4.8-1.1 1.5-1.9 1.8z"/><path class="st1" d="M198.4 110.1c4.2 11.1.7 21.7-6.2 30.4-5.7 8-15 13-25.1 13.6-2 2-4.4 3.8-6.9 5.2-19.1 11.4-35-.3-43.1-8.7-2.2 3.7-4.7 7.2-7.5 10.6-5 6.2-11.2 11.6-18.1 15.8-10.5 6.2-21.5 8.1-31 4.3-9.4-3.9-15.6-12.8-18.1-24.3-1.6-7.7-1.7-15.7-.4-23.4.6-4.2 1.6-8.4 2.9-12.4-12 .2-31.9-2.7-36.4-23.8-.6-2.7-.9-5.5-.7-8.3-6.5-7.4-9.1-17.2-7-26.7 1.8-10.7 7.5-20.5 18.8-25.2 2.4-.9 4.9-1.6 7.5-2.1 22-3.8 44 8.3 59 23.6.2-3.2 1-6.4 2.3-9.3 2.7-5.9 10.4-10.6 18.4-14 5.5-2.2 11.3-4.1 17.1-5.4 3.2-.9 6.6.4 8.3 3.1 2.9 5.1 5.5 10.4 7.6 15.8 2.9 7.9 4.7 16.4 2 22.3-1.3 3-3.2 5.7-5.5 8 22-.2 46.3 6.7 58.6 24.5 1.4 1.9 2.6 4.1 3.5 6.4"/><path class="st2" d="M139.7 48.7c2.9 7.9 4.7 16.4 2 22.3-1.3 3-3.2 5.7-5.5 8-1.3 0-2.6 0-3.8.1-3.1.1-6.2.4-9.3.9-5.9-9.5-17.5-14.2-28.8-11.8-1.8-2.5-3.7-4.8-5.7-7.1-.8-.9-1.6-1.8-2.5-2.7.2-3.2 1-6.4 2.3-9.3 2.7-5.9 10.4-10.6 18.4-14 5.5-2.2 11.3-4.1 17.1-5.4 3.2-.9 6.6.4 8.3 3.1 2.9 5.2 5.4 10.4 7.5 15.9"/><path class="st3" d="M104 84.5c-1.2 4.1-2.9 8-5.2 11.6 1.2-4.1 3-8 5.2-11.6"/><path class="st3" d="M104 84.5c-1.2 4.1-2.9 8-5.2 11.6 1.2-4.1 3-8 5.2-11.6"/><path class="st0" d="M68.9 181c-7.6 4.6-13.5 11.3-16.9 19.3 3.7-7.8 4.8-16.5 3-24.9l13.9 5.6zM109.7 161.1c-5 6.2-11.1 11.6-18.1 15.8-4.7-8.1-12.1-14.4-21-18-8.9-3.7-18.8-4.4-28.2-2-1.6-7.7-1.7-15.7-.4-23.4 12.9-3 26.4-1.8 38.6 3.2 12.3 4.8 22.5 13.4 29.1 24.4"/><path class="st2" d="M91.6 176.9c-10.5 6.2-21.5 8.1-31 4.3-9.4-3.9-15.6-12.8-18.1-24.3 9.4-2.4 19.3-1.6 28.2 2 8.8 3.6 16.2 9.9 20.9 18"/><path class="st0" d="M123.2 80c-2.4.3-4.8.8-7.1 1.3-3.5.6-7 1.5-10.4 2.6h-.1c-.8 0-1.3.1-1.5.4 0 0-.1.1-.1.2 0-.1.1-.1.1-.2.1-.3-.2-.8-.8-1.3v-.1c-1.5-3.1-3.2-6.1-5.2-8.9-1.2-2-2.5-3.9-3.8-5.7 11.3-2.5 22.9 2.2 28.9 11.7z"/><path class="st2" d="M111.4 143.5c1.7 2.5 3.6 4.8 5.8 7-2.2 3.7-4.7 7.2-7.5 10.6-6.6-11-16.8-19.6-29-24.5-12.2-5-25.7-6.1-38.6-3.2.6-4.2 1.6-8.4 2.9-12.4 3.1 0 6.2-.3 9.2-.8 0 0 30.3-1.6 44.7-24-7.2 25.4 12.5 47.3 12.5 47.3"/><path class="st1" d="M199.2 110c4.2 11.1.7 21.7-6.2 30.4-5.7 8-15 13-25.1 13.6 5.1-4.8 7.9-11.4 7.8-18.2 0-2.2-.3-4.5-.9-6.7-6.2-24.9-36-40.8-58.7-44.1-3.2-.6-6.4-1-9.7-1.2 3.4-1.1 6.8-2 10.4-2.6 2.3-.5 4.6-1 7.1-1.3 3.1-.5 6.2-.8 9.3-.9 1.3-.1 2.5-.1 3.8-.1 22-.2 46.3 6.7 58.6 24.5 1.5 2 2.7 4.2 3.6 6.6M104.1 82.8c-2.4-2.1-4.9-4.1-7.6-5.9-18.1-13.4-50.7-23.1-73.9-10.1-2 1.1-4 2.5-5.7 4-5.2 4.6-8.3 11.1-8.4 17.9C2 81.3-.6 71.5 1.5 62 3.3 51.3 9 41.5 20.3 36.8c2.4-.9 4.9-1.6 7.5-2.1 22-3.8 44 8.3 59 23.6.9.9 1.7 1.7 2.5 2.7 2.1 2.2 4 4.6 5.7 7.1 1.4 1.8 2.7 3.8 3.8 5.7 2.1 2.9 3.8 5.9 5.3 9"/><path class="st4" d="M0 0h201v200.3H0z"/></svg>