<svg id="Layer_1" xmlns="http://www.w3.org/2000/svg" viewBox="0 0 300 600"><style>.st0{fill:#231f20}</style><path class="st0" d="M234.4 573.6l-1.2-2c-.2-.3-.4-.7-.6-1-.2.3-.4.7-.6 1l-1.3 2h-1.2l2.4-3.9-2.3-3.8h1.3l1.2 1.9.6.9c.2-.3.4-.7.6-.9l1.2-1.9h1.2l-2.3 3.7 2.4 3.9h-1.4zM241.5 573.6l-1.2-2c-.2-.3-.4-.7-.6-1-.2.3-.4.7-.6 1l-1.3 2h-1.2l2.4-3.9-2.3-3.8h1.3l1.2 1.9.6.9c.2-.3.4-.7.6-.9l1.2-1.9h1.2l-2.3 3.7 2.4 3.9h-1.4zM248.6 573.6l-1.2-2c-.2-.3-.4-.7-.6-1-.2.3-.4.7-.6 1l-1.3 2h-1.2l2.4-3.9-2.3-3.8h1.3l1.2 1.9.6.9c.2-.3.4-.7.6-.9l1.2-1.9h1.2l-2.3 3.7 2.4 3.9h-1.4zM255.7 573.6l-1.2-2c-.2-.3-.4-.7-.6-1-.2.3-.4.7-.6 1l-1.3 2h-1.2l2.4-3.9-2.3-3.8h1.3l1.2 1.9.6.9c.2-.3.4-.7.6-.9l1.2-1.9h1.2l-2.3 3.7 2.4 3.9h-1.4zM262.8 573.6l-1.2-2c-.2-.3-.4-.7-.6-1-.2.3-.4.7-.6 1l-1.3 2h-1.2l2.4-3.9-2.3-3.8h1.3l1.2 1.9.6.9c.2-.3.4-.7.6-.9l1.2-1.9h1.2l-2.3 3.7 2.4 3.9h-1.4zM269.9 573.6l-1.2-2c-.2-.3-.4-.7-.6-1-.2.3-.4.7-.6 1l-1.3 2H265l2.4-3.9-2.3-3.8h1.3l1.2 1.9.6.9c.2-.3.4-.7.6-.9l1.2-1.9h1.2l-2.3 3.7 2.4 3.9h-1.4z"/></svg>