<svg id="Layer_1" xmlns="http://www.w3.org/2000/svg" viewBox="0 0 300 600"><style>.st0{fill:#231f20}</style><path class="st0" d="M39.3 51.7c-.8-.5-2.1-.9-3.5-.9-3 0-5.4 2-5.4 5.2 0 3.1 2.4 5.2 5.6 5.2 1.4 0 2.7-.3 3.5-.7l-.3 3.5c-.9.4-2.1.6-3.9.6-4.4 0-9.1-3-9.1-8.7s4.7-8.8 9.1-8.8c2.1 0 3.8.5 4.8 1l-.8 3.6zM47.8 64.8c-3.7 0-6.6-2.6-6.6-6.4s2.9-6.4 6.6-6.4c3.6 0 6.6 2.6 6.6 6.4s-3 6.4-6.6 6.4zm0-9.5c-1.5 0-2.7 1.3-2.7 3.1s1.3 3.1 2.7 3.1c1.4 0 2.7-1.3 2.7-3.1s-1.2-3.1-2.7-3.1zM64 64.4V57c0-.9-.6-1.7-1.8-1.7-1.2 0-1.9.7-1.9 1.7v7.4h-3.9V52.3H60v1.6c.5-1.3 1.7-2 3.7-2 2.6 0 4.2 1.5 4.2 4.1v8.4H64zM74.3 64.7c-1.7 0-2.9-.3-3.8-.9l-.3-3.5c1.1.7 2.5 1.3 3.8 1.3.7 0 1.2-.4 1.2-.8 0-.5-.4-.7-1.1-.9-2.3-.7-3.7-1.8-3.7-3.9 0-2.4 1.9-3.9 4.5-3.9 1.5 0 3 .4 3.6.7l-.7 2.9c-.6-.3-1.5-.7-2.5-.7-.6 0-1.1.3-1.1.8s.3.7 1.1.9c2.7.7 3.8 2.1 3.8 4.1-.1 2-1.6 3.9-4.8 3.9zM86.9 64.8c-3.7 0-6.6-2.6-6.6-6.4s2.9-6.4 6.6-6.4c3.6 0 6.6 2.6 6.6 6.4s-2.9 6.4-6.6 6.4zm0-9.5c-1.5 0-2.7 1.3-2.7 3.1s1.3 3.1 2.7 3.1c1.4 0 2.7-1.3 2.7-3.1s-1.2-3.1-2.7-3.1zM99.7 64.9c-2.5-.1-4.1-1.4-4.1-4.3V45.4h3.9v14.7c0 1 .6 1.5 1.6 1.6l-1.4 3.2zM104.6 50.7c-.7 0-2.1-1.4-2.1-2.1s1.4-2.1 2.1-2.1 2.1 1.4 2.1 2.1-1.4 2.1-2.1 2.1zm-2 13.7V52.3h3.9v12.1h-3.9zM118.2 64.4v-1.5c-.7 1.2-2.1 1.8-3.7 1.8-3 0-5.8-2.2-5.8-6.4 0-3.9 2.8-6.4 6.1-6.4 1.3 0 2.6.4 3.1.8v-7.4h3.8v19h-3.5zm-.4-7.9c-.4-.5-1.2-1.1-2.4-1.1-1.7 0-2.9 1.3-2.9 3.1 0 1.7 1.2 3.1 2.9 3.1 1.1 0 1.9-.6 2.4-1.3v-3.8zM132.7 64.9c-.7-.2-1.5-.7-1.9-1.6-.5 1-1.7 1.5-3.1 1.5-2.1 0-4-1.5-4-4 0-2.2 1.7-3.7 4.1-3.9l2.4-.2v-.4c0-.7-.6-1.2-1.9-1.2-1.2 0-2.5.4-3.4.9l-.7-3c1-.6 2.6-1.1 4.2-1.1 3.2 0 5.5 1.5 5.5 4.4v3.9c0 1.4.5 2.2 1.5 2.5l-2.7 2.2zm-2.5-5.8l-1.5.1c-1 .1-1.5.8-1.5 1.5 0 .6.5 1.2 1.2 1.2.9 0 1.7-.7 1.7-1.8v-1zM144.6 55.5h-3.1V60c0 1 .6 1.5 1.6 1.5.5 0 .7 0 1-.2l-.3 3c-.4.2-1 .3-1.8.3-2.7 0-4.3-1.4-4.3-3.8v-5.2h-2v-3.2h2v-2.6l3.9-1.4v4h3.9l-.9 3.1zM157.5 57.7l-1.7 1.8h-5.9c.2 1 1.5 2.1 3.6 2.1 1.3 0 2.5-.4 3.3-.9l-.4 3.4c-.9.5-2.3.8-3.8.8-3.7 0-6.6-2.6-6.6-6.5s2.8-6.4 6.3-6.4c3.4 0 5.4 2.3 5.4 4.8-.1.2-.2.6-.2.9zm-5.3-2.8c-1.1 0-2.1.9-2.3 2h4.1v-.3c-.1-.9-.8-1.7-1.8-1.7z"/><g><path class="st0" d="M35.8 82.9c-.8-.5-1.6-.8-2.6-.8-1.7 0-3.1 1.2-3.1 3 0 1.7 1.4 3 3.1 3 1 0 1.8-.2 2.6-.7l-.3 3.3c-.8.4-1.8.6-3 .6-3.4 0-6.5-2.4-6.5-6.3s3.2-6.3 6.5-6.3c1.6 0 2.9.3 4 .9l-.7 3.3zM44.2 91.4c-3.7 0-6.6-2.6-6.6-6.4s2.9-6.4 6.6-6.4c3.6 0 6.6 2.6 6.6 6.4s-2.9 6.4-6.6 6.4zm0-9.4c-1.5 0-2.7 1.3-2.7 3.1s1.3 3.1 2.7 3.1c1.4 0 2.7-1.3 2.7-3.1S45.7 82 44.2 82zM60.4 91.1v-7.4c0-.9-.6-1.7-1.8-1.7-1.2 0-1.9.7-1.9 1.7v7.4h-3.9V79h3.6v1.6c.5-1.3 1.7-2 3.7-2 2.6 0 4.2 1.5 4.2 4.1v8.4h-3.9zM75.1 91.1v-8.9h-3.6v8.9h-3.8v-8.9h-1.8V79h1.8v-1.4c0-3.7 2.4-5.5 5.4-5.5 1.1 0 2.2.1 2.9.4l-.7 3.1c-.5-.2-1.1-.3-1.6-.3-1.4 0-2.2.9-2.2 2.6V79H79v12.1h-3.9zM90.7 91.1v-1.5c-.7 1.2-2.1 1.8-3.7 1.8-3 0-5.8-2.2-5.8-6.4 0-3.9 2.8-6.4 6.1-6.4 1.3 0 2.6.4 3.1.8V72h3.8v19h-3.5zm-.4-8c-.4-.5-1.2-1.1-2.4-1.1-1.7 0-2.9 1.3-2.9 3.1 0 1.7 1.2 3.1 2.9 3.1 1.1 0 1.9-.6 2.4-1.3v-3.8zM107.7 84.3l-1.7 1.8h-5.9c.2 1 1.5 2.1 3.6 2.1 1.3 0 2.5-.4 3.3-.9l-.4 3.4c-.9.5-2.3.8-3.8.8-3.7 0-6.6-2.6-6.6-6.5s2.8-6.4 6.3-6.4c3.4 0 5.4 2.3 5.4 4.8-.1.3-.1.7-.2.9zm-5.3-2.8c-1.1 0-2.1.9-2.3 2h4.1v-.3c0-.8-.8-1.7-1.8-1.7zM117.4 91.1v-7.4c0-.9-.6-1.7-1.8-1.7-1.2 0-1.9.7-1.9 1.7v7.4h-3.9V79h3.6v1.6c.5-1.3 1.7-2 3.7-2 2.6 0 4.2 1.5 4.2 4.1v8.4h-3.9zM131.7 82.2h-3.1v4.5c0 1 .6 1.5 1.6 1.5.5 0 .7 0 1-.2l-.3 3c-.4.2-1 .3-1.8.3-2.7 0-4.3-1.4-4.3-3.8v-5.2h-2V79h2v-2.6l3.9-1.4v4h3.9l-.9 3.2zM138 91.5c-2.5-.1-4.1-1.4-4.1-4.3V72.1h3.9v14.7c0 1 .6 1.5 1.6 1.6l-1.4 3.1zM147.8 89.9c-1.8 4.9-3.8 6.6-6 7.5l-2.4-2.4c1.9-.7 3.4-2.2 4.4-4.7L139.5 79h3.8l1.8 4.7c.3.7.5 1.5.7 2.4h.1c.2-.8.5-1.7.8-2.4l1.8-4.7h3.6l-4.3 10.9zM172.7 91.2H170l-1.6-4.8c-.2-.7-.5-1.6-.7-2.5h-.1c-.2.9-.4 1.8-.7 2.5l-1.6 4.8h-2.6L158.6 79h3.6l1.5 4.6c.2.7.5 1.5.6 2.3h.1c.1-.7.3-1.6.6-2.3l1.5-4.6h3l1.5 4.6c.2.7.4 1.6.6 2.3h.1c.2-.8.4-1.6.6-2.3l1.5-4.6h3.3l-4.4 12.2zM180.4 77.3c-.7 0-2.1-1.4-2.1-2.1s1.4-2.1 2.1-2.1c.7 0 2.1 1.4 2.1 2.1s-1.4 2.1-2.1 2.1zm-2 13.8V79h3.9v12.1h-3.9zM193 82.2h-3.1v4.5c0 1 .6 1.5 1.6 1.5.5 0 .7 0 1-.2l-.3 3c-.4.2-1 .3-1.8.3-2.7 0-4.3-1.4-4.3-3.8v-5.2h-2V79h2v-2.6L190 75v4h3.9l-.9 3.2zM202.7 91.1v-7.4c0-.9-.6-1.7-1.8-1.7-1.2 0-1.9.7-1.9 1.7v7.4h-3.9v-19h3.9v8c.6-.9 1.7-1.5 3.4-1.5 2.7 0 4.2 1.5 4.2 4.1v8.4h-3.9zM223.6 91.6c-.7-.2-1.5-.7-1.9-1.6-.5 1-1.7 1.5-3.1 1.5-2.1 0-4-1.5-4-4 0-2.2 1.7-3.7 4.1-3.9l2.4-.2V83c0-.7-.6-1.2-1.9-1.2-1.2 0-2.5.4-3.4.9l-.7-3c1-.6 2.6-1.1 4.2-1.1 3.2 0 5.5 1.5 5.5 4.4v3.9c0 1.4.5 2.2 1.5 2.5l-2.7 2.2zm-2.5-5.8l-1.5.1c-1 .1-1.5.8-1.5 1.5 0 .6.5 1.2 1.2 1.2.9 0 1.7-.7 1.7-1.8v-1z"/></g><g><path class="st0" d="M34.5 104.1v13.6h-4.1v-13.6h-4.9v-3.4h13.9v3.4h-4.9zM41.1 117.7v-17h4.1v17h-4.1zM59.1 117.7l-1.4-3.8h-5.4l-1.4 3.8H47l6.7-17.2h2.9l6.7 17.2h-4.2zm-3.6-10.2c-.2-.5-.4-1-.5-1.6h-.1c-.1.6-.3 1.1-.5 1.6l-1.1 3.1h3.3l-1.1-3.1zM76.4 117.7l-1.4-3.8h-5.4l-1.4 3.8h-3.9l6.7-17.2h2.9l6.7 17.2h-4.2zm-3.6-10.2c-.2-.5-.4-1-.5-1.6h-.1c-.1.6-.3 1.1-.5 1.6l-1.1 3.1h3.3l-1.1-3.1zM88.4 117.7v-17h4.1v17h-4.1zM105.5 117.7l-4.6-6.7h-1.1v6.7h-4v-17h6.2c2.9 0 5.5 1.9 5.5 5.1 0 2-1.2 3.6-2.6 4.3l5.4 7.6h-4.8zm-4.1-13.6h-1.6v3.8h1.6c1.1 0 2.1-.6 2.1-1.9.1-1.3-1-1.9-2.1-1.9zM123 117.7l-1.4-3.8h-5.4l-1.4 3.8h-3.9l6.7-17.2h2.9l6.7 17.2H123zm-3.6-10.2c-.2-.5-.4-1-.5-1.6h-.1c-.1.6-.3 1.1-.5 1.6l-1.1 3.1h3.3l-1.1-3.1zM143.1 118.3c-.7-.2-1.5-.7-1.9-1.6-.5 1-1.7 1.5-3.1 1.5-2.1 0-4-1.5-4-4 0-2.2 1.7-3.7 4.1-3.9l2.4-.2v-.4c0-.7-.6-1.2-1.9-1.2-1.2 0-2.5.4-3.4.9l-.7-3c1-.6 2.6-1.1 4.2-1.1 3.2 0 5.5 1.5 5.5 4.4v3.9c0 1.4.5 2.2 1.5 2.5l-2.7 2.2zm-2.5-5.8l-1.5.1c-1 .1-1.5.8-1.5 1.5 0 .6.5 1.2 1.2 1.2.9 0 1.7-.7 1.7-1.8v-1zM154.8 117.7v-7.4c0-.9-.6-1.7-1.8-1.7-1.2 0-1.9.7-1.9 1.7v7.4h-3.9v-12.1h3.6v1.6c.5-1.3 1.7-2 3.7-2 2.6 0 4.2 1.5 4.2 4.1v8.4h-3.9zM170.3 117.7v-1.5c-.7 1.2-2.1 1.8-3.7 1.8-3 0-5.8-2.2-5.8-6.4 0-3.9 2.8-6.4 6.1-6.4 1.3 0 2.6.4 3.1.8v-7.4h3.8v19h-3.5zm-.4-7.9c-.4-.5-1.2-1.1-2.4-1.1-1.7 0-2.9 1.3-2.9 3.1 0 1.7 1.2 3.1 2.9 3.1 1.1 0 1.9-.6 2.4-1.3v-3.8z"/></g><g><path class="st0" d="M31.9 150.6c-3.5 0-5.9-2-5.9-4.5 0-1.8 1.2-2.9 2.5-3.3l-1.5-1.5c.1-.8.8-1.4 1.5-1.7-.9-.6-1.8-1.7-1.8-3.2 0-2.6 1.8-4.3 5-4.3.7 0 1.3.1 1.8.2s1.1.2 1.7.2c.7 0 1.4-.2 1.9-.4l.7 3c-.4.2-1 .4-1.5.4.1.2.3.8.3 1.2 0 2-1.6 3.7-3.9 3.9-.5 0-.8.1-.8.5 0 .1.1.3.3.4l1.9.7c2.4.9 3.7 2.1 3.7 4.3-.1 2.2-2.4 4.1-5.9 4.1zm.8-5.7l-1.4-.4c-.9 0-1.6.7-1.6 1.6 0 .8.7 1.5 2.1 1.5 1.4 0 2.1-.6 2.1-1.3 0-.6-.4-1.2-1.2-1.4zm-1-10.1c-.9 0-1.5.7-1.5 1.4 0 .8.7 1.4 1.5 1.4.9 0 1.5-.6 1.5-1.4 0-.8-.6-1.4-1.5-1.4zM50.3 137.7l-1.7 1.8h-5.9c.2 1 1.5 2.1 3.6 2.1 1.3 0 2.5-.4 3.3-.9l-.4 3.4c-.9.5-2.3.8-3.8.8-3.7 0-6.6-2.6-6.6-6.5s2.8-6.4 6.3-6.4c3.4 0 5.4 2.3 5.4 4.8-.1.2-.2.6-.2.9zm-5.3-2.8c-1.1 0-2.1.9-2.3 2h4.1v-.3c-.1-.9-.8-1.7-1.8-1.7zM60.5 135.5h-3.1v4.5c0 1 .6 1.5 1.6 1.5.5 0 .7 0 1-.2l-.3 3c-.4.2-1 .3-1.8.3-2.7 0-4.3-1.4-4.3-3.8v-5.2h-2v-3.2h2v-2.6l3.9-1.4v4h3.9l-.9 3.1zM77.2 144.9c-.7-.2-1.5-.7-1.9-1.6-.5 1-1.7 1.5-3.1 1.5-2.1 0-4-1.5-4-4 0-2.2 1.7-3.7 4.1-3.9l2.4-.2v-.4c0-.7-.6-1.2-1.9-1.2-1.2 0-2.5.4-3.4.9l-.7-3c1-.6 2.6-1.1 4.2-1.1 3.2 0 5.5 1.5 5.5 4.4v3.9c0 1.4.5 2.2 1.5 2.5l-2.7 2.2zm-2.5-5.8l-1.5.1c-1 .1-1.5.8-1.5 1.5 0 .6.5 1.2 1.2 1.2.9 0 1.7-.7 1.7-1.8v-1zM85.3 144.9c-2.5-.1-4.1-1.4-4.1-4.3v-15.2h3.9v14.7c0 1 .6 1.5 1.6 1.6l-1.4 3.2zM92.4 144.9c-2.5-.1-4.1-1.4-4.1-4.3v-15.2h3.9v14.7c0 1 .6 1.5 1.6 1.6l-1.4 3.2zM108.8 143.2c-1.8 4.9-3.8 6.6-6 7.5l-2.4-2.4c1.9-.7 3.4-2.2 4.4-4.7l-4.3-11.3h3.8l1.8 4.7c.3.7.5 1.5.7 2.4h.1c.2-.8.5-1.7.8-2.4l1.8-4.7h3.6l-4.3 10.9zM119.8 144.8c-3.7 0-6.6-2.6-6.6-6.4s2.9-6.4 6.6-6.4c3.6 0 6.6 2.6 6.6 6.4s-2.9 6.4-6.6 6.4zm0-9.5c-1.5 0-2.7 1.3-2.7 3.1s1.3 3.1 2.7 3.1c1.4 0 2.7-1.3 2.7-3.1.1-1.8-1.2-3.1-2.7-3.1zM136.3 144.4v-1.7c-.5 1.3-1.8 2-3.7 2-2.6 0-4.2-1.5-4.2-4v-8.4h3.9v7.4c0 .9.6 1.7 1.8 1.7 1.2 0 1.9-.8 1.9-1.7v-7.3h3.9v12.1h-3.6zM149.9 136.5c-.2-.1-.8-.3-1.2-.3-1.3 0-2.4.7-2.4 2.6v5.6h-3.9v-12.1h3.9v2.7c.4-1.9 1.8-2.9 3.4-2.9.4 0 .8.1 1.1.2l-.9 4.2zM166.8 144.9c-.7-.2-1.5-.7-1.9-1.6-.5 1-1.7 1.5-3.1 1.5-2.1 0-4-1.5-4-4 0-2.2 1.7-3.7 4.1-3.9l2.4-.2v-.4c0-.7-.6-1.2-1.9-1.2-1.2 0-2.5.4-3.4.9l-.7-3c1-.6 2.6-1.1 4.2-1.1 3.2 0 5.5 1.5 5.5 4.4v3.9c0 1.4.5 2.2 1.5 2.5l-2.7 2.2zm-2.5-5.8l-1.5.1c-1 .1-1.5.8-1.5 1.5 0 .6.5 1.2 1.2 1.2.9 0 1.7-.7 1.7-1.8v-1zM174.8 144.7c-1.7 0-2.9-.3-3.8-.9l-.3-3.5c1.1.7 2.5 1.3 3.8 1.3.7 0 1.2-.4 1.2-.8 0-.5-.4-.7-1.1-.9-2.3-.7-3.7-1.8-3.7-3.9 0-2.4 1.9-3.9 4.5-3.9 1.5 0 3 .4 3.6.7l-.7 2.9c-.6-.3-1.5-.7-2.5-.7-.6 0-1.1.3-1.1.8s.3.7 1.1.9c2.7.7 3.8 2.1 3.8 4.1-.1 2-1.6 3.9-4.8 3.9zM185.3 144.7c-1.7 0-2.9-.3-3.8-.9l-.3-3.5c1.1.7 2.5 1.3 3.8 1.3.7 0 1.2-.4 1.2-.8 0-.5-.4-.7-1.1-.9-2.3-.7-3.7-1.8-3.7-3.9 0-2.4 1.9-3.9 4.5-3.9 1.5 0 3 .4 3.6.7l-.7 2.9c-.6-.3-1.5-.7-2.5-.7-.6 0-1.1.3-1.1.8s.3.7 1.1.9c2.7.7 3.8 2.1 3.8 4.1 0 2-1.5 3.9-4.8 3.9zM203 137.7l-1.7 1.8h-5.9c.2 1 1.5 2.1 3.6 2.1 1.3 0 2.5-.4 3.3-.9l-.4 3.4c-.9.5-2.3.8-3.8.8-3.7 0-6.6-2.6-6.6-6.5s2.8-6.4 6.3-6.4c3.4 0 5.4 2.3 5.4 4.8-.1.2-.2.6-.2.9zm-5.3-2.8c-1.1 0-2.1.9-2.3 2h4.1v-.3c-.1-.9-.8-1.7-1.8-1.7zM213.2 135.5H210v4.5c0 1 .6 1.5 1.6 1.5.5 0 .7 0 1-.2l-.3 3c-.4.2-1 .3-1.8.3-2.7 0-4.3-1.4-4.3-3.8v-5.2h-2v-3.2h2v-2.6l3.9-1.4v4h3.9l-.8 3.1zM219.1 144.7c-1.7 0-2.9-.3-3.8-.9l-.3-3.5c1.1.7 2.5 1.3 3.8 1.3.7 0 1.2-.4 1.2-.8 0-.5-.4-.7-1.1-.9-2.3-.7-3.7-1.8-3.7-3.9 0-2.4 1.9-3.9 4.5-3.9 1.5 0 3 .4 3.6.7l-.7 2.9c-.6-.3-1.5-.7-2.5-.7-.6 0-1.1.3-1.1.8s.3.7 1.1.9c2.7.7 3.8 2.1 3.8 4.1-.1 2-1.6 3.9-4.8 3.9z"/></g><g><path class="st0" d="M39.8 171.2h-2.7l-1.6-4.8c-.2-.7-.5-1.6-.7-2.5h-.1c-.2.9-.4 1.8-.7 2.5l-1.6 4.8h-2.6L25.7 159h3.6l1.5 4.6c.2.7.5 1.5.6 2.3h.1c.1-.7.3-1.6.6-2.3l1.5-4.6h3l1.5 4.6c.2.7.4 1.6.6 2.3h.1c.2-.8.4-1.6.6-2.3l1.5-4.6h3.3l-4.4 12.2zM51.1 171.4c-3.7 0-6.6-2.6-6.6-6.4s2.9-6.4 6.6-6.4c3.6 0 6.6 2.6 6.6 6.4s-3 6.4-6.6 6.4zm0-9.4c-1.5 0-2.7 1.3-2.7 3.1s1.3 3.1 2.7 3.1c1.4 0 2.7-1.3 2.7-3.1s-1.3-3.1-2.7-3.1zM67.1 163.1c-.2-.1-.8-.3-1.2-.3-1.3 0-2.4.7-2.4 2.6v5.6h-3.9v-12h3.9v2.7c.4-1.9 1.8-2.9 3.4-2.9.4 0 .8.1 1.1.2l-.9 4.1zM76.9 171.1l-3.6-4.9v4.9h-3.9v-19h3.9v11.8L77 159h4.3l-4.2 5.9 4.5 6.2h-4.7zM84.8 157.3c-.7 0-2.1-1.4-2.1-2.1s1.4-2.1 2.1-2.1 2.1 1.4 2.1 2.1-1.4 2.1-2.1 2.1zm-2 13.8V159h3.9v12.1h-3.9zM97 171.1v-7.4c0-.9-.6-1.7-1.8-1.7-1.2 0-1.9.7-1.9 1.7v7.4h-3.9V159H93v1.6c.5-1.3 1.7-2 3.7-2 2.6 0 4.2 1.5 4.2 4.1v8.4H97zM108.5 177.2c-3.5 0-5.9-2-5.9-4.5 0-1.8 1.2-2.9 2.5-3.3l-1.5-1.5c.1-.8.8-1.4 1.5-1.7-.9-.6-1.8-1.7-1.8-3.2 0-2.6 1.8-4.3 5-4.3.7 0 1.3.1 1.8.2s1.1.2 1.7.2c.7 0 1.4-.2 1.9-.4l.7 3c-.4.2-1 .4-1.5.4.1.2.3.8.3 1.2 0 2-1.6 3.7-3.9 3.9-.5 0-.8.1-.8.5 0 .1.1.3.3.4l1.9.7c2.4.9 3.7 2.1 3.7 4.3-.1 2.3-2.4 4.1-5.9 4.1zm.8-5.7l-1.4-.4c-.9 0-1.6.7-1.6 1.6 0 .8.7 1.5 2.1 1.5 1.4 0 2.1-.6 2.1-1.3 0-.6-.4-1.1-1.2-1.4zm-1.1-10.1c-.9 0-1.5.7-1.5 1.4 0 .8.7 1.4 1.5 1.4.9 0 1.5-.6 1.5-1.4.1-.7-.6-1.4-1.5-1.4zM129.7 171.1v-7.4c0-.9-.6-1.7-1.8-1.7-1.2 0-1.9.7-1.9 1.7v7.4h-3.9v-19h3.9v8c.6-.9 1.7-1.5 3.4-1.5 2.7 0 4.2 1.5 4.2 4.1v8.4h-3.9zM144.6 171.6c-.7-.2-1.5-.7-1.9-1.6-.5 1-1.7 1.5-3.1 1.5-2.1 0-4-1.5-4-4 0-2.2 1.7-3.7 4.1-3.9l2.4-.2v-.4c0-.7-.6-1.2-1.9-1.2-1.2 0-2.5.4-3.4.9l-.7-3c1-.6 2.6-1.1 4.2-1.1 3.2 0 5.5 1.5 5.5 4.4v3.9c0 1.4.5 2.2 1.5 2.5l-2.7 2.2zm-2.5-5.8l-1.5.1c-1 .1-1.5.8-1.5 1.5 0 .6.5 1.2 1.2 1.2.9 0 1.7-.7 1.7-1.8v-1zM156.2 163.1c-.2-.1-.8-.3-1.2-.3-1.3 0-2.4.7-2.4 2.6v5.6h-3.9v-12h3.9v2.7c.4-1.9 1.8-2.9 3.4-2.9.4 0 .8.1 1.1.2l-.9 4.1zM167.3 171.1v-1.5c-.7 1.2-2.1 1.8-3.7 1.8-3 0-5.8-2.2-5.8-6.4 0-3.9 2.8-6.4 6.1-6.4 1.3 0 2.6.4 3.1.8V152h3.8v19h-3.5zm-.4-8c-.4-.5-1.2-1.1-2.4-1.1-1.7 0-2.9 1.3-2.9 3.1 0 1.7 1.2 3.1 2.9 3.1 1.1 0 1.9-.6 2.4-1.3v-3.8zM175.1 171.4c-.7 0-2.2-1.5-2.2-2.2 0-.7 1.5-2.2 2.2-2.2.7 0 2.2 1.5 2.2 2.2 0 .7-1.5 2.2-2.2 2.2z"/></g></svg>