<svg id="Layer_1" xmlns="http://www.w3.org/2000/svg" viewBox="0 0 300 600"><style>.st0{fill:#231f20}</style><path class="st0" d="M32.4 57.5h-6.3v-17h5.6c2.6 0 5 1.7 5 4.5 0 1-.5 2.3-1.4 2.8 1.5.5 3 2.2 3 4.4-.1 3.3-2.7 5.3-5.9 5.3zm-1.4-14h-1.2V47H31c1 0 1.9-.5 1.9-1.7 0-1.3-.9-1.8-1.9-1.8zm.7 6.5h-1.9v4.5h1.9c1.3 0 2.5-.7 2.5-2.2 0-1.6-1.2-2.3-2.5-2.3zM48.3 57.5v-1.7c-.5 1.3-1.8 2-3.7 2-2.6 0-4.2-1.5-4.2-4v-8.4h3.9v7.4c0 .9.6 1.7 1.8 1.7 1.2 0 1.9-.8 1.9-1.7v-7.3h3.9v12.1h-3.6zM62.6 48.6h-3.1v4.5c0 1 .6 1.5 1.6 1.5.5 0 .7 0 1-.2l-.3 3c-.4.2-1 .3-1.8.3-2.7 0-4.3-1.4-4.3-3.8v-5.2h-2v-3.2h2v-2.6l3.9-1.4v4h3.9l-.9 3.1zM72.7 43.7c-.7 0-2.1-1.4-2.1-2.1 0-.7 1.4-2.1 2.1-2.1s2.1 1.4 2.1 2.1c.1.7-1.4 2.1-2.1 2.1zm-1.9 13.8V45.4h3.9v12.1h-3.9zM85.7 42c-.5-.2-1.1-.3-1.6-.3-1.4 0-2.2.9-2.2 2.6v1.1h3.5l-.8 3.2H82v8.9h-3.8v-8.9h-1.8v-3.2h1.8V44c0-3.7 2.4-5.5 5.4-5.5 1.1 0 2.2.1 2.9.4l-.8 3.1zM101 48.6h-3.1v4.5c0 1 .6 1.5 1.6 1.5.5 0 .7 0 1-.2l-.3 3c-.4.2-1 .3-1.8.3-2.7 0-4.3-1.4-4.3-3.8v-5.2h-2v-3.2h2v-2.6l3.9-1.4v4h3.9l-.9 3.1zM110.7 57.5v-7.4c0-.9-.6-1.7-1.8-1.7-1.2 0-1.9.7-1.9 1.7v7.4h-3.9v-19h3.9v8c.6-.9 1.7-1.5 3.4-1.5 2.7 0 4.2 1.5 4.2 4.1v8.4h-3.9zM128.2 50.7l-1.7 1.8h-5.9c.2 1 1.5 2.1 3.6 2.1 1.3 0 2.5-.4 3.3-.9l-.4 3.4c-.9.5-2.3.8-3.8.8-3.7 0-6.6-2.6-6.6-6.5s2.8-6.4 6.3-6.4c3.4 0 5.4 2.3 5.4 4.8-.1.3-.1.7-.2.9zm-5.3-2.8c-1.1 0-2.1.9-2.3 2h4.1v-.3c0-.8-.8-1.7-1.8-1.7zM137.2 56.3c-1.8 4.9-3.8 6.6-6 7.5l-2.4-2.4c1.9-.7 3.4-2.2 4.4-4.7l-4.3-11.3h3.8l1.8 4.7c.3.7.5 1.5.7 2.4h.1c.2-.8.5-1.7.8-2.4l1.8-4.7h3.6l-4.3 10.9zM162.1 57.6h-2.7l-1.6-4.8c-.2-.7-.5-1.6-.7-2.5h-.1c-.2.9-.4 1.8-.7 2.5l-1.6 4.8h-2.6L148 45.4h3.6L153 50c.2.7.5 1.5.6 2.3h.1c.1-.7.3-1.6.6-2.3l1.5-4.6h3l1.5 4.6c.2.7.4 1.6.6 2.3h.1c.2-.8.4-1.6.6-2.3l1.5-4.6h3.3l-4.3 12.2zM178.5 50.7l-1.7 1.8h-5.9c.2 1 1.5 2.1 3.6 2.1 1.3 0 2.5-.4 3.3-.9l-.4 3.4c-.9.5-2.3.8-3.8.8-3.7 0-6.6-2.6-6.6-6.5s2.8-6.4 6.3-6.4c3.4 0 5.4 2.3 5.4 4.8-.1.3-.2.7-.2.9zm-5.4-2.8c-1.1 0-2.1.9-2.3 2h4.1v-.3c0-.8-.7-1.7-1.8-1.7zM188 49.5c-.2-.1-.8-.3-1.2-.3-1.3 0-2.4.7-2.4 2.6v5.6h-3.9v-12h3.9v2.7c.4-1.9 1.8-2.9 3.4-2.9.4 0 .8.1 1.1.2l-.9 4.1zM201.1 50.7l-1.7 1.8h-5.9c.2 1 1.5 2.1 3.6 2.1 1.3 0 2.5-.4 3.3-.9l-.4 3.4c-.9.5-2.3.8-3.8.8-3.7 0-6.6-2.6-6.6-6.5s2.8-6.4 6.3-6.4c3.4 0 5.4 2.3 5.4 4.8-.1.3-.1.7-.2.9zm-5.3-2.8c-1.1 0-2.1.9-2.3 2h4.1v-.3c0-.8-.7-1.7-1.8-1.7z"/><g><path class="st0" d="M39.2 85.6h-2.7l-1.6-4.8c-.2-.7-.5-1.6-.7-2.5h-.1c-.2.9-.4 1.8-.7 2.5l-1.6 4.8h-2.6L25 73.4h3.6l1.5 4.6c.2.7.5 1.5.6 2.3h.1c.1-.7.3-1.6.6-2.3l1.5-4.6h3l1.5 4.6c.2.7.4 1.6.6 2.3.2-.8.4-1.6.6-2.3l1.5-4.6h3.3l-4.2 12.2zM50.5 85.8c-3.7 0-6.6-2.6-6.6-6.4s2.9-6.4 6.6-6.4c3.6 0 6.6 2.6 6.6 6.4s-3 6.4-6.6 6.4zm0-9.4c-1.5 0-2.7 1.3-2.7 3.1s1.3 3.1 2.7 3.1c1.4 0 2.7-1.3 2.7-3.1s-1.3-3.1-2.7-3.1zM66.5 77.5c-.2-.1-.8-.3-1.2-.3-1.3 0-2.4.7-2.4 2.6v5.6H59v-12h3.9v2.7c.4-1.9 1.8-2.9 3.4-2.9.4 0 .8.1 1.1.2l-.9 4.1zM76.3 85.5l-3.6-4.9v4.9h-3.9v-19h3.9v11.8l3.6-4.9h4.3l-4.2 5.9 4.5 6.2h-4.6zM84.2 71.7c-.7 0-2.1-1.4-2.1-2.1 0-.7 1.4-2.1 2.1-2.1s2.1 1.4 2.1 2.1c0 .7-1.4 2.1-2.1 2.1zm-2 13.8V73.4h3.9v12.1h-3.9zM96.3 85.5v-7.4c0-.9-.6-1.7-1.8-1.7-1.2 0-1.9.7-1.9 1.7v7.4h-3.9V73.4h3.6V75c.5-1.3 1.7-2 3.7-2 2.6 0 4.2 1.5 4.2 4.1v8.4h-3.9zM107.9 91.6c-3.5 0-5.9-2-5.9-4.5 0-1.8 1.2-2.9 2.5-3.3l-1.5-1.5c.1-.8.8-1.4 1.5-1.7-.9-.6-1.8-1.7-1.8-3.2 0-2.6 1.8-4.3 5-4.3.7 0 1.3.1 1.8.2s1.1.2 1.7.2c.7 0 1.4-.2 1.9-.4l.7 3c-.4.2-1 .4-1.5.4.1.2.3.8.3 1.2 0 2-1.6 3.7-3.9 3.9-.5 0-.8.1-.8.5 0 .1.1.3.3.4l1.8.5c2.4.9 3.7 2.1 3.7 4.3 0 2.5-2.3 4.3-5.8 4.3zm.8-5.7l-1.4-.4c-.9 0-1.6.7-1.6 1.6 0 .8.7 1.5 2.1 1.5 1.4 0 2.1-.6 2.1-1.3 0-.6-.4-1.1-1.2-1.4zm-1.1-10.1c-.9 0-1.5.7-1.5 1.4 0 .8.7 1.4 1.5 1.4.9 0 1.5-.6 1.5-1.4.1-.7-.6-1.4-1.5-1.4zM129.4 76.6h-3.1v4.5c0 1 .6 1.5 1.6 1.5.5 0 .7 0 1-.2l-.3 3c-.4.2-1 .3-1.8.3-2.7 0-4.3-1.4-4.3-3.8v-5.2h-2v-3.2h2v-2.6l3.9-1.4v4h3.9l-.9 3.1zM137.4 85.8c-3.7 0-6.6-2.6-6.6-6.4s2.9-6.4 6.6-6.4c3.6 0 6.6 2.6 6.6 6.4s-3 6.4-6.6 6.4zm0-9.4c-1.5 0-2.7 1.3-2.7 3.1s1.3 3.1 2.7 3.1c1.4 0 2.7-1.3 2.7-3.1s-1.3-3.1-2.7-3.1zM150.9 91.6c-3.5 0-5.9-2-5.9-4.5 0-1.8 1.2-2.9 2.5-3.3l-1.5-1.5c.1-.8.8-1.4 1.5-1.7-.9-.6-1.8-1.7-1.8-3.2 0-2.6 1.8-4.3 5-4.3.7 0 1.3.1 1.8.2s1.1.2 1.7.2c.7 0 1.4-.2 1.9-.4l.7 3c-.4.2-1 .4-1.5.4.1.2.3.8.3 1.2 0 2-1.6 3.7-3.9 3.9-.5 0-.8.1-.8.5 0 .1.1.3.3.4l1.9.7c2.4.9 3.7 2.1 3.7 4.3-.1 2.3-2.3 4.1-5.9 4.1zm.9-5.7l-1.4-.4c-.9 0-1.6.7-1.6 1.6 0 .8.7 1.5 2.1 1.5 1.4 0 2.1-.6 2.1-1.3 0-.6-.5-1.1-1.2-1.4zm-1.1-10.1c-.9 0-1.5.7-1.5 1.4 0 .8.7 1.4 1.5 1.4.9 0 1.5-.6 1.5-1.4 0-.7-.6-1.4-1.5-1.4zM169.3 78.7l-1.7 1.8h-5.9c.2 1 1.5 2.1 3.6 2.1 1.3 0 2.5-.4 3.3-.9l-.4 3.4c-.9.5-2.3.8-3.8.8-3.7 0-6.6-2.6-6.6-6.5s2.8-6.4 6.3-6.4c3.4 0 5.4 2.3 5.4 4.8-.1.3-.1.7-.2.9zm-5.3-2.8c-1.1 0-2.1.9-2.3 2h4.1v-.3c0-.8-.7-1.7-1.8-1.7zM179.6 76.6h-3.1v4.5c0 1 .6 1.5 1.6 1.5.5 0 .7 0 1-.2l-.3 3c-.4.2-1 .3-1.8.3-2.7 0-4.3-1.4-4.3-3.8v-5.2h-2v-3.2h2v-2.6l3.9-1.4v4h3.9l-.9 3.1zM189.4 85.5v-7.4c0-.9-.6-1.7-1.8-1.7-1.2 0-1.9.7-1.9 1.7v7.4h-3.9v-19h3.9v8c.6-.9 1.7-1.5 3.4-1.5 2.7 0 4.2 1.5 4.2 4.1v8.4h-3.9zM206.8 78.7l-1.7 1.8h-5.9c.2 1 1.5 2.1 3.6 2.1 1.3 0 2.5-.4 3.3-.9l-.4 3.4c-.9.5-2.3.8-3.8.8-3.7 0-6.6-2.6-6.6-6.5s2.8-6.4 6.3-6.4c3.4 0 5.4 2.3 5.4 4.8-.1.3-.1.7-.2.9zm-5.3-2.8c-1.1 0-2.1.9-2.3 2h4.1v-.3c0-.8-.7-1.7-1.8-1.7zM216.4 77.5c-.2-.1-.8-.3-1.2-.3-1.3 0-2.4.7-2.4 2.6v5.6h-3.9v-12h3.9v2.7c.4-1.9 1.8-2.9 3.4-2.9.4 0 .8.1 1.1.2l-.9 4.1z"/></g></svg>