<svg id="Layer_1" xmlns="http://www.w3.org/2000/svg" viewBox="0 0 300 600"><style>.st0{fill:#f9e038}</style><path class="st0" d="M41.5 451.9s-14.7 0-14.7 14.7v4.9s0 14.7 14.7 14.7h159.9s14.7 0 14.7-14.7v-4.9s0-14.7-14.7-14.7H41.5z"/><path d="M68 471.4v1.8h-5.8v-9.1h2.1v7.3H68zM71 465.9v1.8h3.5v1.7H71v2h4.4v1.8h-6.5v-9.1h6.5v1.8H71zM84.1 473.3h-2.3l-.6-1.9h-3l-.6 1.9h-1.9l2.9-9.1h2.5l3 9.1zm-3.4-3.6l-1-3.2-1 3.2h2zM87.2 473.3h-2.1v-9.1H89c.8 0 1.6 0 2.3.5.7.5 1.2 1.4 1.2 2.3 0 1-.6 2-1.6 2.4l1.7 4h-2.4l-1.4-3.6h-1.6v3.5zm0-5.2h1.2c.4 0 .9 0 1.3-.2.3-.2.5-.6.5-1s-.2-.7-.5-.9c-.4-.2-1-.2-1.4-.2h-1.1v2.3zM100.9 473.3h-1.8l-3.5-6.1h-.1v6.1h-1.6v-9.1h2.3l3 5.4v-5.4h1.6v9.1zM113.7 473.3h-2.3l-.6-1.9h-3l-.6 1.9h-1.9l2.9-9.1h2.5l3 9.1zm-3.4-3.6l-1-3.2-1 3.2h2zM118.8 464.1c.7 0 1.5 0 2.1.4.7.5 1.1 1.1 1.1 2 0 1-.7 1.7-1.6 2 1.1.2 1.9 1.1 1.9 2.3 0 .8-.5 1.5-1.1 2-.7.5-1.6.5-2.3.5h-4.1v-9.1h4zm-2 3.7h1.4c.4 0 .8 0 1.1-.2.3-.2.4-.5.4-.8 0-.3-.2-.7-.5-.8-.3-.2-.9-.1-1.2-.1h-1.3v1.9zm0 3.8h1.5c.4 0 .9 0 1.2-.2.3-.2.5-.6.5-.9 0-.3-.2-.7-.5-.9s-.7-.2-1.1-.2h-1.6v2.2zM124 472c-.7-.9-1-2.1-1-3.3 0-2.4 1.2-4.7 3.9-4.7 1.2 0 2.2.4 2.9 1.4.7.9 1 2.2 1 3.3 0 1-.3 2.3-.9 3.2-.7 1-1.8 1.5-3 1.5s-2.2-.4-2.9-1.4zm1.6-5.2c-.2.5-.3 1.3-.3 1.9 0 1.1.2 3 1.7 3 .7 0 1.1-.4 1.4-1 .2-.6.3-1.3.3-1.9 0-.7-.1-1.4-.3-2.1-.3-.6-.7-.9-1.3-.9-.9-.1-1.3.3-1.5 1zM139.3 469.7c0 1 0 2-.7 2.8-.7.7-1.8 1-2.8 1-1 0-2.1-.1-2.8-.8-.9-.8-.9-1.8-.9-3v-5.5h2.3v5.5c0 .4 0 1 .2 1.4.3.5.9.6 1.4.6.4 0 1.1-.1 1.3-.5.3-.4.3-1 .3-1.5v-5.5h1.8v5.5zM147 465.9h-2.3v7.3h-2.1v-7.3h-2.3v-1.8h6.7v1.8zM153.8 473.3h-2.1v-9.1h2.1v9.1zM157.8 473.3h-2.1v-9.1h3.8c.8 0 1.6 0 2.3.5.7.5 1.2 1.4 1.2 2.3 0 1-.6 2-1.6 2.4l1.7 4h-2.4l-1.4-3.6h-1.6v3.5zm0-5.2h1.2c.4 0 .9 0 1.3-.2.3-.2.5-.6.5-1s-.2-.7-.5-.9c-.4-.2-1-.2-1.4-.2h-1.1v2.3zM171.9 473.3h-2.3l-.6-1.9h-3l-.6 1.9h-1.9l2.9-9.1h2.5l3 9.1zm-3.3-3.6l-1-3.2-1 3.2h2zM177.5 466.7c-.3-.8-.8-1.1-1.6-1.1-.6 0-1.3.1-1.3.9 0 .7.8.8 1.3.9.7.2 1.7.3 2.4.8s1.2 1.2 1.2 2.2c0 .9-.4 1.7-1.1 2.3-.7.6-1.7.7-2.6.7-1.7 0-3.3-.7-3.7-2.5l2-.5c.3 1 1 1.3 1.9 1.3.6 0 1.4-.2 1.4-1s-1-.9-1.6-1c-1.6-.3-3.2-.8-3.2-2.8 0-.9.3-1.6 1-2.1.7-.6 1.4-.7 2.3-.7 1.6 0 2.9.6 3.5 2.1l-1.9.5z"/></svg>