<svg id="Layer_1" xmlns="http://www.w3.org/2000/svg" xmlns:xlink="http://www.w3.org/1999/xlink" viewBox="0 0 257.6 257.6"><style>.st0{opacity:.15;fill:#0a0f0f}.st1{fill:#fff}.st2{fill:url(#SVGID_1_)}.st3{fill:url(#SVGID_2_)}.st4{fill:url(#SVGID_3_)}.st5{fill:url(#SVGID_4_)}.st6{fill:url(#SVGID_5_)}.st7{fill:url(#SVGID_6_)}.st8{fill:url(#SVGID_7_)}.st9{clip-path:url(#SVGID_9_)}.st10{clip-path:url(#SVGID_11_);fill:#f89943}.st11,.st12,.st13,.st14,.st15{clip-path:url(#SVGID_11_);fill:#ffd147}.st12,.st13,.st14,.st15{fill:#fbbf45}.st13,.st14,.st15{fill:#f59044}.st14,.st15{fill:#010101}.st15{fill:#fff}.st16{opacity:.38;clip-path:url(#SVGID_13_)}.st17{clip-path:url(#SVGID_15_);fill:#663b16}.st18{fill:none}</style><path class="st0" d="M198.7 236.2c-10.1 9.8-23.8 15.9-38.9 15.9H5.6V97.8c0-15.1 6.1-28.9 15.9-38.9l-5.6 5.6C6.1 74.5 0 88.3 0 103.4v154.2h154.1c15.3 0 29.2-6.2 39.2-16.2l5.4-5.2z"/><path class="st1" d="M108.1 0C89.4 0 71.7 7.4 58.2 20.8c-13.4 13.4-20.8 31-20.8 49.7v149.7h149.4c39 0 70.8-31.7 70.8-70.7V0H108.1z"/><linearGradient id="SVGID_1_" gradientUnits="userSpaceOnUse" x1="47.063" y1="210.615" x2="248.808" y2="8.869"><stop offset="0" stop-color="#9ddcf9"/><stop offset="1" stop-color="#009edb"/></linearGradient><path class="st2" d="M46.4 211.2V70.5C46.4 37 74.3 9 108.1 9h140.5v140.5c0 34-27.7 61.7-61.8 61.7H46.4z"/><linearGradient id="SVGID_2_" gradientUnits="userSpaceOnUse" x1="113.826" y1="252.356" x2="113.826" y2="211.655"><stop offset="0" stop-color="#14b1e7"/><stop offset=".111" stop-color="#14ade2"/><stop offset=".255" stop-color="#13a3d8"/><stop offset=".419" stop-color="#0e92c9"/><stop offset=".597" stop-color="#087cb6"/><stop offset=".783" stop-color="#0064a1"/><stop offset=".89" stop-color="#005495"/></linearGradient><path class="st3" d="M186.9 220.2H37.4L5.6 252h154.2c15.1 0 28.9-6.1 38.9-15.9l23.4-23.4-1.3-1.3c-10.1 5.6-21.6 8.8-33.9 8.8z"/><linearGradient id="SVGID_3_" gradientUnits="userSpaceOnUse" x1="25.854" y1="253.778" x2="25.854" y2="36.331"><stop offset="0" stop-color="#0082bd"/><stop offset=".218" stop-color="#0078b4"/><stop offset=".656" stop-color="#00609e"/><stop offset=".85" stop-color="#005495"/></linearGradient><path class="st4" d="M37.4 70.5c0-11.9 3-23.4 8.7-33.7l-1.3-1.3-23.4 23.4C11.6 69 5.6 82.7 5.6 97.8V252l31.8-31.8V70.5z"/><linearGradient id="SVGID_4_" gradientUnits="userSpaceOnUse" x1="6.406" y1="231.769" x2="220.556" y2="231.769"><stop offset="0" stop-color="#14b1e7"/><stop offset=".112" stop-color="#14ade2"/><stop offset=".258" stop-color="#13a3d8"/><stop offset=".424" stop-color="#0e92c9"/><stop offset=".603" stop-color="#087cb6"/><stop offset=".792" stop-color="#0064a1"/><stop offset=".9" stop-color="#005495"/></linearGradient><path class="st5" d="M186.9 220.2H37.4L5.6 252h154.2c15.1 0 28.9-6.1 38.9-15.9l23.4-23.4-1.3-1.3c-10.1 5.6-21.6 8.8-33.9 8.8z"/><linearGradient id="SVGID_5_" gradientUnits="userSpaceOnUse" x1="25.854" y1="253.778" x2="25.854" y2="36.331"><stop offset="0" stop-color="#0082bd"/><stop offset=".218" stop-color="#0078b4"/><stop offset=".656" stop-color="#00609e"/><stop offset=".85" stop-color="#005495"/></linearGradient><path class="st6" d="M37.4 70.5c0-11.9 3-23.4 8.7-33.7l-1.3-1.3-23.4 23.4C11.6 69 5.6 82.7 5.6 97.8V252l31.8-31.8V70.5z"/><linearGradient id="SVGID_6_" gradientUnits="userSpaceOnUse" x1="47.063" y1="210.615" x2="248.808" y2="8.869"><stop offset="0" stop-color="#9ddcf9"/><stop offset="1" stop-color="#009edb"/></linearGradient><path class="st7" d="M46.4 211.2V70.5C46.4 37 74.3 9 108.1 9h140.5v140.5c0 34-27.7 61.7-61.8 61.7H46.4z"/><linearGradient id="SVGID_7_" gradientUnits="userSpaceOnUse" x1="47.063" y1="210.615" x2="248.808" y2="8.869"><stop offset="0" stop-color="#9ddcf9"/><stop offset="1" stop-color="#009edb"/></linearGradient><path class="st8" d="M46.4 211.2V70.5C46.4 37 74.3 9 108.1 9h140.5v140.5c0 34-27.7 61.7-61.8 61.7H46.4z"/><defs><path id="SVGID_8_" d="M45.9 8.5h203.7v203.1H45.9z"/></defs><clipPath id="SVGID_9_"><use xlink:href="#SVGID_8_" overflow="visible"/></clipPath><g class="st9"><defs><path id="SVGID_10_" d="M107.8 8.7c-34 0-61.9 28.1-61.9 61.7v141.2h140.9c34.1 0 62-27.8 62-61.9V8.7h-141z"/></defs><clipPath id="SVGID_11_"><use xlink:href="#SVGID_10_" overflow="visible"/></clipPath><path class="st10" d="M205.2 147.5l-16.5 10.8-17.7-8.9-1.3-19.8 16.5-10.9 17.7 9z"/><path class="st10" d="M186.2 135.2L169.7 146l-17.7-8.9-1.3-19.8 16.4-10.9 17.8 9zM235.5 102.6L219 113.4l-17.7-8.9-1.3-19.8 16.4-10.9 17.8 9z"/><path class="st11" d="M167.1 106.4l-16.4 10.9-17.7-9-1.3-19.8 16.4-10.8 17.8 8.9zM254.5 131.3L238 142.2l-17.7-9-1.2-19.7h-.1v-.1l16.5-10.8 17.7 8.9zM220.3 133.2l-16.4 10.9-17.7-8.9-1.3-19.8v-.1l16.4-10.8 17.7 9z"/><path class="st11" d="M201.3 104.5l-16.4 10.8-17.8-8.9-1.2-19.8h-.1.1l16.4-10.9 17.7 9z"/><path class="st11" d="M216.4 73.8L200 84.7l-17.7-9-1.3-19.8 16.4-10.8 17.8 8.9z"/><path class="st12" d="M206.4 49.7l-9-4.6L180.9 56l1.3 19.8 12.8 6.5c-.7-11.8 3.3-23.6 11.4-32.6"/><path class="st12" d="M191.3 80.4l-9-4.6-16.4 10.9 1.3 19.8L180 113c-.9-11.9 3.1-23.7 11.3-32.6M210.3 109.1l-9-4.6-16.4 10.9 1.3 19.8 12.8 6.5c-.8-11.9 3.2-23.7 11.3-32.6M244.4 107.2l-9-4.6-16.4 10.9 1.3 19.8 12.8 6.5c-.8-11.8 3.2-23.6 11.3-32.6M157.1 82.3l-9-4.6-16.4 10.9 1.3 19.8 12.8 6.5c-.8-11.8 3.2-23.6 11.3-32.6"/><path class="st13" d="M225.4 78.4l-9-4.6L200 84.7l1.3 19.8L214 111c-.7-11.8 3.3-23.6 11.4-32.6M176.1 111l-9-4.6-16.4 10.9 1.3 19.8 12.8 6.5c-.8-11.8 3.2-23.6 11.3-32.6M195.1 139.8l-9-4.6-16.4 10.9 1.3 19.8 12.8 6.5c-.8-11.8 3.2-23.6 11.3-32.6"/><path class="st14" d="M223.9 96.2l-8.2 5.4 2 3.1 10.2-6.7-1.1-9.4-3.7.5z"/><path class="st15" d="M207.9 119.8l.9 7-8.3 5.5 2.1 3.1 10.1-6.8-1.1-9.3z"/><path class="st14" d="M192.8 150.4l.9 7.1-8.3 5.5 2 3.1 10.2-6.8-1.1-9.3z"/><path class="st14" d="M153.8 135.9l-1.2-17.7 14.6-9.7 15.8 8 1.2 17.7-14.6 9.7-15.8-8zm-19-28.7l-1.2-17.7 14.6-9.7 15.8 8 1.2 17.7-14.6 9.7-15.8-8zm98.7-5.6l-14.6 9.7-15.8-8-1.1-17.7 14.6-9.7 15.9 8 1 17.7zM187.9 134l-1.1-17.7 14.6-9.7 15.8 8 1.2 17.7-14.6 9.7-15.9-8zm10.3-48.1l1.2 17.7-14.6 9.7-15.8-8-1.1-17.7 14.6-9.7 15.7 8zm53.2 26.8l1.1 17.6-14.6 9.7-15.8-8-1.1-17.7 14.6-9.7 15.8 8.1zm-13.2 31.6l18.2-12-1.4-21.9-17.7-9-1.3-19.8-17.7-9-1.3-19.8-6-3.1-1.7 3.3 4.2 2.1 1.1 17.6-14.6 9.7-15.8-8-1.2-17.7 14.6-9.7 6.6 3.4 1.7-3.3-8.5-4.3-18.2 12 1.3 19.8-14.7 9.7-17.7-9-18.2 12.1 1.4 21.9 17.7 8.9 1.3 19.8 17.7 8.9 1.3 19.8 7.6 3.8 1.7-3.3-5.7-2.9-1.2-17.7 14.6-9.7 15.9 8 1.1 17.6-14.6 9.7-5.7-2.9-1.7 3.3 7.6 3.8 18.2-12-1.3-19.8 14.6-9.7 17.8 9.4z"/><path class="st14" d="M234.7 130.4l2 3.1 10.2-6.8-1.1-9.3-3.7.4.9 7.1zM173.8 121.7l.9 7-8.3 5.5 2 3.1 10.2-6.7-1.1-9.4z"/><path class="st15" d="M154.8 92.9l.8 7.1-8.3 5.5 2.1 3.1 10.2-6.8-1.2-9.3z"/><path class="st14" d="M181.5 103.6l2 3 10.2-6.7-1.1-9.3-3.7.4.9 7.1z"/><path class="st15" d="M198.7 76l10.2-6.8-1.2-9.3-3.6.4.8 7.1-8.3 5.5z"/><path class="st10" d="M243.4 222.5L227 233.4l-17.8-9-1.2-19.8h-.1.1l16.4-10.9 17.7 9z"/><path class="st11" d="M175.1 226.3l-16.4 10.9-17.8-8.9-1.2-19.9 16.4-10.8 17.7 9z"/><path class="st11" d="M209.2 224.4l-16.4 10.9-17.7-9-1.3-19.7v-.1l16.4-10.8 17.7 8.9zM224.4 193.7L208 204.6l-17.8-8.9-1.3-19.9 16.5-10.8 17.7 9z"/><path class="st12" d="M214.3 169.6l-9-4.6-16.4 10.9 1.3 19.8 12.8 6.5c-.8-11.8 3.2-23.6 11.3-32.6M199.2 200.3l-9-4.6-16.4 10.9 1.3 19.8 12.8 6.5c-.8-11.8 3.2-23.6 11.3-32.6M165 202.2l-9-4.6-16.4 10.9 1.3 19.8 12.8 6.5c-.8-11.8 3.2-23.6 11.3-32.6"/><path class="st13" d="M233.4 198.4l-9-4.6-16.4 10.9 1.3 19.8 12.8 6.5c-.9-11.9 3.1-23.7 11.3-32.6"/><path class="st14" d="M231.9 216.1l-8.3 5.5 2 3 10.2-6.7-1.1-9.3-3.7.4z"/><path class="st14" d="M161.7 255.8l-1.2-17.7 14.6-9.7 15.8 8 1.2 17.7-14.6 9.7-15.8-8zm-19-28.7l-1.2-17.7 14.6-9.7 15.8 8 1.2 17.7-14.6 9.7-15.8-8zm98.8-5.6l-14.6 9.7-15.8-8-1.1-17.7 14.6-9.7 15.9 8 1 17.7zm-45.6 32.4l-1.1-17.7 14.6-9.7 15.8 8 1.2 17.7-14.6 9.7-15.9-8zm10.3-48.1l1.2 17.7-14.6 9.7-15.8-8-1.1-17.7 14.6-9.7 15.7 8zm53.2 26.8l1.1 17.6-14.6 9.7-15.8-8-1.1-17.7 14.6-9.7 15.8 8.1zm-13.3 31.6l18.2-12-1.4-21.9-17.7-9-1.3-19.8-17.7-9-1.3-19.8-6-3.1-1.7 3.3 4.2 2.1 1.1 17.6-14.6 9.7-15.8-8-1.2-17.7 14.6-9.7 6.6 3.4 1.7-3.3-8.5-4.3-18.2 12 1.3 19.8-14.7 9.7-17.7-9-18.2 12 1.4 21.9 17.7 8.9 1.3 19.8 17.7 8.9 1.3 19.8 7.6 3.8 1.7-3.3-5.7-2.9-1.2-17.7 14.6-9.7 15.9 8 1.1 17.6-14.6 9.7-5.7-2.9-1.7 3.3 7.6 3.8 18.2-12-1.3-19.8 14.6-9.7 17.8 9.5z"/><path class="st14" d="M189.4 223.5l2.1 3.1 10.2-6.8-1.2-9.3-3.6.4.8 7.1z"/><path class="st15" d="M206.6 195.9l10.2-6.8-1.1-9.3-3.7.5.9 7-8.3 5.5z"/><path class="st10" d="M166.6 107.8l-16.4 10.8-17.7-8.9-1.3-19.8L147.6 79l17.8 9z"/><path class="st10" d="M147.6 79l-16.4 10.9-17.7-9-1.3-19.8 16.4-10.8 17.7 8.9zM196.9 46.4l-16.4 10.9-17.7-9-1.3-19.7v-.1l16.4-10.8 17.7 8.9z"/><path class="st11" d="M128.6 50.3l-16.4 10.8-17.7-8.9-1.3-19.8 16.4-10.9 17.7 9zM215.9 75.2L199.5 86l-17.7-8.9-1.3-19.8 16.4-10.9 17.8 9z"/><path class="st11" d="M181.8 77.1L165.3 88l-17.7-9-1.2-19.8h-.1l16.5-10.9 17.7 9zM162.8 48.3l-16.5 10.9-17.7-8.9-1.3-19.8v-.1l16.4-10.8 17.8 9z"/><path class="st11" d="M177.9 17.7l-16.4 10.8-17.8-8.9-1.2-19.8 16.4-10.9 17.7 9z"/><path class="st12" d="M167.9-6.5l-9-4.6L142.4-.2l1.3 19.8 12.8 6.5c-.8-11.8 3.2-23.6 11.4-32.6M152.7 24.2l-9-4.6-16.4 10.9 1.3 19.8 12.8 6.5c-.8-11.8 3.2-23.6 11.3-32.6M171.8 52.9l-9-4.6-16.4 10.9 1.3 19.8 12.8 6.5c-.8-11.8 3.2-23.6 11.3-32.6M205.9 51l-9-4.6-16.4 10.9 1.3 19.8 12.8 6.5c-.9-11.8 3.1-23.6 11.3-32.6M118.6 26.1l-9-4.6-16.5 10.9 1.3 19.8 12.8 6.5c-.8-11.8 3.2-23.6 11.4-32.6"/><path class="st13" d="M186.9 22.3l-9-4.6-16.4 10.9 1.3 19.8 12.8 6.5c-.9-11.8 3.1-23.6 11.3-32.6M137.6 54.9l-9-4.6-16.4 10.9 1.3 19.8 12.8 6.5c-.9-11.8 3.1-23.6 11.3-32.6M156.6 83.6l-9-4.6-16.4 10.9 1.3 19.8 12.8 6.5c-.8-11.8 3.2-23.6 11.3-32.6"/><path class="st14" d="M185.4 40l-8.3 5.5 2.1 3.1 10.1-6.8-1.1-9.3-3.7.4z"/><path class="st15" d="M169.4 63.6l.9 7.1-8.3 5.5 2 3 10.2-6.7-1.1-9.3z"/><path class="st14" d="M154.3 94.3l.8 7-8.3 5.5 2.1 3.1 10.2-6.7-1.2-9.4z"/><path class="st14" d="M115.2 79.8L114 62.1l14.6-9.7 15.8 8 1.2 17.7-14.6 9.7-15.8-8zM96.2 51L95 33.3l14.6-9.7 15.8 8 1.2 17.7-14.5 9.7-15.9-8zm98.8-5.5l-14.6 9.7-15.8-8-1.1-17.7 14.6-9.7 15.9 8 1 17.7zm-45.6 32.3l-1.1-17.7 14.6-9.7 15.8 8 1.2 17.7-14.6 9.7-15.9-8zm10.3-48.1l1.2 17.7-14.6 9.7-15.8-8-1.1-17.7 14.6-9.7 15.7 8zm53.2 26.9l1.1 17.6-14.6 9.7-15.8-8-1.1-17.7 14.6-9.7 15.8 8.1zm-13.3 31.6l18.2-12-1.4-21.9-17.7-9-1.3-19.8-17.7-9-1.3-19.8-6-3.1-1.7 3.4 4.2 2.1 1.1 17.6-14.6 9.7-15.8-8L144.4.7 159-9l6.6 3.4 1.7-3.3-8.5-4.3-18.2 12 1.3 19.8-14.7 9.7-17.7-9-18.2 12 1.4 21.9 17.7 8.9 1.3 19.8 17.7 8.9 1.3 19.8 7.6 3.8 1.7-3.3-5.7-2.9-1.2-17.7 14.6-9.7 15.9 8 1.1 17.6-14.6 9.7-5.7-2.9-1.7 3.3 7.6 3.8 18.2-12-1.3-19.8 14.6-9.7 17.8 9.4z"/><path class="st14" d="M196.1 74.2l2.1 3.1 10.2-6.7-1.2-9.4-3.6.5.8 7.1zM135.3 65.5l.8 7.1-8.3 5.5 2.1 3.1 10.2-6.8-1.2-9.3z"/><path class="st15" d="M116.2 36.8l.9 7-8.3 5.5 2 3.1 10.2-6.7-1.1-9.4z"/><path class="st14" d="M143 47.4l2 3.1 10.2-6.8-1.1-9.3-3.7.5.9 7z"/><path class="st15" d="M160.1 19.8l10.2-6.7-1.1-9.4-3.7.5.9 7-8.3 5.5z"/><path class="st10" d="M277 221.1L260.6 232l-17.7-9-1.3-19.8 16.4-10.9 17.8 9z"/><path class="st10" d="M258 192.3l-16.4 10.9-17.7-8.9-1.3-19.8 16.4-10.9 17.7 9z"/><path class="st11" d="M239 163.6l-16.4 10.9-17.8-9-1.2-19.8 16.4-10.9 17.7 9z"/><path class="st11" d="M273.2 161.7l-16.5 10.8-17.7-8.9-1.3-19.8 16.4-10.9 17.8 9z"/><path class="st12" d="M263.1 137.5l-9-4.6-16.4 10.9 1.3 19.8 12.8 6.5c-.8-11.8 3.2-23.6 11.3-32.6M229 139.5l-9-4.6-16.4 10.9 1.3 19.8 12.8 6.5c-.9-11.9 3.1-23.7 11.3-32.6"/><path class="st13" d="M248 168.2l-9-4.6-16.4 10.9 1.3 19.8 12.8 6.5c-.9-11.8 3.1-23.6 11.3-32.6M267 197l-9-4.6-16.4 10.9 1.3 19.8 12.8 6.5c-.9-11.9 3.1-23.7 11.3-32.6"/><path class="st14" d="M225.6 193.1l-1.2-17.7 14.6-9.7 15.8 8 1.2 17.7-14.6 9.7-15.8-8zm-19-28.8l-1.2-17.7 14.6-9.7 15.8 8 1.2 17.7-14.6 9.7-15.8-8zm98.8-5.5l-14.6 9.7-15.8-8-1.1-17.7 14.6-9.7 15.9 8 1 17.7zm-45.6 32.4l-1.1-17.7 14.6-9.7 15.8 8 1.2 17.7-14.6 9.7-15.9-8zm10.3-48.1l1.2 17.7-14.6 9.7-15.8-8-1.1-17.7 14.6-9.7 15.7 8zm53.2 26.8l1.1 17.6-14.6 9.7-15.8-8-1.1-17.7 14.6-9.7 15.8 8.1zM310 201.5l18.2-12-1.4-21.9-17.7-9-1.3-19.8-17.7-9-1.3-19.8-6-3.1-1.7 3.3 4.2 2.1 1.1 17.6-14.6 9.7-15.8-8-1.2-17.7 14.6-9.7 6.6 3.4 1.7-3.3-8.5-4.3-18.2 12 1.3 19.8-14.7 9.7-17.7-9-18.2 12 1.4 21.9 17.7 8.9 1.3 19.8 17.7 8.9 1.3 19.8 7.6 3.8 1.7-3.3-5.7-2.9-1.2-17.7 14.6-9.7 15.9 8 1.1 17.6-14.6 9.7-5.7-2.9-1.7 3.3 7.6 3.8 18.2-12-1.3-19.8 14.6-9.7 17.8 9.5z"/><path class="st14" d="M245.6 178.9l.9 7-8.3 5.5 2.1 3.1 10.1-6.7-1.1-9.4z"/><path class="st15" d="M226.6 150.1l.9 7.1-8.3 5.5 2 3 10.2-6.7-1.1-9.3z"/><path class="st11" d="M265.2 42.7l-16.4 10.9-17.7-8.9-1.3-19.8L246.2 14l17.7 9z"/><path class="st12" d="M255.2 18.6l-9-4.6-16.4 10.9 1.3 19.8 12.8 6.5c-.9-11.8 3.1-23.6 11.3-32.6"/><path class="st13" d="M274.2 47.4l-9-4.6-16.4 10.9 1.3 19.8 12.8 6.5c-.8-11.9 3.2-23.7 11.3-32.6"/><path class="st14" d="M251.9 72.2l-1.2-17.7 14.6-9.7 15.8 8 1.2 17.7-14.6 9.7-15.8-8zm-19.1-28.7l-1.2-17.7 14.6-9.7 15.8 8 1.2 17.7-14.6 9.7-15.8-8zm98.8-5.6L317 47.6l-15.8-8-1.2-17.7 14.6-9.7 15.9 8 1.1 17.7zM286 70.3l-1.1-17.7 14.6-9.7 15.8 8 1.2 17.7-14.6 9.7-15.9-8zm10.3-48.1l1.2 17.7-14.6 9.7-15.8-8-1.1-17.7 14.6-9.7 15.7 8zm53.2 26.9l1.1 17.6-14.6 9.7-15.8-8-1.2-17.7 14.6-9.7 15.9 8.1zm-13.3 31.5l18.2-12-1.4-21.9-17.7-9L334 18l-17.7-9-1.3-19.8-6-3.1-1.7 3.3 4.2 2.1 1.1 17.6-14.6 9.8-15.8-8L281-6.8l14.6-9.7 6.6 3.4 1.7-3.3-8.5-4.3-18.2 12 1.3 19.8-14.7 9.7-17.7-9-18.2 12 1.4 21.9 17.7 8.9 1.3 19.8 17.7 8.9 1.3 19.8 7.6 3.8 1.7-3.3-5.7-2.9-1.2-17.7 14.6-9.7 15.9 8 1.1 17.6-14.6 9.7-5.7-2.9-1.7 3.3 7.6 3.8 18.2-12-1.3-19.8 14.6-9.7 17.8 9.3z"/><path class="st15" d="M252.9 29.3l.8 7-8.3 5.5 2.1 3.1 10.2-6.7-1.2-9.4z"/><path class="st11" d="M269.5 103L253 113.8l-17.7-8.9-1.3-19.8 16.4-10.9 17.8 9z"/><path class="st12" d="M259.4 78.8l-9-4.6L234 85.1l1.3 19.8 12.8 6.5c-.8-11.8 3.2-23.6 11.3-32.6"/><path class="st14" d="M256.1 132.5l-1.2-17.7 14.6-9.7 15.8 8 1.2 17.7-14.6 9.7-15.8-8zm-19-28.8L235.9 86l14.6-9.7 15.8 8 1.2 17.7-14.6 9.7-15.8-8zm98.7-5.5l-14.6 9.7-15.8-8-1.1-17.7 14.6-9.7 15.9 8 1 17.7zm-45.6 32.3l-1.1-17.7 14.6-9.7 15.8 8 1.2 17.7-14.6 9.7-15.9-8zm10.3-48.1l1.2 17.7-14.6 9.7-15.8-8-1.1-17.7 14.6-9.7 15.7 8zm53.2 26.9l1.1 17.6-14.6 9.7-15.8-8-1.1-17.7 14.6-9.7 15.8 8.1zm-13.2 31.6l18.2-12-1.4-21.9-17.7-9-1.3-19.8-17.7-9-1.3-19.8-6-3.1-1.7 3.3 4.2 2.1 1.1 17.6-14.6 9.7-15.8-8-1.2-17.7 14.6-9.7 6.6 3.4 1.7-3.3-8.5-4.3-18.2 12 1.3 19.8L268 81l-17.7-9-18.2 12 1.4 21.9 17.7 8.9 1.3 19.8 17.7 8.9 1.3 19.8 7.6 3.8 1.7-3.3-5.7-2.9-1.2-17.7 14.6-9.7 15.9 8 1.1 17.6-14.6 9.7-5.7-2.9-1.7 3.3 7.6 3.8 18.2-12-1.3-19.8 14.6-9.7 17.9 9.4z"/><path class="st10" d="M249.9 73.4l-16.5 10.8-17.7-8.9-1.3-19.8 16.5-10.9 17.7 9z"/><path class="st10" d="M230.9 44.6l-16.5 10.9-17.7-9-1.3-19.8 16.4-10.8 17.8 8.9zM280.1 12l-16.4 10.9-17.7-9-1.3-19.7v-.1l16.4-10.8 17.8 9z"/><path class="st11" d="M211.8 15.9l-16.4 10.8-17.7-8.9L176.4-2l16.4-10.9 17.7 9zM265 42.7l-16.4 10.9-17.7-9-1.3-19.7v-.1L246 13.9l17.7 9z"/><path class="st11" d="M246 13.9l-16.4 10.9-17.8-8.9-1.2-19.8h-.1.1L227-14.8l17.7 9z"/><path class="st12" d="M236-10.2l-9-4.6-16.5 10.9 1.3 19.8 12.8 6.5c-.8-11.8 3.2-23.6 11.4-32.6M255 18.5l-9-4.6-16.4 10.9 1.3 19.8 12.8 6.5c-.8-11.8 3.2-23.6 11.3-32.6M201.8-8.2l-9-4.6L176.3-2l1.3 19.8 12.8 6.5c-.7-11.8 3.3-23.6 11.4-32.5"/><path class="st13" d="M270.1-12.1l-9-4.6-16.5 10.9 1.3 19.8 12.8 6.5C258 8.7 262-3.1 270.1-12.1M220.8 20.5l-9-4.6-16.4 10.9 1.3 19.8 12.8 6.5c-.8-11.8 3.2-23.6 11.3-32.6M239.8 49.3l-9-4.6-16.4 10.9 1.3 19.8 12.8 6.5c-.8-11.9 3.2-23.7 11.3-32.6"/><path class="st15" d="M252.6 29.2l.9 7.1-8.3 5.5 2 3.1 10.2-6.8-1.1-9.3z"/><path class="st14" d="M237.5 59.9l.9 7.1-8.3 5.4 2 3.1 10.2-6.7-1.1-9.3z"/><path class="st14" d="M198.5 45.4l-1.2-17.7L212 18l15.8 8 1.2 17.7-14.6 9.7-15.9-8zm-19-28.8l-1.2-17.7 14.6-9.7 15.8 8 1.2 17.7-14.6 9.7-15.8-8zm98.7-5.5l-14.6 9.7-15.8-8-1.1-17.7 14.6-9.7 15.9 8 1 17.7zm-45.6 32.4l-1.1-17.7 14.6-9.7 15.8 8 1.2 17.7-14.6 9.7-15.9-8zm10.3-48.2l1.2 17.7-14.6 9.7-15.8-8L212.5-3l14.6-9.7 15.8 8zm53.2 26.9l1.1 17.6-14.6 9.7-15.8-8-1.1-17.7 14.6-9.7 15.8 8.1zm-13.2 31.6l18.2-12-1.4-21.9-17.7-9-1.3-19.8-17.7-9-1.3-19.8-6-3.1-1.7 3.3 4.2 2.1 1.1 17.6L244.6-8l-15.8-8-1.2-17.7 14.6-9.7 6.6 3.4 1.7-3.3-8.5-4.3-18.2 12 1.3 19.8L210.4-6l-17.7-9-18.2 12 1.4 21.9 17.7 8.9 1.3 19.8 17.7 8.9 1.3 19.8 7.6 3.8 1.7-3.3-5.7-2.9-1.2-17.7 14.6-9.7 15.9 8 1.1 17.6-14.6 9.7-5.7-2.9-1.7 3.3 7.6 3.8 18.2-12-1.3-19.8 14.6-9.7 17.9 9.3z"/><path class="st14" d="M218.5 31.1l.8 7.1-8.2 5.5 2 3.1 10.2-6.8-1.1-9.3z"/><path class="st15" d="M199.5 2.4l.8 7.1-8.3 5.4 2.1 3.1 10.2-6.7-1.2-9.3z"/><path class="st14" d="M226.2 13l2 3.1 10.2-6.7-1.1-9.4-3.7.5.9 7z"/><path class="st10" d="M112.5 61l16.4-10.8 17.7 8.9 1.3 19.8-16.4 10.9-17.7-9z"/><path class="st10" d="M131.5 89.8l16.4-10.9 17.8 9 1.3 19.8-16.5 10.8-17.7-8.9zM82.2 122.4l16.4-10.9 17.8 9 1.2 19.7h.1v.1l-16.5 10.8-17.7-9z"/><path class="st11" d="M150.5 118.5l16.5-10.8 17.7 8.9 1.3 19.8-16.5 10.9-17.7-9zM63.2 93.6l16.4-10.8 17.8 8.9 1.2 19.8h.1-.1l-16.4 10.9-17.7-9zM97.4 91.7l16.4-10.9 17.7 9 1.3 19.7v.1l-16.4 10.9-17.7-9z"/><path class="st11" d="M116.4 120.5l16.4-10.9 17.7 8.9 1.3 19.8-16.4 10.9-17.7-9z"/><path class="st11" d="M101.2 151.1l16.5-10.8 17.7 8.9 1.3 19.8-16.5 10.9-17.7-9z"/><path class="st12" d="M111.3 175.2l9 4.6 16.4-10.9-1.3-19.8-12.8-6.5c.8 11.9-3.2 23.7-11.3 32.6"/><path class="st12" d="M126.4 144.6l9 4.6 16.4-10.9-1.3-19.8-12.8-6.5c.9 11.8-3.1 23.6-11.3 32.6M107.3 115.9l9 4.6 16.4-10.9-1.3-19.8-12.8-6.5c.9 11.8-3.1 23.6-11.3 32.6M73.3 117.7l9 4.6 16.4-10.9-1.3-19.8-12.8-6.5c.8 11.9-3.2 23.7-11.3 32.6M160.6 142.7l9 4.6 16.4-10.9-1.3-19.8-12.8-6.5c.8 11.8-3.2 23.6-11.3 32.6"/><path class="st13" d="M92.3 146.5l9 4.6 16.4-10.9-1.3-19.8-12.8-6.5c.8 11.8-3.2 23.6-11.3 32.6M141.6 113.9l9 4.6 16.4-10.9-1.3-19.8-12.8-6.5c.8 11.8-3.2 23.6-11.3 32.6M122.5 85.1l9 4.6L148 78.9l-1.3-19.8-12.8-6.5c.8 11.8-3.2 23.6-11.4 32.5"/><path class="st14" d="M93.7 128.8l8.3-5.5-2-3.1-10.2 6.8 1.1 9.3 3.7-.4z"/><path class="st15" d="M109.7 105.2l-.8-7.1 8.3-5.5-2.1-3.1-10.2 6.8 1.2 9.3z"/><path class="st14" d="M124.9 74.5l-.9-7.1 8.3-5.4-2-3.1-10.2 6.7 1.1 9.3z"/><path class="st14" d="M163.9 89l1.2 17.7-14.6 9.7-15.8-8-1.2-17.7 14.6-9.7 15.8 8zm19 28.8l1.2 17.7-14.6 9.7-15.8-8-1.2-17.7 14.6-9.7 15.8 8zm-98.8 5.5l14.6-9.7 15.8 8 1.1 17.7L101 149l-15.9-8-1-17.7zM129.7 91l1.1 17.7-14.6 9.7-15.8-8-1.2-17.7 14.6-9.7 15.9 8zm-10.3 48.1l-1.2-17.7 14.6-9.7 15.8 8 1.1 17.7-14.6 9.7-15.7-8zm-53.2-26.9l-1.1-17.6 14.6-9.7 15.8 8 1.1 17.7-14.6 9.7-15.8-8.1zm13.3-31.6l-18.2 12 1.4 21.9 17.7 9 1.3 19.8 17.7 9 1.3 19.8 6 3.1 1.7-3.3-4.2-2.1-1.1-17.6 14.6-9.7 15.8 8 1.2 17.7-14.6 9.7-6.6-3.4-1.7 3.3 8.5 4.3 18.2-12-1.3-19.8 14.7-9.7 17.7 9 18.2-12-1.4-21.9-17.7-8.9-1.3-19.8-17.7-8.9-1.3-19.8-7.6-3.8-1.7 3.3 5.7 2.9L146 78l-14.6 9.7-15.9-8-1.1-17.7 14.6-9.7 5.7 2.9 1.7-3.3-7.6-3.8-18.2 12 1.3 19.8-14.6 9.7-17.8-9z"/><path class="st14" d="M83 94.6l-2-3.1-10.2 6.7 1.1 9.3 3.7-.4-.9-7.1zM143.9 103.3l-.9-7.1 8.3-5.5-2-3.1-10.2 6.8 1.1 9.3z"/><path class="st15" d="M162.9 132l-.9-7.1 8.3-5.4-2-3.1-10.2 6.7 1.1 9.4z"/><path class="st14" d="M136.2 121.4l-2.1-3.1-10.2 6.7 1.2 9.4 3.6-.5-.8-7z"/><path class="st15" d="M119 149l-10.2 6.7 1.1 9.3 3.7-.4-.9-7.1 8.3-5.4z"/><path class="st10" d="M74.3 2.5L90.7-8.4 108.4.5l1.3 19.8-16.4 10.9-17.8-9z"/><path class="st11" d="M142.6-1.4L159-12.3l17.7 9 1.3 19.8-16.4 10.9-17.7-9zM108.4.5l16.5-10.8 17.7 8.9 1.2 19.8h.1l-16.5 10.9-17.7-9z"/><path class="st11" d="M93.3 31.2l16.4-10.9 17.7 9 1.3 19.8L112.3 60l-17.7-9z"/><path class="st12" d="M103.3 55.3l9 4.6L128.8 49l-1.3-19.8-12.8-6.5c.8 11.9-3.2 23.7-11.4 32.6"/><path class="st12" d="M118.5 24.6l9 4.6L144 18.4l-1.3-19.8-12.8-6.5c.7 11.8-3.3 23.6-11.4 32.5M152.6 22.7l9 4.6L178 16.4l-1.3-19.8L164-9.8c.8 11.8-3.2 23.6-11.4 32.5"/><path class="st13" d="M84.3 26.6l9 4.6 16.4-10.9L108.4.5 95.7-6c.8 11.8-3.2 23.6-11.4 32.6"/><path class="st14" d="M85.8 8.9l8.3-5.5L92 .3 81.8 7l1.2 9.4 3.6-.5z"/><path class="st14" d="M155.9-30.9l1.2 17.7-14.6 9.7-15.8-8-1.2-17.7 14.6-9.7 15.8 8zM175-2.1l1.2 17.7-14.6 9.7-15.8-8-1.2-17.7 14.6-9.7 15.8 8zM76.2 3.4l14.6-9.7 15.8 8 1.1 17.7-14.6 9.7-15.9-8-1-17.7zM121.8-29l1.1 17.7-14.6 9.7-15.8-8-1.2-17.7L106-37l15.8 8zm-10.3 48.1l-1.2-17.7L125-8.2l15.8 8 1.1 17.7-14.6 9.7-15.8-8.1zM58.3-7.7l-1.1-17.6L71.8-35l15.8 8 1.1 17.7L74.2.3l-15.9-8zm13.3-31.6l-18.2 12 1.4 21.9 17.7 9 1.3 19.8 17.7 9 1.3 19.8 6.1 3.1 1.7-3.3-4.2-2.1-1.1-17.6 14.6-9.7 15.8 8 1.2 17.7-14.6 9.7-6.6-3.4-1.7 3.3 8.5 4.3 18.2-12-1.3-19.8 14.7-9.7 17.7 9 18.2-12-1.4-21.9-17.7-8.9-1.3-19.8-17.7-8.9-1.4-20.2-7.6-3.8-1.7 3.3 5.7 2.9 1.2 17.7-14.6 9.7-15.9-8-1.1-17.6 14.6-9.7 5.7 2.9 1.7-3.3-7.6-3.8-18.2 12 1.3 19.8-14.6 9.7-17.8-9.1z"/><path class="st15" d="M154.9 12.1l-.8-7.1 8.3-5.5-2.1-3-10.2 6.7 1.2 9.3z"/><path class="st14" d="M128.2 1.5l-2-3.1L116 5.1l1.1 9.3 3.7-.4-.9-7.1z"/><path class="st15" d="M111.1 29.1l-10.2 6.7 1.1 9.3 3.7-.4-.9-7.1 8.3-5.5z"/><path class="st10" d="M151 117.2l16.5-10.9 17.7 9 1.3 19.8-16.5 10.8-17.7-9z"/><path class="st10" d="M170 145.9l16.5-10.8 17.7 8.9 1.3 19.8-16.4 10.9-17.8-9zM120.8 178.5l16.4-10.8 17.7 8.9 1.3 19.8-16.4 10.9-17.8-9z"/><path class="st11" d="M189.1 174.7l16.4-10.9 17.7 9 1.3 19.8-16.4 10.8-17.7-8.9zM101.7 149.8l16.5-10.9 17.7 9 1.3 19.7v.1l-16.4 10.8-17.8-9z"/><path class="st11" d="M135.9 147.9l16.4-10.9 17.7 8.9 1.3 19.8-16.4 10.9-17.7-9z"/><path class="st11" d="M154.9 176.6l16.4-10.9 17.8 9 1.2 19.8h.1l-16.5 10.9-17.7-9z"/><path class="st11" d="M139.8 207.3l16.4-10.9 17.7 9 1.3 19.8-16.4 10.8-17.8-9z"/><path class="st12" d="M149.8 231.4l9 4.6 16.4-10.9-1.3-19.8-12.8-6.5c.9 11.8-3.1 23.6-11.3 32.6M165 200.7l9 4.6 16.4-10.9-1.3-19.8-12.8-6.5c.8 11.9-3.2 23.7-11.3 32.6M145.9 172l9 4.6 16.4-10.9-1.3-19.8-12.8-6.5c.8 11.9-3.2 23.7-11.3 32.6M111.8 173.9l9 4.6 16.4-10.9-1.3-19.8-12.8-6.5c.8 11.8-3.2 23.6-11.3 32.6M199.1 198.8l9 4.6 16.4-10.9-1.3-19.8-12.8-6.5c.8 11.8-3.2 23.6-11.3 32.6"/><path class="st13" d="M130.8 202.6l9 4.6 16.4-10.9-1.3-19.8-12.8-6.5c.8 11.9-3.2 23.7-11.3 32.6M180.1 170.1l9 4.6 16.4-10.9-1.3-19.8-12.8-6.5c.8 11.8-3.2 23.6-11.3 32.6M161.1 141.3l9 4.6 16.4-10.9-1.3-19.8-12.8-6.5c.8 11.8-3.2 23.6-11.3 32.6"/><path class="st14" d="M132.3 184.9l8.3-5.4-2.1-3.1-10.2 6.7 1.2 9.3 3.6-.4z"/><path class="st15" d="M148.3 161.3l-.9-7 8.3-5.5-2-3.1-10.2 6.7 1.1 9.4z"/><path class="st14" d="M163.4 130.7l-.9-7.1 8.3-5.5-2-3.1-10.2 6.8 1.1 9.3z"/><path class="st14" d="M202.4 145.2l1.2 17.7-14.6 9.7-15.8-8-1.2-17.7 14.6-9.7 15.8 8zm19 28.7l1.2 17.7-14.6 9.7-15.8-8-1.2-17.7 14.6-9.7 15.8 8zm-98.7 5.6l14.6-9.7 15.8 8 1.1 17.7-14.6 9.7-15.9-8-1-17.7zm45.6-32.4l1.1 17.7-14.6 9.7-15.8-8-1.2-17.7 14.6-9.7 15.9 8zM158 195.2l-1.2-17.7 14.6-9.7 15.8 8 1.1 17.7-14.6 9.7-15.7-8zm-53.2-26.8l-1.1-17.6 14.6-9.7 15.8 8 1.1 17.7-14.6 9.7-15.8-8.1zm13.2-31.6l-18.2 12 1.4 21.9 17.7 9 1.3 19.8 17.7 9 1.3 19.8 6.1 3.1 1.7-3.3-4.2-2.1-1.1-17.6 14.6-9.7 15.8 8 1.2 17.7-14.6 9.7-6.6-3.4-1.7 3.3 8.5 4.3 18.2-12-1.3-19.8 14.7-9.7 17.7 9 18.2-12.1-1.4-21.9-17.7-8.9-1.3-19.8-17.7-8.9-1.3-19.8-7.6-3.8-1.7 3.3 5.7 2.9 1.2 17.7-14.6 9.7-15.9-8-1.1-17.6 14.6-9.7 5.7 2.9 1.7-3.3-7.6-3.8-18.2 12 1.3 19.8-14.6 9.7-17.9-9.4z"/><path class="st14" d="M121.5 150.7l-2-3.1-10.2 6.8 1.1 9.3 3.7-.4-.8-7.1zM182.4 159.4l-.8-7.1 8.2-5.4-2-3.1-10.2 6.7 1.1 9.4z"/><path class="st15" d="M201.4 188.2l-.8-7.1 8.3-5.5-2.1-3.1-10.2 6.8 1.2 9.3z"/><path class="st14" d="M174.7 177.5l-2-3-10.2 6.7 1.1 9.3 3.7-.4-.9-7.1z"/><path class="st15" d="M157.5 205.1l-10.2 6.8 1.2 9.3 3.6-.4-.8-7.1 8.3-5.5z"/><path class="st10" d="M40.6 3.8L57.1-7l17.7 8.9 1.3 19.8-16.4 10.9-17.8-9zM59.7 32.6l16.4-10.9 17.7 9 1.3 19.8-16.4 10.9-17.7-9z"/><path class="st11" d="M78.7 61.4l16.4-10.9 17.7 8.9 1.3 19.8-16.4 10.9-17.7-9zM25.5 34.5l16.4-10.8 17.8 8.9 1.2 19.8h.1L44.5 63.3l-17.7-9z"/><path class="st11" d="M44.5 63.3L61 52.4l17.7 9 1.2 19.7h.1v.1L63.5 92l-17.7-9zM29.4 93.9l16.4-10.8L63.5 92l1.3 19.8-16.4 10.9-17.8-9z"/><path class="st12" d="M39.4 118.1l9 4.6 16.4-10.9L63.6 92l-12.8-6.5c.8 11.8-3.2 23.6-11.4 32.6M54.6 87.4l9 4.6L80 81.1l-1.3-19.8L66 54.8c.7 11.8-3.3 23.6-11.4 32.6M35.5 58.7l9 4.6L61 52.4l-1.3-19.8-12.8-6.5c.7 11.8-3.3 23.6-11.4 32.6M88.7 85.5l9 4.6 16.4-10.9-1.3-19.8-12.8-6.5c.9 11.8-3.1 23.6-11.3 32.6"/><path class="st13" d="M20.4 89.3l9 4.6L45.9 83l-1.3-19.8-12.8-6.5c.7 11.8-3.2 23.6-11.4 32.6M69.7 56.7l9 4.6 16.4-10.9-1.3-19.8L81 24.1c.8 11.9-3.2 23.7-11.3 32.6M50.7 28l9 4.6 16.4-10.9-1.2-19.8-12.8-6.5C62.8 7.2 58.8 19 50.7 28"/><path class="st14" d="M53 17.3l-.8-7 8.2-5.5-2-3.1-10.2 6.7 1.1 9.4z"/><path class="st14" d="M92 31.9l1.2 17.7-14.6 9.7-15.8-8-1.2-17.7 14.6-9.7 15.8 8zm19.1 28.7l1.2 17.7L97.6 88l-15.8-8-1.2-17.7 14.6-9.7 15.9 8zm-98.8 5.5l14.6-9.7 15.8 8 1.1 17.7-14.6 9.7-15.9-8-1-17.7zm45.6-32.3L59 51.5l-14.6 9.7-15.8-8-1.2-17.7L42 25.8l15.9 8zM47.6 81.9l-1.2-17.7L61 54.5l15.8 8L78 80.2l-14.6 9.7-15.8-8zM-5.6 55l-1.1-17.6 14.6-9.7 15.8 8 1.1 17.7-14.6 9.7L-5.6 55zM7.7 23.4l-18.2 12 1.4 21.9 17.7 9 1.3 19.8 17.7 9 1.3 19.8 6 3.1 1.7-3.3-4.2-2.1L31.3 95l14.6-9.7 15.8 8 1.2 17.7-14.6 9.7-6.6-3.4-1.7 3.3 8.5 4.3 18.2-12L65.4 93l14.7-9.7 17.7 9 18.2-12-1.4-21.9-17.7-8.9-1.3-19.8-17.7-8.9-1.3-20L69-3.1 67.3.2 73 3.1l1.2 17.7-14.6 9.7-15.9-8-1.1-17.7 14.6-9.7L62.9-2l1.7-3.3L57-9.1l-18.2 12L40 22.7l-14.6 9.7-17.7-9z"/><path class="st14" d="M72 46.1l-.8-7.1 8.3-5.5-2.1-3.1-10.2 6.8 1.2 9.3z"/><path class="st15" d="M91 74.8l-.8-7 8.3-5.5-2.1-3.1-10.2 6.7 1.2 9.4z"/><path class="st14" d="M64.3 64.2l-2-3.1-10.2 6.8 1.1 9.3 3.7-.5-.9-7z"/><path class="st15" d="M47.1 91.8L37 98.5l1.1 9.4 3.7-.5-.9-7 8.3-5.5z"/><path class="st10" d="M14.4 124.7l16.4-10.9 17.8 9 1.3 19.8-16.5 10.8-17.7-8.9zM33.4 153.4l16.5-10.8 17.7 8.9 1.3 19.8-16.5 10.9-17.7-9z"/><path class="st11" d="M52.4 182.2l16.5-10.9 17.7 9 1.3 19.8-16.4 10.8-17.8-8.9z"/><path class="st11" d="M18.3 184.1l16.4-10.8 17.7 8.9 1.3 19.8-16.4 10.9-17.7-9z"/><path class="st12" d="M28.3 208.2l9 4.6L53.8 202l-1.3-19.8-12.8-6.5c.8 11.8-3.2 23.6-11.4 32.5M62.5 206.3l9 4.6L88 200l-1.3-19.8-12.8-6.5c.7 11.8-3.3 23.6-11.4 32.6"/><path class="st13" d="M43.5 177.6l9 4.6L69 171.3l-1.3-19.8-12.8-6.5c.7 11.8-3.3 23.6-11.4 32.6M24.5 148.8l9 4.6 16.4-10.9-1.3-19.8-12.8-6.5c.8 11.8-3.2 23.6-11.3 32.6"/><path class="st14" d="M65.8 152.7l1.2 17.7-14.6 9.7-15.8-8-1.2-17.7 14.6-9.7 15.8 8zm19 28.7l1.2 17.7-14.6 9.7-15.8-8-1.2-17.7 14.6-9.7 15.8 8zm-98.7 5.6l14.6-9.7 15.8 8 1.1 17.7L3 212.7l-15.9-8-1-17.7zm45.6-32.4l1.1 17.7-14.6 9.7-15.8-8-1.2-17.7 14.6-9.7 15.9 8zm-10.3 48.1L20.2 185l14.6-9.7 15.8 8 1.1 17.7-14.6 9.7-15.7-8zm-53.2-26.8l-1.1-17.6 14.6-9.7 15.8 8 1.1 17.7L-16 184l-15.8-8.1zm13.2-31.6l-18.2 12 1.4 21.9 17.7 9 1.3 19.8 17.7 9 1.3 19.8 6 3.1 1.7-3.3-4.2-2.1L5 215.9l14.6-9.7 15.8 8 1.2 17.7-14.6 9.5-6.6-3.4-1.7 3.3 8.5 4.3 18.2-12-1.3-19.8 14.7-9.7 17.7 9 18.2-12-1.4-21.9-17.7-8.9-1.3-19.8-17.7-8.9-1.3-19.8-7.6-3.8-1.7 3.3 5.7 2.9 1.2 17.7-14.6 9.7-15.9-8-1.1-17.6L31 116l5.7 2.9 1.7-3.3-7.6-3.8-18.2 12 1.3 19.8-14.6 9.7-17.9-9z"/><path class="st14" d="M45.8 166.9l-.9-7 8.3-5.5-2-3.1L41 158l1.1 9.4z"/><path class="st15" d="M64.8 195.7l-.8-7.1 8.2-5.5-2-3.1-10.2 6.8 1.1 9.3z"/><path class="st10" d="M29.2 93.2l16.4-10.8 17.8 8.9 1.3 19.8L48.2 122l-17.7-9z"/><path class="st11" d="M48.2 122l16.5-10.9 17.7 9 1.3 19.8-16.5 10.8-17.7-8.9z"/><path class="st11" d="M14.1 123.9L30.5 113l17.7 9 1.3 19.8-16.4 10.9-17.7-9z"/><path class="st12" d="M24.1 148l9 4.6 16.4-10.9-1.3-19.8-12.8-6.5c.8 11.9-3.1 23.7-11.3 32.6M58.3 146.1l9 4.6 16.4-10.9-1.2-19.8-12.8-6.5c.7 11.8-3.3 23.6-11.4 32.6"/><path class="st13" d="M39.3 117.4l9 4.6 16.4-10.9-1.3-19.8-12.8-6.5c.8 11.8-3.2 23.6-11.3 32.6"/><path class="st14" d="M61.6 92.5l1.2 17.7-14.6 9.7-15.8-8-1.2-17.7 14.6-9.7 15.8 8zm19 28.7l1.2 17.7-14.6 9.7-15.8-8-1.2-17.7 14.6-9.7 15.8 8zm-98.8 5.6l14.6-9.7 15.8 8 1.1 17.7-14.6 9.7-15.9-8-1-17.7zm45.6-32.4l1.1 17.7-14.6 9.7-15.8-8L-3 96.1l14.6-9.7 15.8 8zm-10.3 48.1L16 124.9l14.6-9.7 15.8 8 1.1 17.7-14.5 9.6-15.9-8zm-53.2-26.8L-37.2 98l14.6-9.7 15.8 8 1.1 17.7-14.6 9.7-15.8-8zm13.3-31.6l-18.2 12 1.4 21.9 17.7 9 1.3 19.8 17.7 9 1.3 19.8 6 3.1 1.7-3.3-4.1-2.2-1.1-17.6 14.6-9.7 15.8 8 1.2 17.7-14.6 9.7-6.6-3.4-1.7 3.3 8.5 4.3 18.2-12-1.3-19.9 14.7-9.7 17.7 9 18.2-12-1.4-21.9-17.7-8.9-1.3-19.8-17.7-8.9-1.3-19.8-7.6-3.8-1.7 3.3 5.7 2.9 1.2 17.7-14.6 9.7-15.9-8-1.1-17.6 14.6-9.7 5.7 2.9 1.7-3.3-7.6-3.8-18.2 12 1.3 19.8L-5.1 93l-17.7-8.9z"/><path class="st14" d="M41.6 106.7l-.9-7.1 8.3-5.4-2-3.1-10.2 6.7 1.1 9.4z"/><path class="st15" d="M60.6 135.5l-.9-7.1 8.3-5.5-2-3.1-10.2 6.8 1.1 9.3z"/><path class="st10" d="M67.8 151.6l16.4-10.9 17.8 8.9 1.2 19.8-16.4 10.9-17.7-9zM86.8 180.3l16.4-10.8 17.8 8.9 1.3 19.8-16.5 10.9-17.7-9zM37.5 212.9L54 202l17.7 9 1.2 19.8h.1l-16.5 10.9-17.7-9z"/><path class="st11" d="M105.8 209.1l16.5-10.9 17.7 8.9 1.3 19.9-16.5 10.8-17.7-9zM18.5 184.2l16.4-10.9 17.8 8.9 1.2 19.8h.1l-16.5 10.9-17.7-9z"/><path class="st11" d="M52.7 182.2l16.4-10.8 17.7 8.9 1.3 19.8L71.7 211 54 202z"/><path class="st11" d="M71.7 211l16.4-10.9 17.7 9 1.3 19.7v.1l-16.4 10.8-17.7-8.9z"/><path class="st12" d="M81.7 235.1l9 4.6 16.4-10.9-1.3-19.8-12.8-6.5c.9 11.8-3.1 23.6-11.3 32.6M62.6 206.4l9 4.6L88 200.1l-1.3-19.8-12.7-6.4c.8 11.7-3.2 23.5-11.4 32.5M28.6 208.3l9 4.6L54 202l-1.3-19.8-12.8-6.5c.8 11.8-3.2 23.6-11.3 32.6M115.9 233.2l9 4.6 16.4-10.9-1.3-19.8-12.8-6.5c.8 11.8-3.2 23.6-11.3 32.6"/><path class="st13" d="M47.6 237l9 4.6L73 230.7l-1.3-19.8-12.7-6.4c.7 11.8-3.3 23.6-11.4 32.5M96.9 204.4l9 4.6 16.4-10.9-1.3-19.8-12.8-6.5c.8 11.9-3.2 23.7-11.3 32.6M77.8 175.7l9 4.6 16.4-10.9-1.3-19.8-12.8-6.5c.9 11.8-3.1 23.6-11.3 32.6"/><path class="st14" d="M49 219.3l8.3-5.5-2-3-10.2 6.7 1.1 9.3 3.7-.4z"/><path class="st15" d="M65 195.7l-.8-7.1 8.3-5.4-2.1-3.1-10.2 6.7 1.2 9.4z"/><path class="st14" d="M80.2 165l-.9-7 8.3-5.5-2-3.1-10.2 6.8 1.1 9.3z"/><path class="st14" d="M119.2 179.6l1.2 17.7-14.6 9.7-15.8-8-1.2-17.7 14.6-9.7 15.8 8zm19 28.7l1.2 17.7-14.6 9.7-15.8-8-1.2-17.7 14.6-9.7 15.8 8zm-98.8 5.6l14.6-9.7 15.8 8 1.1 17.7-14.6 9.7-15.9-8-1-17.7zM85 181.5l1.1 17.7-14.6 9.7-15.8-8-1.2-17.7 14.6-9.7 15.9 8zm-10.3 48.1l-1.2-17.7 14.6-9.7 15.8 8 1.1 17.7-14.6 9.7-15.7-8zm-53.2-26.8l-1.1-17.6 14.6-9.7 15.8 8 1.1 17.7-14.6 9.7-15.8-8.1zm13.3-31.6l-18.2 12 1.4 21.9 17.7 9 1.3 19.8 17.7 9s.3 4.9.6 9.9c.3 4.9.6 9.9.6 9.9 2.9 1 5.2 3.3 6.4 3.3 3.5-2.3 1.2-4.6-2.8-5.7l-.6-8.8-.6-8.8 14.6-9.7 15.8 8 1.2 17.7s-3.7 2.4-7.3 4.8c-3.7 2.4-7.3 4.9-7.3 4.9-7.2 6.9-3.7-11.7-6.1-.1-1.2 4.6 9.3 4.6 15.4-1.7 4.6-3 9.1-6 9.1-6l-1.3-19.8 14.7-9.7 17.7 9 18.2-12-1.4-21.9L124 197l-1.3-19.8-17.7-8.9-1.3-19.8-7.6-3.8-1.7 3.3 5.7 2.9 1.2 17.7-14.6 9.7-15.9-8-1.1-17.6 14.6-9.7 5.7 2.9 1.7-3.3-7.6-3.8-18.2 12 1.3 19.8-14.6 9.7-17.8-9.1z"/><path class="st14" d="M99.2 193.8l-.9-7.1 8.3-5.5-2-3-10.2 6.7 1.1 9.3z"/><path class="st15" d="M118.2 222.5l-.9-7 8.3-5.5-2-3.1-10.2 6.8 1.1 9.3z"/><path class="st14" d="M91.5 211.9l-2.1-3.1-10.2 6.8 1.2 9.3 3.6-.4-.8-7.1z"/></g><g class="st9"><defs><path id="SVGID_12_" d="M45.9 8.5h203.7v203.1H45.9z"/></defs><clipPath id="SVGID_13_"><use xlink:href="#SVGID_12_" overflow="visible"/></clipPath><g class="st16"><defs><path id="SVGID_14_" d="M30.5-4h235.2v217.3H30.5z"/></defs><clipPath id="SVGID_15_"><use xlink:href="#SVGID_14_" overflow="visible"/></clipPath><path class="st17" d="M45.9 211.6V70.4c0-33.6 27.9-61.7 61.9-61.7h141v141c0 34.2-27.8 61.9-62 61.9H45.9z"/></g></g><path class="st18" d="M46.4 211.2V70.5C46.4 37 74.3 9 108.1 9h140.5v140.5c0 34-27.7 61.7-61.8 61.7H46.4z"/></svg>