<svg id="Layer_1" xmlns="http://www.w3.org/2000/svg" xmlns:xlink="http://www.w3.org/1999/xlink" viewBox="0 0 300 600"><style>.st0{fill:#005c97}.st1{clip-path:url(#SVGID_2_);fill:#fff}.st2{clip-path:url(#SVGID_4_);fill:url(#SVGID_5_)}.st3{clip-path:url(#SVGID_7_);fill:url(#SVGID_8_)}.st4{clip-path:url(#SVGID_10_);fill:url(#SVGID_11_)}</style><path class="st0" d="M98.5 535.8v5.2h-9.1v24.8h-5.8V541h-9.1v-5.2h24zm2.5 29.9h5.8v-30H101v30zm35.6 0h-5.9l-3.1-7.4h-10.1l-3 7.4h-5.8l12.7-30.3h2.5l12.7 30.3zm28.1 0h-5.9l-3.1-7.4h-10.1l-3 7.4h-5.8l12.7-30.3h2.5l12.7 30.3zm-39.1-12.3l-3.1-7.4-3.1 7.4h6.2zm28.1 0l-3.1-7.4-3.1 7.4h6.2z"/><defs><path id="SVGID_1_" d="M25.7 523.5h146.7v49.9H25.7z"/></defs><clipPath id="SVGID_2_"><use xlink:href="#SVGID_1_" overflow="visible"/></clipPath><path class="st1" d="M53.5 567.6c2.6 0 4.9-1.1 6.6-2.8l7.1-7.1c1.6-1.7 2.6-3.9 2.7-6.4v-22.1h-22c-2.6 0-4.9 1.1-6.6 2.8l-7.1 7.1c-1.6 1.7-2.6 3.9-2.7 6.4v22.1h22z"/><defs><path id="SVGID_3_" d="M50.4 531.3c-4 0-7.2 3.2-7.3 7.2v2.5h15.1v15h2.4c4 0 7.3-3.2 7.3-7.3v-17.5H50.4z"/></defs><clipPath id="SVGID_4_"><use xlink:href="#SVGID_3_" overflow="visible"/></clipPath><linearGradient id="SVGID_5_" gradientUnits="userSpaceOnUse" x1="1.34" y1="601.606" x2="2.676" y2="601.606" gradientTransform="scale(18.2417 -18.2417) rotate(45 764.555 287.503)"><stop offset="0" stop-color="#9ddcf9"/><stop offset=".1" stop-color="#9ddcf9"/><stop offset=".9" stop-color="#009edb"/><stop offset="1" stop-color="#009edb"/></linearGradient><path class="st2" d="M30.7 543.6l24.8-24.7 24.8 24.7-24.8 24.8z"/><g><defs><path id="SVGID_6_" d="M60.6 558H41.2l-7.7 7.7h20.1c2 0 3.8-.8 5.2-2.2l6.5-6.5-.2-.2c-1.4.8-2.9 1.2-4.5 1.2"/></defs><clipPath id="SVGID_7_"><use xlink:href="#SVGID_6_" overflow="visible"/></clipPath><linearGradient id="SVGID_8_" gradientUnits="userSpaceOnUse" x1=".674" y1="601.378" x2="2.01" y2="601.378" gradientTransform="matrix(23.7811 0 0 -23.7811 17.411 14862.72)"><stop offset="0" stop-color="#18b1e7"/><stop offset=".112" stop-color="#18ade2"/><stop offset=".259" stop-color="#16a2d8"/><stop offset=".426" stop-color="#1191c8"/><stop offset=".608" stop-color="#097bb5"/><stop offset=".799" stop-color="#0063a0"/><stop offset=".9" stop-color="#005595"/><stop offset="1" stop-color="#005595"/></linearGradient><path class="st3" d="M33.5 556.8h31.8v8.9H33.5z"/></g><g><defs><path id="SVGID_9_" d="M35.6 540.4c-1.4 1.4-2.2 3.2-2.2 5.2v20.1l7.7-7.7v-19.5c0-1.6.4-3.1 1.1-4.4l-.2-.2-6.4 6.5z"/></defs><clipPath id="SVGID_10_"><use xlink:href="#SVGID_9_" overflow="visible"/></clipPath><linearGradient id="SVGID_11_" gradientUnits="userSpaceOnUse" x1="1.331" y1="601.279" x2="2.667" y2="601.279" gradientTransform="matrix(0 -23.7815 -23.7815 0 14337.18 597.358)"><stop offset="0" stop-color="#0082bd"/><stop offset=".224" stop-color="#0077b4"/><stop offset=".676" stop-color="#005f9e"/><stop offset=".85" stop-color="#005595"/><stop offset="1" stop-color="#005595"/></linearGradient><path class="st4" d="M33.5 533.9h8.9v31.8h-8.9z"/></g></svg>