<svg id="Layer_1" xmlns="http://www.w3.org/2000/svg" viewBox="0 0 201 200.3"><style>.st0{fill:#bdc2c7}</style><path class="st0" d="M175.3 129.6c.6 2.2.9 4.4.9 6.7.1 6.8-2.7 13.4-7.8 18.2-2 2-4.4 3.8-6.9 5.2-19.1 11.4-35-.3-43.1-8.7-2.1-2.2-4.1-4.5-5.8-7 0 0-19.7-22-12.6-47.4v-.1c2.3-3.6 4-7.5 5.2-11.6 0 0 .1-.1.1-.2.2-.3.7-.4 1.5-.4h.1c3.2.2 6.5.5 9.7 1.2 22.7 3.3 52.5 19.2 58.7 44.1"/><path class="st0" d="M105.3 84.8c0 .1-.1.1-.1.2-2.3 3.6-4 7.5-5.2 11.6v.1c-14.4 22.4-44.7 24-44.7 24-3 .5-6.1.8-9.2.8-12 .2-31.9-2.7-36.4-23.8-.6-2.7-.9-5.5-.7-8.3 0-6.9 3.1-13.4 8.3-18 1.7-1.5 3.6-2.9 5.7-4 23.2-12.9 55.8-3.3 73.9 10.2 2.7 1.8 5.2 3.7 7.6 5.9v.1c.6.4.9.9.8 1.2"/></svg>